<?xml version="1.0" ?>
<svg baseProfile="full" height="30.0mm" version="1.1" viewBox="(0, 0, 20, 30)" width="20.0mm" xmlns="http://www.w3.org/2000/svg" xmlns:ev="http://www.w3.org/2001/xml-events" xmlns:xlink="http://www.w3.org/1999/xlink">
	<defs/>
	<path d="M 12.894160292553915,2.5242980561555073 L 13.126349892008639,1.8174946004319654 L 13.626349892008639,1.8174946004319654 L 13.626349892008639,-4.582505399568035 L 16.155507559395247,-4.582505399568035 L 18.684665226781856,-4.582505399568035 L 18.684665226781856,1.8174946004319654 L 19.184665226781856,1.8174946004319654 L 19.184665226781856,2.3504908639318955 C 19.184665226781856,2.8301875010818325 19.083693304535636,2.9712810840689468 18.174946004319654,3.761426693803035 C 17.266198704103672,4.551572303537123 17.165226781857452,4.697007421310635 17.165226781857452,5.21577787153816 C 17.165226781857452,5.7345483217656845 17.294610306327904,5.820606871866758 18.459062026561952,6.076363372548894 C 19.623513746796004,6.332119873231029 19.74761472815514,6.4306647531264245 19.700071840153296,7.0618121715028455 C 19.652528952151453,7.692959589879266 19.377886730435883,7.892996883383938 16.95364962299759,9.062185106549563 C 14.401151814012389,10.29323233735247 14.27022713577633,10.400189710749915 14.454281449924503,11.104014489265902 C 14.62908720159702,11.772472710544982 14.513568664304971,11.977536199402108 13.299096077004002,13.154649377837172 C 12.084623489703036,14.331762556272237 11.947078506325367,14.56739502637911 11.923646243227315,15.510974078905909 C 11.900213980129264,16.454553131432707 11.920146139675504,16.730736541742584 12.12296783868973,18.272808182004695 L 12.34832528203887,19.986221115629263 L 11.188022595414886,20.696134315913984 C 10.143750177453299,21.335056196170232 9.999022612116667,21.52153861663103 9.740746942048562,22.560958520521957 C 9.482471271980456,23.60037842441288 9.183029121033352,23.99416892117314 6.7463254325775175,26.49886348812455 C 4.3096217441216815,29.003558055075953 3.984137549868114,29.281857451403887 3.4914834900418352,29.281857451403887 C 2.9988294302155563,29.281857451403887 2.910527010827426,29.133043122386194 2.608459296160535,27.793714161226944 C 2.306391581493644,26.45438520006769 2.3287501579373844,26.171731509569945 2.832045060597936,24.967177256249492 C 3.335339963258488,23.762623002929043 3.603258036312552,23.41164205035131 5.511225791138575,21.457367730472154 L 7.631189963167489,19.28595181949532 L 6.945724571216575,18.239799400120233 C 6.3288057184607505,17.29826222268266 6.260259179265659,17.046597984937847 6.260259179265659,15.723157022672112 C 6.260259179265659,14.399716060406377 6.324154129825968,14.006088397821397 6.899208684868747,11.78688039682233 C 7.4742632399115285,9.567672395823262 7.623644418511771,9.198343578230457 8.393020470871171,8.093592220894283 C 9.16239652323057,6.98884086355811 9.418587148361937,6.684341252699784 10.954926722184846,5.048596112311015 C 12.491266296007757,3.412850971922246 12.685189653044663,3.1604211663066955 12.894160292553915,2.5242980561555073" fill="none" stroke="#000000" stroke-width="0.1"/>
</svg>
