<?xml version="1.0" ?>
<svg baseProfile="full" height="564.0mm" version="1.1" viewBox="(0, 0, 374, 564)" width="374.0mm" xmlns="http://www.w3.org/2000/svg" xmlns:ev="http://www.w3.org/2001/xml-events" xmlns:xlink="http://www.w3.org/1999/xlink">
	<defs/>
	<path d="M 0.0,0.0 L 0.0,563.4233261339093 L 374.0,563.4233261339093 L 374.0,0.0 L 0.0,0.0" fill="none" stroke="#000000" stroke-width="0.1"/>
	<path d="M 272.9172462203024,129.04100431965443 L 272.9172462203024,129.85100431965444 L 303.4304859611231,129.85100431965444 L 303.4304859611231,129.04100431965443 L 272.9172462203024,129.04100431965443" fill="none" stroke="#000000" stroke-width="0.1"/>
	<path d="M 255.95396328293737,163.7753455723542 L 255.95396328293737,164.5853455723542 L 263.44560475161984,164.5853455723542 L 263.44560475161984,163.7753455723542 L 255.95396328293737,163.7753455723542" fill="none" stroke="#000000" stroke-width="0.1"/>
	<path d="M 204.66022678185746,199.72134989200865 L 204.66022678185746,200.53134989200865 L 213.3635313174946,200.53134989200865 L 213.3635313174946,199.72134989200865 L 204.66022678185746,199.72134989200865" fill="none" stroke="#000000" stroke-width="0.1"/>
	<path d="M 298.76605831533476,261.92005399568035 L 298.76605831533476,262.7300539956803 L 314.7393412526998,262.7300539956803 L 314.7393412526998,261.92005399568035 L 298.76605831533476,261.92005399568035" fill="none" stroke="#000000" stroke-width="0.1"/>
	<path d="M 248.28009719222462,261.92005399568035 L 248.28009719222462,262.7300539956803 L 271.1194708423326,262.7300539956803 L 271.1194708423326,261.92005399568035 L 248.28009719222462,261.92005399568035" fill="none" stroke="#000000" stroke-width="0.1"/>
	<path d="M 101.66886609071274,307.5593628509719 L 101.66886609071274,308.36936285097187 L 141.06763498920085,308.36936285097187 L 141.06763498920085,307.5593628509719 L 101.66886609071274,307.5593628509719" fill="none" stroke="#000000" stroke-width="0.1"/>
	<path d="M 242.2217818574514,335.42761339092874 L 242.2217818574514,336.2376133909287 L 247.6939848812095,336.2376133909287 L 247.6939848812095,335.42761339092874 L 242.2217818574514,335.42761339092874" fill="none" stroke="#000000" stroke-width="0.1"/>
	<path d="M 282.20666306695466,370.9697300215983 L 282.20666306695466,371.77973002159825 L 288.4866414686825,371.77973002159825 L 288.4866414686825,370.9697300215983 L 282.20666306695466,370.9697300215983" fill="none" stroke="#000000" stroke-width="0.1"/>
	<path d="M 198.19802375809934,326.54208423326133 L 198.19802375809934,327.3520842332613 L 203.26633909287256,327.3520842332613 L 203.26633909287256,326.54208423326133 L 198.19802375809934,326.54208423326133" fill="none" stroke="#000000" stroke-width="0.1"/>
	<path d="M 123.88268898488121,347.94813174946006 L 123.88268898488121,348.75813174946 L 127.73934125269977,348.75813174946 L 127.73934125269977,347.94813174946006 L 123.88268898488121,347.94813174946006" fill="none" stroke="#000000" stroke-width="0.1"/>
	<path d="M 200.62134989200865,479.61551835853135 L 200.62134989200865,480.4255183585313 L 230.73070194384448,480.4255183585313 L 230.73070194384448,479.61551835853135 L 200.62134989200865,479.61551835853135" fill="none" stroke="#000000" stroke-width="0.1"/>
	<path d="M 207.4874406047516,406.5118466522678 L 207.4874406047516,407.32184665226777 L 212.9596436285097,407.32184665226777 L 212.9596436285097,406.5118466522678 L 207.4874406047516,406.5118466522678" fill="none" stroke="#000000" stroke-width="0.1"/>
	<path d="M 25.0,30.0 A 5.0,5.0 0 0,1 35.0,30.0 A 5.0,5.0 0 0,1 25.0,30.0" fill="none" stroke="#000000" stroke-width="0.1"/>
	<path d="M 339.0,30.0 A 5.0,5.0 0 0,1 349.0,30.0 A 5.0,5.0 0 0,1 339.0,30.0" fill="none" stroke="#000000" stroke-width="0.1"/>
	<path d="M 339.0,533.4233261339093 A 5.0,5.0 0 0,1 349.0,533.4233261339093 A 5.0,5.0 0 0,1 339.0,533.4233261339093" fill="none" stroke="#000000" stroke-width="0.1"/>
	<path d="M 25.0,533.4233261339093 A 5.0,5.0 0 0,1 35.0,533.4233261339093 A 5.0,5.0 0 0,1 25.0,533.4233261339093" fill="none" stroke="#000000" stroke-width="0.1"/>
</svg>
