<?xml version="1.0" ?>
<svg baseProfile="full" height="34.0mm" version="1.1" viewBox="(0, 0, 58, 34)" width="58.0mm" xmlns="http://www.w3.org/2000/svg" xmlns:ev="http://www.w3.org/2001/xml-events" xmlns:xlink="http://www.w3.org/1999/xlink">
	<defs/>
	<path d="M 48.77886470796664,2.5242980561555073 L 49.47624190064795,1.8174946004319654 L 49.97624190064795,1.8174946004319654 L 49.97624190064795,-4.582505399568035 L 53.7170626349892,-4.582505399568035 L 57.45788336933045,-4.582505399568035 L 57.45788336933045,1.8174946004319654 L 57.95788336933045,1.8174946004319654 L 57.95788336933045,2.1892835370580968 C 57.95788336933045,2.5238935800216145 57.603861143647194,2.9378784612311177 54.417661112497875,6.329132349153129 C 51.23146108134855,9.72038623707514 50.81747620013905,10.177822754315978 50.27781230040284,10.903497521561508 C 49.73814840066663,11.629172288807037 49.616849675075194,11.79072736440099 49.06482504448844,12.519048277501033 C 48.51280041390167,13.247369190601075 48.230079031612256,13.59045780249325 46.237611221594264,15.949934396422785 C 44.24514341157627,18.30941099035232 43.894221737961814,18.700128057286108 42.72839448544971,19.857105065760692 C 41.56256723293761,21.014082074235276 41.4505163055327,21.23342963200784 41.60788521140064,22.050580643486374 C 41.76525411726859,22.867731654964906 41.69341746096165,23.08284612150844 40.88951864833118,24.201725308921684 C 40.085619835700726,25.320604496334933 39.884758086844904,25.564884816611674 38.88090115977297,26.644528511689106 C 37.87704423270103,27.72417220676654 37.78576036999553,27.907952978791183 37.968062532718,28.482336231935523 C 38.15036469544047,29.05671948507987 38.07203157534445,29.25416960238375 37.18473133175768,30.456837404974344 L 36.19884217221682,31.79313496340834 L 33.24520942304146,32.15901205824626 C 30.586939948783627,32.4883014436004 28.898164146868247,32.54894759980001 16.357451403887687,32.76547362024241 L 2.423326133909287,33.00605808740064 L 3.157420717566612,32.117186457968366 C 3.866955036453125,31.258053397723398 3.866955036453125,31.208713689787228 3.157420717566612,30.642446153123522 L 2.423326133909287,30.056577477710956 L 4.442764578833693,29.70439162206649 C 6.260259179265659,29.387424351986464 6.532088673389266,29.2683772685755 7.161059520069767,28.513920787956835 C 7.790030366750266,27.759464307338174 8.25450120908288,27.60466550968343 11.805767943395901,26.96593281140937 C 15.35703467770892,26.327200113135312 15.751619870410368,26.230312023498346 15.751619870410368,25.99705191503971 C 15.751619870410368,25.763791806581075 15.43517963065405,25.67292522524847 12.587217472847186,25.088386101713656 C 9.739255315040324,24.503846978178842 9.436339548301664,24.405232969239528 9.558059805460577,24.10224601232049 C 9.679780062619491,23.79925905540145 9.935637149028077,23.654620771124364 12.116630669546437,22.65586316954963 C 14.297624190064795,21.6571055679749 14.758683477406288,21.50986598229445 16.72722354296137,21.183467312745154 C 18.695763608516447,20.857068643195866 19.26120637309528,20.68067954048978 22.381651188749704,19.41957628568432 C 25.502096004404127,18.15847303087886 26.091144708423325,17.87015210339711 28.272138228941685,16.536367010866837 C 30.45313174946004,15.20258191833656 30.877213822894166,14.981467385075797 32.512958963282934,14.32522167825923 C 34.148704103671705,13.668975971442661 34.67955110109726,13.515644764117736 37.82142893753843,12.791909605009986 C 41.30829380222268,11.98870628871302 41.3139907572623,11.985933040965913 42.65974192389512,10.43664429294549 C 43.87234577517496,9.040640671195197 44.04830223347295,8.825386392177073 44.419306506875046,8.284101502764253 C 44.79031078027714,7.7428166133514305 44.99403117921999,7.460095231062013 46.45651049630357,5.456887679870083 C 47.91898981338716,3.453680128678153 48.151225234553465,3.1604211663066955 48.77886470796664,2.5242980561555073" fill="none" stroke="#000000" stroke-width="0.1"/>
</svg>
