<?xml version="1.0" ?>
<svg baseProfile="full" height="39.0mm" version="1.1" viewBox="(0, 0, 64, 39)" width="64.0mm" xmlns="http://www.w3.org/2000/svg" xmlns:ev="http://www.w3.org/2001/xml-events" xmlns:xlink="http://www.w3.org/1999/xlink">
	<defs/>
	<path d="M 47.3358321400441,3.363410581450649 L 47.45680345572354,1.8174946004319654 L 47.95680345572354,1.8174946004319654 L 47.95680345572354,-4.582505399568035 L 50.68790496760259,-4.582505399568035 L 53.41900647948164,-4.582505399568035 L 53.41900647948164,1.8174946004319654 L 53.91900647948164,1.8174946004319654 L 53.22967772174557,4.06977048266664 C 52.5635674364282,6.246183571039726 52.565812676249564,6.359933430341495 53.29633621455971,7.446868156928188 C 53.976724740054905,8.459207769752373 54.18705768321371,8.644249115751036 55.399665646147746,9.29728161691482 C 56.612273609081775,9.950314118078605 56.903112221486275,9.976103270738843 58.30805177019277,9.555173143517203 C 59.712991318899256,9.134243016295565 60.057524071582165,9.087473002159827 61.75337929702186,9.087473002159827 C 63.44923452246156,9.087473002159827 63.66092924372649,9.148104171937003 63.870326509671195,9.69378469993158 C 64.07972377561589,10.239465227926159 63.90680391451107,10.462904339038275 62.141127898622976,11.928175811052737 C 60.375451882734865,13.3934472830672 60.02666403830158,13.597207835202736 58.653249454290176,13.965781332408111 L 57.127233249833054,14.375307440414085 L 57.381168203653246,16.289562818155535 C 57.609709662091426,18.01239265812284 57.56591409139807,18.479702227285816 56.943212496719696,20.962658509785303 C 56.32051090204131,23.44561479228479 56.27435661132119,23.957169332762255 56.48166958951842,26.078203914559985 C 56.68898256771564,28.199238496357715 56.87105131234691,28.81046377115676 58.30235703583109,32.19045666255039 C 59.73366275931528,35.57044955394402 59.924007416671344,36.07726781857451 60.20580360939178,37.258639308855294 L 60.51891049019227,38.57127429805615 L 50.85772738332508,38.57127429805615 L 41.196544276457885,38.57127429805615 L 42.91279742134089,37.59529041965528 C 44.45742525173559,36.71690492909448 44.6514054105071,36.56105075087118 44.85259900905598,36.036748637422264 C 45.05415646257519,35.51149833311979 44.825727497924554,35.43145214764788 42.53051433069565,35.2230426298248 C 40.239444521622474,35.015009336436016 39.86413605201181,34.92590609072973 38.777429634588984,34.33201017276201 L 37.56997805967473,33.67212581946455 L 38.3735419456041,32.991068936900774 C 39.096749442940535,32.37811774259338 39.29374586423531,32.163761474997784 40.34350615855186,30.84750626094478 C 41.3932664528684,29.531251046891782 41.481757559143105,29.339454547846636 41.22841722129891,28.929541270493345 C 40.97507688345471,28.51962799314005 40.646395814035806,28.474082073434126 37.9416065271099,28.474082073434126 C 35.236817240183996,28.474082073434126 34.936285097192226,28.414631132280544 34.936285097192226,27.879572661898322 C 34.936285097192226,27.3445141915161 34.48191144708424,27.403008789199717 30.39254859611231,28.464518638734482 C 26.30318574514039,29.526028488269247 25.575265873225057,29.74703450501678 23.11334987695898,30.67457880620981 C 20.651433880692906,31.60212310740284 20.215248911723716,31.705183585313176 18.751500187267087,31.705183585313176 C 17.28775146281046,31.705183585313176 17.01433379181796,31.647897577422285 16.01732347734212,31.13232350640427 C 15.020313162866277,30.616749435386247 14.648722753865703,30.513737908608313 12.301419387336388,30.10220823862494 C 9.954116020807072,29.690678568641566 9.360097192224622,29.560474659169298 6.361231101511879,28.800169143902277 C 3.3623650107991363,28.03986362863525 3.029157667386609,27.90054254202225 3.029157667386609,27.40695827777231 C 3.029157667386609,26.913374013522372 3.3222428839806786,26.8585313174946 5.9600098333273035,26.8585313174946 C 8.597776782673929,26.8585313174946 9.031956048332676,26.899844152357968 10.301802489914776,27.271659666128276 C 11.571648931496876,27.64347517989858 12.076241900647947,27.620729494359004 15.347732181425485,27.044202810732525 C 18.619222462203023,26.467676127106042 19.10388768898488,26.367983694543614 20.19438444924406,26.047278485108222 L 21.406047516198704,25.69093936351334 L 20.396328293736502,25.05157225761815 L 19.386609071274297,24.412205151722965 L 21.002159827213823,23.986750440641053 C 22.456155507559394,23.603841200667333 22.730730021988055,23.519965073024366 23.74790497150044,23.147989164211378 C 24.765079921012823,22.776013255398386 24.987218149954508,22.646436476817403 25.969287260917284,21.852221378401524 C 26.951356371880063,21.05800627998564 27.423924561151306,20.688658759113736 30.69496915362971,18.15874616968246 C 33.9660137461081,15.628833580251182 34.413891580401085,15.246760259179265 35.17374749655949,14.338012958963283 C 35.93360341271789,13.4292656587473 36.065144974371634,13.20868825733765 36.4891631130969,12.132238944866783 C 36.949571068380926,10.96340728023197 37.032050647091516,10.910922234947751 40.11292372408995,9.826295549659948 C 42.950290135258435,8.827395806444663 43.4044352435549,8.60223663335115 44.65437480705459,7.574703818724821 C 45.90431437055427,6.547171004098493 46.10177975828086,6.356816984917589 46.62902868432056,5.671163626915783 C 47.15627761036025,4.985510268913977 47.2269579559326,4.754734964367463 47.3358321400441,3.363410581450649" fill="none" stroke="#000000" stroke-width="0.1"/>
</svg>
