<?xml version="1.0" ?>
<svg baseProfile="full" height="57.0mm" version="1.1" viewBox="(0, 0, 43, 57)" width="43.0mm" xmlns="http://www.w3.org/2000/svg" xmlns:ev="http://www.w3.org/2001/xml-events" xmlns:xlink="http://www.w3.org/1999/xlink">
	<defs/>
	<path d="M 29.085668980946398,2.173502056221682 L 29.281857451403887,1.8174946004319654 L 29.781857451403887,1.8174946004319654 L 29.781857451403887,-4.582505399568035 L 32.916846652267814,-4.582505399568035 L 36.05183585313175,-4.582505399568035 L 36.05183585313175,1.8174946004319654 L 36.55183585313175,1.8174946004319654 L 37.678213048205876,3.1301295896328294 C 38.6919525237726,4.311501079913607 38.928920274916756,4.644708423326134 40.04789055964747,6.462203023758099 C 41.16686084437818,8.279697624190065 41.33312808236519,8.60280777537797 41.710562939517644,9.693304535637148 C 42.087997796670095,10.783801295896328 42.150552382024415,11.005939524838013 42.33610879306089,11.914686825053995 C 42.52166520409737,12.823434125269978 42.52473429224425,13.143306401802004 42.366799674529716,15.113409590374255 C 42.20886505681519,17.083512778946506 42.15674509772768,17.34603977678668 41.84560008365457,17.738679568775982 C 41.534455069581455,18.131319360765286 41.4729245369811,18.35669546436285 41.23029475765099,19.992440604751618 C 40.98766497832088,21.62818574514039 40.943501498004004,21.83012958963283 40.78865995448227,22.011879049676025 C 40.63381841096054,22.193628509719222 40.59583386376607,22.456155507559394 40.40881448253758,24.637149028077754 C 40.22179510130909,26.81814254859611 40.181320638388144,27.302807775377968 40.00406985332812,29.483801295896328 C 39.826819068268094,31.664794816414688 39.75056137094028,32.06868250539957 39.24149288005,33.52267818574514 C 38.73242438915971,34.976673866090714 38.539368378312695,35.39822630172978 37.310932771579836,37.738202542135824 L 35.94600431965443,40.338176142586974 L 33.75867675594009,40.52000720359711 L 31.571349192225753,40.70183826460725 L 32.322867986559864,41.82001150941995 L 33.07438678089398,42.938184754232644 L 31.972436122365856,44.60334462068331 C 30.980680529690545,46.10198850048891 30.79691804445471,46.39859978113581 30.134811270007514,47.569457427152294 C 29.47270449556032,48.740315073168794 29.32778964397426,49.07235421166307 28.685662754146936,50.88984881209503 C 28.04353586431961,52.707343412526996 27.891435038899598,53.07084233261339 27.164654499946817,54.52483801295896 L 26.35712056777706,56.14038876889849 L 20.24659484112395,56.09134104220904 L 14.136069114470843,56.04229331551959 L 15.08072779414063,55.03372346852894 L 16.025386473810418,54.0251536215383 L 14.749442444814676,53.116601334559164 C 13.601092818718513,52.29890427627793 13.470444802959827,52.100649545922906 13.442962287227823,51.1340540310089 C 13.415479771495821,50.16745851609489 13.592637747773008,49.798632737581976 15.214542049999684,47.44579624587979 C 16.836446352226357,45.09295975417761 17.074572344510507,44.750914877747206 17.595801972841155,44.02534748157574 C 18.117031601171803,43.29978008540428 18.336501079913607,43.061165603101664 19.790496760259177,41.6392026585496 C 21.244492440604752,40.21723971399754 21.639023341913752,39.942965298557915 23.73580577334919,38.89645850415338 C 25.832588204784624,37.849951709748844 26.064773729987213,37.66448411861733 26.057661025375076,37.04178259283827 C 26.050548320762942,36.4190810670592 26.035549155224654,36.248920086393085 25.907669369992195,35.340172786177106 C 25.77978958475974,34.43142548596113 25.83032544184657,34.23957883369331 26.413027940860477,33.42170626349892 C 26.995730439874382,32.60383369330453 27.011653587242012,32.512958963282934 26.57225941453677,32.512958963282934 C 26.132865241831524,32.512958963282934 25.870338243991352,32.67121746434869 23.94698943613504,34.095543973940536 C 22.02364062827873,35.51987048353238 21.647336404143665,35.72882255461722 20.183947194784373,36.1850646847889 C 18.56847522446649,36.688721789991405 18.54500774117885,36.68441033373238 16.55540963075258,35.51842818185373 L 14.552860077120004,34.344855978727786 L 15.222959726734747,32.98268370127977 C 15.826049411388013,31.756728651576548 16.00130704915058,31.564351856127335 16.975536104360412,31.05891574678762 C 17.949765159570244,30.553479637447893 18.094525057049303,30.334816068655734 18.423135079151002,28.872280058866007 C 18.751745101252705,27.409744049076288 18.909127962941618,27.120760512530317 19.99696369604012,25.982444693406315 C 21.084799429138616,24.844128874282312 21.24740601963642,24.562653840510006 21.623029601018118,23.167694355683263 C 21.998653182399813,21.772734870856524 22.182166500555237,21.52139916096155 23.45816278257234,20.654337256733548 C 24.734159064589445,19.787275352505546 24.917460922086065,19.53435814629743 25.291181357538523,18.125165194652393 C 25.66490179299098,16.715972243007354 25.73848104537712,16.47861771058315 26.026973881399883,15.751619870410368 C 26.315466717422645,15.02462203023758 26.56096522519526,14.560151187904967 28.481958959126022,11.106911447084233 C 30.40295269305679,7.6536717062634985 30.632644238596058,7.184135067310491 30.778874414518715,6.411545057554152 C 30.925104590441368,5.638955047797813 30.838758793902244,5.40193160331199 29.915416449127505,4.04131061269592 C 28.992074104352767,2.680689622079851 28.909099357534657,2.493908766432427 29.085668980946398,2.173502056221682" fill="none" stroke="#000000" stroke-width="0.1"/>
</svg>
