<?xml version="1.0" ?>
<svg baseProfile="full" height="30.0mm" version="1.1" viewBox="(0, 0, 27, 30)" width="27.0mm" xmlns="http://www.w3.org/2000/svg" xmlns:ev="http://www.w3.org/2001/xml-events" xmlns:xlink="http://www.w3.org/1999/xlink">
	<defs/>
	<path d="M 6.415514996480446,3.481443131940341 L 8.683585313174946,1.8174946004319654 L 9.183585313174946,1.8174946004319654 L 9.183585313174946,-4.582505399568035 L 13.53023758099352,-4.582505399568035 L 17.876889848812095,-4.582505399568035 L 17.876889848812095,1.8174946004319654 L 18.376889848812095,1.8174946004319654 L 18.99121609643276,2.2462053955968444 C 19.544109719291363,2.632045111245235 19.579979285541473,2.7162780882904696 19.349911758933874,3.0885351660491875 C 19.119844232326273,3.460792243807905 18.906953724194874,3.5565148205380543 17.2210066776199,4.045760933350676 C 15.535059631044927,4.535007046163297 15.02462203023758,4.677805441865546 12.116630669546437,5.473744890373157 C 9.208639308855291,6.269684338880769 8.853991203656097,6.412453046091522 8.570149617554483,6.901431962480695 C 8.286308031452869,7.390410878869867 8.402768144901753,7.655300350604393 9.734750752043329,9.550326679825956 C 11.066733359184909,11.445353009047519 11.441575848833349,11.798962410325416 13.483175648527723,13.086420692604921 C 15.524775448222103,14.373878974884423 15.892980561555076,14.662375280570886 17.165226781857452,15.971383749469553 C 18.437473002159827,17.28039221836822 18.821166306695464,17.54927505962356 21.002159827213823,18.660212162022965 C 23.18315334773218,19.771149264422366 23.566846652267817,19.981597103010497 24.839092872570195,20.764690547904255 L 26.252699784017278,21.634794375563985 L 24.18887608034476,21.974273346854137 C 22.173616675078172,22.30576396233903 22.11898478929508,22.337927511843592 21.867199775808874,23.341118911200837 C 21.635132435031853,24.265748844951727 21.457821500863467,24.4600269634516 20.09409043412502,25.28390009619957 C 18.730359367386583,26.107773228947533 18.429664840709663,26.331074322216548 17.0871451673558,27.51691102888971 C 15.744625494001932,28.702747735562877 15.425824354338552,28.88018460104096 13.899133770721997,29.29127968367054 C 12.37244318710544,29.70237476630012 12.166824075462975,29.694450693714565 11.842942654297348,29.212038957814986 C 11.519061233131719,28.729627221915408 11.462505129709134,28.25194384449244 11.2773816200715,24.435205183585314 L 11.071688831585238,20.19438444924406 L 9.54679550872243,18.578833693304535 C 8.174391518145905,17.124838012958964 7.990350245986,16.80172786177106 7.706382787123389,15.347732181425485 C 7.422415328260776,13.893736501079912 7.347287022276076,13.590820734341252 6.955099727276387,12.318574514038877 C 6.562912432276698,11.0463282937365 6.421964227870937,10.775216080485293 5.5456176832187785,9.607452381526809 C 4.66927113856662,8.439688682568322 4.550676569247636,8.151709885611169 4.359671990028941,6.727664411955271 L 4.147444679785946,5.1453916634487165 L 6.415514996480446,3.481443131940341" fill="none" stroke="#000000" stroke-width="0.1"/>
</svg>
