<?xml version="1.0" ?>
<svg baseProfile="full" height="52.0mm" version="1.1" viewBox="(0, 0, 69, 52)" width="69.0mm" xmlns="http://www.w3.org/2000/svg" xmlns:ev="http://www.w3.org/2001/xml-events" xmlns:xlink="http://www.w3.org/1999/xlink">
	<defs/>
	<path d="M 50.77139382352389,2.1204103671706265 L 51.09179265658747,1.8174946004319654 L 51.59179265658747,1.8174946004319654 L 51.59179265658747,-4.582505399568035 L 59.573434125269976,-4.582505399568035 L 67.55507559395248,-4.582505399568035 L 67.55507559395248,1.8174946004319654 L 68.05507559395248,1.8174946004319654 L 66.18969530508464,5.351511879049676 C 64.51085304510357,8.532127429805616 64.24460826354505,9.067278617710583 63.52724748949946,10.703023758099352 C 62.80988671545385,12.338768898488121 62.7180263971311,12.540712742980562 62.60864430627191,12.722462203023758 C 62.499262215412735,12.904211663066954 62.4173495326446,13.106155507559395 61.78951747859059,14.741900647948164 C 61.161685424536586,16.37764578833693 61.009990966925805,16.731798216671265 60.27257290248281,18.28342493129151 C 59.511116194778,19.88563218206451 59.3076355024537,20.083123949408126 57.392916444237436,21.078326190890845 C 55.53864369625959,22.04211060991 54.98930885529157,22.416897456910952 51.899568034557234,24.82619466090038 C 48.8098272138229,27.235491864889813 48.325161987041035,27.604703128265395 47.05291576673866,28.51830729465621 C 45.780669546436286,29.43191146104703 45.381369097964615,29.690413680583305 43.059911282021964,31.10332949001895 C 40.738453466079314,32.51624529945459 40.51324570051853,32.715708056987324 40.80783362641412,33.097957065346286 C 41.10242155230972,33.480206073705254 40.96293067565645,33.744816414686824 39.41292485988146,35.74406047516199 C 37.86291904410646,37.74330453563715 37.6068187577924,38.16738660907127 36.851921996740835,39.984881209503236 C 36.097025235689266,41.80237580993521 35.85408907155761,42.21549487642366 34.42256035542427,44.1160718743878 C 32.99103163929092,46.01664887235194 32.664564313196,46.379130528307364 31.157887094475107,47.74088843394209 C 29.651209875754205,49.102646339576815 29.33269313186137,49.366039152138036 27.972719655546722,50.37481655955429 L 26.461638015197114,51.49568034557235 L 14.56664425712971,51.49568034557235 L 2.671650499062306,51.49568034557235 L 2.8351497543679005,50.64669698947617 C 2.982299084142936,49.88261196898961 3.0469511094869026,49.739513163585144 3.481670007807567,49.21570893543151 C 3.9163889061282307,48.69190470727787 4.179132498725309,48.5356165963089 6.109105933778355,47.652827825741774 C 8.039079368831398,46.77003905517464 8.406287583113151,46.52474116471118 9.781188076595871,45.19984892110712 C 11.156088570078593,43.87495667750305 11.492733050949996,43.63483565686022 13.147632885309893,42.798638714678866 C 14.802532719669793,41.96244177249751 15.38816986869787,41.72858325809491 19.00400437559067,40.46005357065284 C 22.61983888248347,39.19152388321077 23.10577277087267,38.99631947138251 23.863343259482654,38.50800945237024 C 24.62091374809264,38.01969943335797 24.802663208135836,37.849870382506786 25.68083785991462,36.8097189438584 L 26.65658747300216,35.653995123137975 L 21.054136417751455,36.74646504726038 C 16.01193046802582,37.72968797897053 15.345515781200765,37.81578357142446 14.389989549500914,37.60742097179966 L 13.32829373650108,37.37590697221654 L 15.751619870410368,36.01162994953192 C 17.932613390928726,34.78378062911576 18.275917926565874,34.56948844841021 19.184665226781856,33.86870814247648 C 20.093412526997838,33.16792783654274 20.38036858888578,32.881521642713054 22.054225845661293,31.004646204179664 C 23.728083102436806,29.12777076564627 24.124118662191,28.83941579255969 26.014581443203262,28.121096473313855 L 28.115095644327997,27.322963896374034 L 29.286319957752962,25.1605294214342 C 30.39080319300049,23.121319171513655 30.564225043908465,22.94626542415544 32.32966138718834,22.088550204721383 C 34.0145667915977,21.269959937125698 34.29204496063305,21.069191258915453 35.104443077541774,20.08086342261891 C 35.91684119445049,19.092535586322366 36.109098605422055,18.79656395284892 37.02701718725741,17.12114708788446 C 38.003016461624846,15.339719326395254 38.165477096568885,15.195544072467724 40.800512195237935,13.772369082940296 C 43.27873912058506,12.433885743455008 43.63090466278623,12.196606163174033 44.322167617249605,11.399573280130555 C 45.01343057171297,10.602540397087074 45.1262445776581,10.324116959276724 45.45030767670083,8.615338902027052 C 45.80691241905021,6.734969428804691 45.824069849564616,6.71019930697074 47.23305583841387,6.041591677592165 C 48.513466084912864,5.43399723285044 48.74549694509846,5.2193287087362 49.55336444026985,3.8949064364497676 C 50.36123193544125,2.570484164163335 50.483034873766655,2.393034557235421 50.77139382352389,2.1204103671706265" fill="none" stroke="#000000" stroke-width="0.1"/>
	<path d="M 53.38370471596708,9.413426172577244 C 54.000183546810256,8.732224732190124 54.24334333708756,8.682727889062905 55.81530261874007,8.918457741305062 C 57.44158225231286,9.162333433379946 57.577772223012566,9.243523978849234 57.79194198571511,10.09684428163729 C 57.99895813434015,10.921662315694139 57.93932773156352,11.184337712627304 57.195637957948804,12.723598250968935 C 56.45194818433407,14.262858789310567 56.236703319651944,14.533563937316908 55.04318931112749,15.43064973103235 C 53.849675302603025,16.327735524747794 53.58579913606911,16.4890988159932 52.40442764578834,17.044282643486397 C 51.22305615550756,17.599466470979593 51.09179265658747,17.616291978263963 51.09179265658747,17.21253771633008 C 51.09179265658747,16.808783454396195 51.297612881816804,16.565537543408517 53.149994908880785,14.780078606453287 L 55.20819716117411,12.796235343169695 L 53.95346269921327,11.483276002532982 L 52.69872823725242,10.170316661896269 L 53.38370471596708,9.413426172577244" fill="none" stroke="#000000" stroke-width="0.1"/>
	<path d="M 47.86069114470842,19.841995573337186 C 49.1329373650108,19.25039826143739 49.314686825054,19.184665226781856 49.67818574514039,19.184665226781856 C 50.04168466522678,19.184665226781856 49.94526380937812,19.30330580751677 48.71397718665376,20.37107103413101 C 47.48269056392939,21.438836260745248 47.19996918163997,21.56330894383225 45.886763363759584,21.615797865001042 L 44.42764578833693,21.67411888852192 L 45.437365010799134,21.086722404207222 C 46.34611231101512,20.558065568323986 46.58844492440605,20.433592885236983 47.86069114470842,19.841995573337186" fill="none" stroke="#000000" stroke-width="0.1"/>
	<path d="M 30.49352051835853,31.739888767765308 C 31.402267818574515,31.347684526025517 31.58401727861771,31.321551952262723 32.31101511879049,31.478563030137355 C 33.04865739017835,31.63787300565114 32.94345773030549,31.722036907461085 31.09935205183585,32.44794155775955 C 29.281857451403887,33.16337115474489 28.94095574232417,33.33161999190909 27.690334961038705,34.130429929401636 L 26.30075631516596,35.01799652661557 L 25.965717705408714,34.11230092230435 L 25.630679095651466,33.206605317993144 L 27.557240195773897,32.69113828829022 C 29.291145185884083,32.22721796155759 29.584773218142548,32.1320930095051 30.49352051835853,31.739888767765308" fill="none" stroke="#000000" stroke-width="0.1"/>
</svg>
