<?xml version="1.0" ?>
<svg baseProfile="full" height="35.0mm" version="1.1" viewBox="(0, 0, 57, 35)" width="57.0mm" xmlns="http://www.w3.org/2000/svg" xmlns:ev="http://www.w3.org/2001/xml-events" xmlns:xlink="http://www.w3.org/1999/xlink">
	<defs/>
	<path d="M 29.158870389876714,2.6433467071517205 L 28.474082073434126,1.8174946004319654 L 28.974082073434126,1.8174946004319654 L 28.974082073434126,-4.582505399568035 L 40.38876889848812,-4.582505399568035 L 51.803455723542115,-4.582505399568035 L 51.803455723542115,1.8174946004319654 L 52.303455723542115,1.8174946004319654 L 52.52291310354498,4.525113555279363 C 52.72042474554755,6.961970614642022 52.731627580269766,7.234594804706816 52.634941450767215,7.251355455927311 C 52.53825532126464,7.268116107147806 52.625836517046416,7.41133909287257 53.510753408584975,8.683585313174946 C 54.39567030012354,9.95583153347732 54.608326540020265,10.213089013146943 55.63731580755224,11.256160109871164 C 56.726743594950335,12.360496834129439 56.75602809168711,12.446302363200076 56.25856914791735,13.076473842290524 C 55.78870788671398,13.671685104743723 55.55475161987041,13.878790158937969 53.91900647948164,15.147524384232987 C 52.283261339092874,16.416258609528004 51.859179265658746,16.81889039305596 49.67818574514039,19.173842219512515 C 47.497192224622026,21.52879404596907 47.093304535637145,21.93009094194671 45.639308855291574,23.18681117928889 C 44.185313174946,24.443531416631064 43.50697089082386,25.10226338279461 38.85588601407012,29.774130840924354 L 33.688013928788195,34.96509468329074 L 29.768413011910294,34.77997869448963 L 25.848812095032397,34.59486270568851 L 27.46436285097192,33.654771998785705 C 28.918358531317494,32.80869036257319 29.14049676025918,32.6156859338173 29.685745140388768,31.724727711226908 C 30.230993520518357,30.83376948863652 30.45313174946004,30.660729289301415 31.907127429805616,29.994325717875885 L 33.52267818574514,29.253877305180854 L 32.10907127429805,28.814572526968906 C 30.83682505399568,28.41919822657816 30.473326133909286,28.19205809336096 28.474082073434126,26.543171194796912 C 26.474838012958962,24.894284296232858 26.091144708423325,24.611594771421363 24.637149028077754,23.71627594668197 C 23.028743880945918,22.725877264278317 22.987656630301704,22.720994463430035 15.347732181425485,22.61232346147806 L 7.6738660907127425,22.50316967042902 L 9.491360691144708,21.873656410786477 L 11.308855291576673,21.244143151143927 L 8.758899198840213,20.370604543011318 C 6.418772090342283,19.568947062306634 6.228455984817242,19.446216188053995 6.446074235260454,18.879112117867493 C 6.659492251501483,18.322953682557394 7.116431705267569,18.24605490999994 11.015468772921318,18.110124392292956 L 15.347732181425485,17.95909048372964 L 13.597549292169745,17.37611031149221 C 12.022384691839578,16.85142815647852 11.87377772938387,16.750395715338566 12.11147966761266,16.365785900092657 C 12.34918160584145,15.981176084846744 12.685754970360977,15.913321882604581 15.477213312807924,15.687243877671012 C 18.268671655254874,15.461165872737439 18.60941666402857,15.38420991693179 18.884663400544866,14.91768431961452 C 19.15991013706116,14.451158722297249 19.474034425956557,14.355329606711187 22.02590628949882,13.959393163753903 C 24.859109465579273,13.519806676775893 24.86167695371718,13.51860227558265 25.319965635250608,12.414159537133465 C 25.732747182884957,11.419385716132352 25.802316198525197,11.276426464650852 26.015655791653025,10.984567022318462 C 26.228995384780852,10.692707579986074 26.40415766738661,10.626320453166496 27.767278617710584,10.320695754122683 C 29.167248064064,10.006809271334339 29.281857451403887,9.91812391626449 29.281857451403887,9.148706576229033 C 29.281857451403887,8.37764739774254 29.388325729336287,8.296326827935038 30.726505954759432,8.045282704387875 L 32.17115445811498,7.7742650115027985 L 31.918176010740154,6.766318592789367 L 31.66519756336533,5.758372174075935 L 29.564780207168628,6.395713427309865 C 27.674404586591592,6.969320555220403 27.14441778919476,7.099774990746299 24.264912233200313,7.700257782568831 C 21.385406677205868,8.300740574391362 20.90181166428984,8.345510820052604 19.42896210404005,8.147960239181248 L 17.792462592651393,7.928459593768628 L 17.878547893369213,6.888311347845915 L 17.964633194087032,5.8481631019232 L 20.089228044127747,5.613454430110261 C 22.001363409164394,5.402216625478617 22.355183585313174,5.344184523640043 23.62742980561555,5.033133411724519 C 24.899676025917927,4.722082299808996 25.281167816525468,4.626604952587703 27.44234771169097,4.0783599395115955 L 29.843658706319307,3.469198813871476 L 29.158870389876714,2.6433467071517205" fill="none" stroke="#000000" stroke-width="0.1"/>
</svg>
