<?xml version="1.0" ?>
<svg baseProfile="full" height="89.0mm" version="1.1" viewBox="(0, 0, 105, 89)" width="105.0mm" xmlns="http://www.w3.org/2000/svg" xmlns:ev="http://www.w3.org/2001/xml-events" xmlns:xlink="http://www.w3.org/1999/xlink">
	<defs/>
	<path d="M 39.68196544276458,2.6749538548475984 L 41.398488120950326,1.8174946004319654 L 41.898488120950326,1.8174946004319654 L 41.898488120950326,-4.582505399568035 L 56.94816414686825,-4.582505399568035 L 71.99784017278617,-4.582505399568035 L 71.99784017278617,1.8174946004319654 L 72.49784017278617,1.8174946004319654 L 74.01241900647948,2.4341790289330425 C 75.37553995680345,2.9891950145840127 76.02176025917926,3.0848081407602894 80.47462203023758,3.390310290695808 L 85.42224622030237,3.729757123957495 L 85.42224622030237,4.918850504699702 C 85.42224622030237,5.98903454736769 85.34490039093328,6.190964887855433 84.6487879266114,6.938153909577136 C 83.89352371470392,7.7488348793343995 83.82939424772874,7.754836438123368 81.92254602596346,7.1932893693186735 C 80.16504077970217,6.6757222613643545 79.77562453627088,6.571677300703083 78.0283835916506,6.152839762705956 C 76.28114264703031,5.7340022247088305 76.01861564919014,5.734794523675973 75.40311361324888,6.160762752377378 L 74.71922246220302,6.63406078426783 L 76.53671706263499,7.727527906937227 C 78.17246220302376,8.711648317339685 78.46839401730846,8.925193658255884 79.49603520548197,9.862981316099209 C 80.52367639365549,10.800768973942533 80.69310528633723,11.116958156035205 81.19032413229932,13.024873137025914 L 81.74278951670168,15.144778671460035 L 83.88543363524069,15.600881602115777 C 85.8138133419258,16.01137423970594 86.25716427602126,16.167987343429143 88.31894297619523,17.167012639347803 C 90.3807216763692,18.166037935266463 90.73647561881964,18.36723590472515 91.87648240069967,19.178992333934698 C 93.01648918257969,19.990748763144246 93.25212212636853,20.187587870556463 94.23281183858816,21.147383408056886 C 95.21350155080779,22.10717894555731 95.40140683834098,22.314794816414686 96.11186471391999,23.223542116630668 C 96.82232258949902,24.132289416846653 97.0072332464766,24.394816414686826 97.96097128369574,25.848812095032397 C 98.91470932091488,27.302807775377968 99.04331554198409,27.504751619870408 99.24703349438776,27.868250539956804 C 99.45075144679143,28.231749460043197 99.69469970780938,28.716414686825054 101.68651610456722,32.714902807775374 C 103.67833250132506,36.7133909287257 103.90706351171755,37.2182505399568 103.97382620849223,37.76349892008639 C 104.0405889052669,38.308747300215984 104.00300123795637,38.57127429805615 103.59794953538695,40.38876889848812 C 103.19289783281754,42.20626349892009 103.11237314913676,42.509179265658744 102.79270269857919,43.41792656587473 L 102.43751330907075,44.42764578833693 L 100.07069832403057,40.89362850971922 C 97.9405648374944,37.71301295896328 97.65947425849707,37.35961123110151 97.25979253405725,37.35961123110151 C 96.86011080961744,37.35961123110151 96.794585930254,37.45048596112311 96.6045437404229,38.268358531317496 C 96.41450155059181,39.08623110151188 96.24635281102152,39.64157667386609 94.92305634472012,43.82181425485961 C 93.59975987841872,48.00205183585313 93.43434151570074,48.64827213822895 93.26887271754022,50.28401727861771 C 93.1034039193797,51.919762419006474 93.06782429427217,52.60637149028078 92.91307646646483,57.15010799136069 C 92.74393777013567,62.11639203647661 92.73243013217994,62.177180715265116 92.20725752369057,60.878570874898685 L 91.67338061181334,59.55843764612565 L 90.46627993873605,60.06911335175877 L 89.25917926565874,60.57978905739189 L 90.0669546436285,59.43716562399697 C 90.79395248380129,58.40880453394154 90.86423493063147,58.14644575061838 90.76977911193033,56.81357779076539 C 90.6753232932292,55.48070983091239 90.66484928002336,55.049892008639304 90.66503897987205,52.505399568034555 C 90.66522867972076,49.960907127429806 90.6669774684923,49.55014076592042 90.68252686758754,48.397735952940636 C 90.69807626668278,47.24533113996086 90.65454224749872,47.089312873090975 90.24718667574703,46.837553284241785 C 89.83983110399534,46.58579369539258 89.69650989423292,46.95617128800348 88.81397457812294,50.54132921035082 C 87.93143926201296,54.126487132698145 87.83034508113522,54.79515503532309 87.80303276934566,57.228008236600246 C 87.77356038240866,59.85327084569147 87.73710799782782,59.97549482709575 86.53823983288169,61.468828970941495 C 85.42723850185365,62.852714430571474 85.18594782359236,63.2488120950324 84.12533305026861,65.42980561555075 L 82.94687219102,67.85313174946005 L 84.2621805068802,69.40888019294098 L 85.57748882274038,70.9646286364219 L 84.48782740657738,71.17293061459453 C 83.50713213203068,71.3604023949499 83.34205366593066,71.33466349963908 82.83704274557735,70.91554166148639 C 82.33203182522402,70.4964198233337 82.0596397244074,70.41400996550615 80.11312173741119,70.09144308321098 C 78.16660375041498,69.7688762009158 77.6474082073434,69.78921774593142 74.92116630669547,70.29485853336726 C 72.19492440604752,70.80049932080308 71.96660467304253,70.89015566488048 72.63796897664557,71.19142197414119 C 73.34743537225236,71.50978611921394 73.35218606918369,71.55250687106538 72.73507636810517,72.06466243411127 C 72.15110871681574,72.54931253882364 71.92788299509785,72.5819246425286 70.50281915092623,72.39078347116087 C 68.96825196969283,72.1849548202109 68.921193511004,72.20201630629758 68.97708196256374,72.9439538158021 C 69.03267867381605,73.68201837711999 68.9664113454936,73.70950323974081 67.1313054082807,73.70950323974081 C 65.41820613478055,73.70950323974081 65.15718142548596,73.79012374421522 64.52105831533477,74.51570828448486 L 63.81425485961123,75.32191332922889 L 65.22786177105831,76.06615686130571 L 66.6414686825054,76.81040039338254 L 65.71746545981918,77.30176527031843 C 64.88586255940157,77.74399365956073 64.71045788974644,77.7667855907912 63.963418763267704,77.52968458262312 C 63.14404524351361,77.26962552987221 63.13230938736161,77.2816351541335 63.05045599813371,78.46394448081789 C 62.97582863599186,79.54187939736124 62.88570915527646,79.68762099962991 62.14926119097968,79.92136050350456 C 61.407541327619455,80.15677324314237 61.27866920887416,80.4317722948488 60.771794002453184,82.86072531173114 L 60.212602329812,85.54037956009702 L 59.10489777834137,85.50888499252197 C 58.1079636820178,85.48053988170443 57.92454738842137,85.39231656515433 57.270734842377045,84.62665182702094 L 56.54427645788337,83.77591322909495 L 57.4551593379528,82.88255704651291 C 58.2749539300153,82.0785364821891 58.342205175805205,81.90322658758241 58.127671795851874,81.12945810044609 C 57.91313841589853,80.35568961330978 58.01451695224687,80.14162161523292 59.14145715933531,78.98877811967749 C 60.26839736642375,77.83593462412206 60.39956580067846,77.59879874928264 60.45314150188244,76.61741937128323 L 60.51267005877574,75.52699784017278 L 56.91292250239003,77.20658427405766 C 53.673149701642885,78.71821206455405 53.13514892994056,78.93352612110225 51.53291478536675,79.35972483953962 C 49.930680640792936,79.785923557977 49.48640418290957,79.96719580820042 47.09015020653305,81.17244734177386 C 44.69389623015655,82.3776988753473 44.32728801646128,82.54171243672671 43.424068069580464,82.81258295556793 C 42.52084812269964,83.08345347440917 42.217932355960976,83.26263656386789 40.39491040219385,84.604413850155 C 38.571888448426726,85.94619113644212 38.13125906507962,86.22501858118434 35.988616568722776,87.39268829757707 C 33.845974072365934,88.56035801396979 33.54530653647615,88.67804417704757 32.98194120982493,88.56954992835476 C 32.41857588317372,88.46105567966197 32.62421418302612,88.17811229712147 35.0383242083489,85.74011610294987 C 37.452434233671674,83.30211990877825 37.73266180960349,82.97900568368073 37.84059996766703,82.5089738519746 C 37.94853812573058,82.0389420202685 37.87004174988598,81.85963547053919 37.05563620922103,80.71590835468157 C 36.24123066855607,79.57218123882394 35.97894924622462,79.38410365909714 34.43282198590656,78.83513255741346 C 32.88669472558849,78.28616145572978 32.53583335784192,78.17861764501744 30.92420830844089,77.75969445028996 C 29.310545210037013,77.3402414884187 28.88687928036485,77.05179784515079 26.63877506986669,74.84205135051967 L 24.14403633062697,72.38987846711322 L 23.50636055427098,74.26135392038167 C 22.93245235555058,75.94568182832327 22.815747299278414,76.13282937365011 22.339309991549282,76.13282937365011 C 21.862872683820154,76.13282937365011 21.806718137919773,75.9409827213823 21.777764532545483,74.21436285097192 L 21.745593859907384,72.29589632829374 L 20.77607266425233,72.90172786177105 L 19.806551468597274,73.50755939524838 L 20.54613364204883,71.84073139588973 C 21.21175759815523,70.34058619646696 21.236132742310325,70.08125657681043 20.789885083599774,69.24743519932453 C 20.33944152846135,68.4057737176476 20.36040894516718,68.27244733875995 21.018942943395487,67.79091552259051 C 21.67614418273579,67.31035824351343 21.699775911156237,67.16417248105908 21.272023758906595,66.22535877109841 C 20.847396760339905,65.29340402633024 20.800215982721383,65.04179831790628 20.800215982721383,63.709301686858836 C 20.800215982721383,62.28031123593998 20.772124218439657,62.23086596278157 19.993578775645368,62.28951200602486 C 19.2409749468891,62.3462039269587 19.15755966931363,62.49399905881941 18.748313929668623,64.49587140998561 L 18.3096862907679,66.6414686825054 L 17.9638413070853,63.81425485961123 C 17.62656436312433,61.05708305403404 17.577366808621914,60.93701102434779 15.978004641182995,58.967602591792655 L 14.338012958963283,56.94816414686825 L 14.338012958963283,60.505353028644436 C 14.338012958963283,63.706823022243 14.291700385165607,64.34297520230261 13.874887220986526,66.86687482924053 C 13.435734829659793,69.52604361730268 13.382777551916229,69.64715322173791 12.851839471572688,69.20651375195543 C 12.34790966127932,68.78828915546092 12.29331567020158,67.97038751535811 12.305899560795284,61.02749735092736 C 12.318483451388989,54.08460718649662 12.33325719131031,53.10769142386094 12.453636960008488,51.25833972457058 C 12.574016728706667,49.408988025280216 12.632097068755158,49.17587541097687 13.034440360493386,48.92721358153713 C 13.43678365223162,48.678551752097384 13.419632154881539,48.44262988260593 12.862925386992583,46.56799488662253 L 12.244362311560408,44.48506711330765 L 10.67111832544033,47.672464246832305 C 9.200757058951972,50.65142067533187 9.066357872172011,50.828344913208724 8.61593633668766,50.37792337772438 C 8.18219213431833,49.944179175355046 8.180251084146022,49.64276278020329 8.596525834964597,47.363759426206805 C 9.012800585783172,45.08475607221031 9.121705260680164,44.53056107501522 9.68557258393452,41.82180945425588 C 10.249439907188878,39.113057833496526 10.294809020402516,38.76975329785938 10.139263716070898,38.38876409788439 C 9.983718411739279,38.007774897909385 10.01856601772726,37.71945321086205 10.487739775950706,35.505547227410986 C 10.956913534174152,33.29164124395992 11.117329287807314,32.85169416135513 12.09189731228233,31.106076401362973 C 13.066465336757343,29.360458641370826 13.303594132690135,29.061946282191155 14.463185271610245,28.12095280956628 C 15.622776410530355,27.1799593369414 15.892980561555076,26.93371838573298 17.165226781857452,25.65854329748209 C 18.437473002159827,24.3833682092312 18.649514038876887,24.156233016620785 19.285637149028076,23.387191371377945 C 19.921760259179266,22.618149726135098 19.992440604751618,22.446076420855444 19.992440604751618,21.666458318581416 C 19.992440604751618,20.886840216307387 19.927864178383086,20.800215982721383 19.34667634106631,20.800215982721383 C 18.765488503749534,20.800215982721383 18.55344746703247,20.86732673741861 17.226265973895682,21.471323529693656 C 15.8990844807589,22.0753203219687 15.466788589714142,22.33595287250891 12.903307063448102,24.077649035095718 C 10.339825537182062,25.81934519768253 9.785528772902016,26.13376797039375 7.3603394206476365,27.221876762207916 C 4.935150068393257,28.309985554022084 4.641230471159186,28.391318943839465 4.4211434483069265,28.035210660381733 C 4.201056425454667,27.679102376924003 4.49282619189454,27.31134372483843 7.338841112705665,24.357624139526003 C 10.184856033516787,21.403904554213575 10.761388706783176,20.91619086293286 13.10416784536956,19.48048722671886 C 15.446946983955943,18.04478359050486 16.0704777973968,17.536246296175506 19.33947597977816,14.395114283425324 C 22.60847416215952,11.253982270675145 23.176135131402262,10.780200131271938 25.01608567220558,9.657292889393243 C 26.856036213008892,8.534385647514549 27.302807775377968,8.317158790432023 29.483801295896328,7.485024318567985 C 31.664794816414688,6.652889846703946 32.21004319654428,6.409029593357373 34.936285097192226,5.046421785102253 C 37.662526997840175,3.6838139768471336 38.137095032397404,3.4466671838216683 39.68196544276458,2.6749538548475984" fill="none" stroke="#000000" stroke-width="0.1"/>
	<path d="M 55.13066954643628,28.290031069824433 C 56.039416846652266,28.092178052986764 56.33609777896593,28.070194384449245 58.09747886957286,28.070194384449245 C 59.85885996017979,28.070194384449245 60.1819701113677,28.15923313180969 61.32858038145191,28.96058185805369 C 62.47519065153612,29.761930584297694 62.67520111175286,29.933582852116267 63.3286849836194,30.677104536239437 C 63.98216885548593,31.420626220362607 64.05621493179983,31.67748390158485 64.06914574675835,33.245681348461865 L 64.08351331893448,34.988122956102984 L 61.57336695152501,35.34292988783519 L 59.063220584115534,35.697736819567396 L 59.30468768827467,36.62110844435241 C 59.54591047152773,37.54354578455743 59.54931730635629,37.544639768844554 62.67172882154367,37.7023143962869 L 65.79730285065355,37.860148723436374 L 65.90311909735927,39.124458810962246 C 65.99835371939443,40.26233788973553 66.03642645803146,40.54439911674669 66.2838464837295,41.94507108107388 L 66.558757623394,43.50137326365963 L 63.845395370752655,43.719175929143155 C 61.228983674289495,43.929196334983615 61.09083794169209,43.90245088661926 59.97910072563153,42.97064912452716 C 58.881424547976934,42.05063261183953 58.78394194852981,42.02996790660412 57.945106052609916,42.53947576018545 C 57.15215000012224,43.02111625536747 57.03481682264328,43.18267133096142 56.771774277820285,44.15502651612497 C 56.50873173299728,45.12738170128852 56.531197137877186,45.40674000080265 56.99642832661929,46.948609511266284 C 57.47816230305671,48.5451725715194 57.465138176205805,48.68760104190253 56.80510804491183,49.040838448283765 C 56.167688602633014,49.38197498113586 56.0384572942469,49.38287619930594 55.512794961050716,49.04985062998453 C 54.98713262785453,48.716825060663126 54.799935252672185,48.72195925684515 53.64082120922728,49.10119259180484 C 52.481707165782375,49.48042592676452 52.23107710668852,49.459557253073136 51.13452061828872,48.89250585489103 C 49.97731097069823,48.294089489115294 49.80366544456406,48.304525078190245 47.67674476543293,49.100308086926695 C 45.66130298626251,49.85438149394089 45.437365010799134,49.89487676723406 45.437365010799134,49.50526081985833 C 45.437365010799134,49.11564487248259 45.31619870410367,49.07235421166307 44.22570194384449,49.07235421166307 C 43.13520518358531,49.07235421166307 43.01403887688985,49.00826272382037 43.01403887688985,48.431439333236085 C 43.01403887688985,47.85461594265179 43.14530237580993,47.74887250904712 44.326673866090715,47.37400499718936 C 45.50804535637149,46.9991374853316 45.86144708423326,46.845472894364505 47.86069114470842,45.837359087518415 C 49.85993520518358,44.82924528067232 50.19582612069394,44.691213079199684 51.21960029981192,44.4570370727921 C 52.243374478929915,44.2228610663845 52.34333692451637,44.12760418623101 52.219224755676485,43.504468271257196 C 52.0896204913915,42.853757929438025 51.90653712560791,42.844211007515845 49.17666094103436,43.34581311950532 C 46.56246567669636,43.82615939790245 45.876866082081825,44.04195290188382 42.320664994889036,45.503748159319 C 38.764463907696246,46.96554341675419 38.242590458165125,47.19154429567997 37.10193049957782,47.763756948576805 C 35.93431876525151,48.34948997358788 35.72281330580253,48.34653548375649 34.41562132913786,47.72623227593376 C 33.1386030343292,47.12024741765817 32.718049545791644,47.05291576673866 30.21008644376225,47.05291576673866 C 27.702123341732857,47.05291576673866 27.324533956401044,47.088721636534274 26.43419259044411,47.41097446469485 C 25.543851224487174,47.733227292855425 25.273452509144295,47.83704168151067 23.730205437015318,48.44911835124733 L 22.015486467983116,49.12920353984362 L 21.856430748674377,48.192031575537364 C 21.71328060129651,47.34857680766172 21.75925211202201,47.093304535637145 22.316145855929403,45.639308855291574 C 22.873039599836794,44.185313174946 23.053015254744068,43.85473943627119 24.115902405002124,42.333571468543404 C 25.17878955526018,40.81240350081562 25.33052377872103,40.40542328696146 25.633244639610588,38.263769330001765 C 25.956826116352996,35.97453314050419 26.020783790517,35.84108647109339 27.31719929041623,34.7502247471794 C 28.532484032247524,33.72763005541314 28.904827221084872,33.59702838537444 31.109475810319903,33.42006036766047 C 33.388434600503324,33.23712744060811 33.69774790137653,33.29890816036455 35.67243384705027,34.331443198375446 C 37.57888553702982,35.32829952000554 37.945665757504095,35.414283468575015 39.34023605179304,35.191282684070174 C 40.73480634608198,34.968281899565326 41.046458575920425,34.79141730109294 42.456758350177516,33.42263669934628 C 43.8670581244346,32.05385609759961 44.22570194384449,31.795218057579408 46.043196544276455,30.836256299144246 C 47.860691144708426,29.877294540709077 48.36555075593952,29.707699460265445 51.09179265658747,29.140305494707945 C 53.81803455723542,28.57291152915045 54.2219222462203,28.487884086662095 55.13066954643628,28.290031069824433" fill="none" stroke="#000000" stroke-width="0.1"/>
	<path d="M 26.8585313174946,49.03897924298583 C 28.130777537796977,48.71245499204186 28.46227073000777,48.69714721558606 30.17346323960253,48.8859014784278 C 31.93712723132205,49.080443644076 32.057491619214964,49.140702735128656 31.83589333676192,49.71817860247655 C 31.620887914610613,50.27847375127869 31.511532951341504,50.356182027442244 30.742343704070837,50.49526136411209 C 29.97315445680017,50.634340700781934 29.75047901867009,50.67813178479121 28.51558932277004,50.93317220420487 C 27.28069962686999,51.188212623618526 26.947499651761635,51.345625168867315 25.1835895716865,52.50729765669275 C 23.419679491611365,53.668970144518184 23.17607403127637,53.93463463877565 22.74753496833654,55.163942599267436 L 22.271380453958958,56.529840333147185 L 23.29996869828801,55.85588343069477 C 24.225698118184155,55.249322218487585 24.576086812029644,55.22896768830455 26.80385563674291,55.65233812886442 C 29.031624461456172,56.0757085694243 29.501884102401437,56.070967053395584 31.506452046195573,55.604922968577306 C 33.5110199899897,55.13887888375902 33.81338549311927,55.00161728373597 34.53010707749124,54.23230696834684 C 35.323065397361184,53.38116612307131 35.329966258492085,53.38068687332376 36.14692306908882,54.12002262569656 L 36.96738174471757,54.86252752236754 L 36.89395932630958,52.92139850317871 L 36.82053690790159,50.98026948398987 L 38.20076521420997,51.24727389160293 C 39.44297068988752,51.48757785845469 39.78633886690797,51.52368699056094 41.63444698441445,51.608365212665376 C 43.54140195363411,51.69573973090764 43.72250547388454,51.767112207862674 44.17295532747548,52.60878545830576 C 44.60950471872392,53.424485457277655 44.74692259124401,53.51511879049676 45.54713405267636,53.51511879049676 C 46.34734551410871,53.51511879049676 46.547874872324044,53.60599352051835 47.55242763482969,54.42386609071274 L 48.66859737094707,55.33261339092872 L 52.00060538093789,53.81469972329826 C 54.99941258992964,52.448577422430844 55.7365010799136,52.196147616815296 59.371490280777536,51.29040166714276 C 63.00647948164147,50.38465571747022 63.5366852782316,50.28401727861771 64.67354824667886,50.28401727861771 C 65.81041121512612,50.28401727861771 65.98257466670002,50.33925753871383 66.39518276241778,50.83641987957889 C 66.82905048091956,51.35919849879358 66.73134475273706,51.493299331345355 64.57325015259194,53.33701717695036 C 62.52090270803092,55.09039240371962 62.254137965470434,55.42546638576846 61.90560272698709,56.68775699743875 L 61.51834135089448,58.09030212151684 L 59.49089689058126,58.410797957640455 C 57.66619687629937,58.69924421015172 57.30642451717797,58.813141318075374 55.893173299367284,59.54976903687704 L 54.32289416846652,60.36824427999 L 54.32289416846652,61.99621416409039 C 54.32289416846652,63.60033832511766 54.3036673198901,63.63592899975637 53.01025917926566,64.42602290962455 C 51.82888768898488,65.14767788491494 51.5879761042845,65.22786177105831 50.601143332261884,65.22786177105831 C 49.614310560239275,65.22786177105831 49.459633522724445,65.3119991370011 49.05437295711361,66.06923543048612 C 48.64911239150277,66.82647172397117 48.673459888235,66.98726920257324 49.29784792443594,67.67721021650686 C 49.92223596063689,68.3671512304405 49.93555230700701,68.51154817745633 49.431011388137144,69.1211796866652 C 48.92647046926728,69.73081119587407 48.729049676025916,69.83409463464947 47.45680345572354,70.15401407441935 C 46.18455723542117,70.47393351418923 45.426525924142645,70.51041243597798 39.876490342938375,70.51880329230701 C 34.326454761734105,70.52719414863604 33.62886365925231,70.50244330261314 32.90057931812048,70.27129483207814 C 32.17229497698864,70.04014636154311 31.90932082276965,70.08399012978886 30.270837775930634,70.70973251453572 C 28.63235472909162,71.33547489928259 28.341672075284944,71.35550715447289 27.364011237863867,70.91005506643874 L 26.27772141850712,70.41510830195638 L 26.78604482242941,68.78638052839167 C 27.243535885959474,67.32052553218345 27.35961312797575,67.09240785320293 27.94681724259215,66.5052037385865 C 28.53402135720856,65.91799962397008 28.603104241787303,65.7383598079531 28.637646088379586,64.70880557841683 L 28.676025917926566,63.56485643448764 L 25.260768990228232,62.746695701951225 C 22.187037755299734,62.01035104266845 21.76768543369951,61.84107150388143 21.067245774225952,61.053900314081055 C 20.359258182999774,60.258246574302404 20.29394608471193,59.835523960459454 20.3439796007001,56.37267010724289 C 20.39347970400039,52.94673411088892 20.46701659708015,52.49089464780343 21.07934853149767,51.81427547638803 C 21.69168046591519,51.13765630497264 21.943977700443657,50.97944177549856 23.60232087678233,50.23213018164725 C 25.260664053120998,49.48481858779594 25.586285097192224,49.3655034939298 26.8585313174946,49.03897924298583" fill="none" stroke="#000000" stroke-width="0.1"/>
	<path d="M 39.177105831533474,72.09956407954888 C 40.994600431965445,71.7447258586272 41.31434485241181,71.71872496711582 42.37455003599712,71.83955516443494 C 43.434755219582435,71.96038536175408 43.55255579553636,72.04836735218515 43.55255579553636,72.71937506874572 C 43.55255579553636,73.42201800594887 43.403359902872346,73.48381597279462 40.960943124550035,73.79283889579148 C 38.628491720662346,74.08794862357209 38.288552915766736,74.13750886422824 37.56155507559395,74.288441302353 C 36.834557235421165,74.43937374047776 36.67823280822298,74.50431988796217 35.99831080361209,74.93790277719707 C 35.318388799001205,75.37148566643194 35.21741687675498,75.36911426359043 34.98859158114989,74.91418874878205 C 34.7597662855448,74.45926323397366 34.59298056155508,74.37236084401866 33.3207343412527,74.04516484923211 C 32.048488120950324,73.71796885444556 31.668884769133435,73.64848258326678 29.524700823083815,73.35030213744439 C 27.380516877034196,73.05212169162198 27.174189068156945,72.96735121602494 27.461422734311288,72.50259738147398 C 27.748656400465634,72.037843546923 28.24942605897799,72.01158545884734 32.46911931943482,72.24001650071737 C 36.688812579891646,72.46844754258741 37.35961123110151,72.45440230047056 39.177105831533474,72.09956407954888" fill="none" stroke="#000000" stroke-width="0.1"/>
</svg>
