<?xml version="1.0" ?>
<svg baseProfile="full" height="39.0mm" version="1.1" viewBox="(0, 0, 123, 39)" width="123.0mm" xmlns="http://www.w3.org/2000/svg" xmlns:ev="http://www.w3.org/2001/xml-events" xmlns:xlink="http://www.w3.org/1999/xlink">
	<defs/>
	<path d="M 72.61399512381485,5.148376332730314 L 74.1133909287257,1.8174946004319654 L 74.6133909287257,1.8174946004319654 L 74.6133909287257,-4.582505399568035 L 89.86501079913607,-4.582505399568035 L 105.11663066954644,-4.582505399568035 L 105.11663066954644,1.8174946004319654 L 105.61663066954644,1.8174946004319654 L 102.67596103619402,3.7797213469239943 C 100.02935836617685,5.54572541876682 99.17109702708397,6.015405666434347 94.0933476452653,8.47652382359926 C 89.01559826344662,10.937641980764173 88.14848812095032,11.322678186605179 85.42224622030237,12.32688588200932 L 82.39308855291577,13.44267221023614 L 83.11867954167123,14.320789331410138 C 83.77171143155115,15.111094740466736 83.81933679864468,15.277465685015104 83.59493321260655,15.984498776893815 C 83.35750309056841,16.732574849355633 83.40020703253558,16.781013328753335 84.48915604603944,16.99880313145411 C 85.51836018216721,17.204643958679664 85.97559442630478,17.163882935336854 89.06149848741515,16.591192898025994 C 92.14740254852552,16.01850286071514 93.10666742856442,15.895387777923805 98.65414728780414,15.360042070112645 C 104.20162714704384,14.824696362301482 105.12352333789059,14.642881556286062 107.87310919627166,13.541894009958447 C 110.62269505465271,12.440906463630835 111.17758270168224,12.318574514038877 113.42198566656687,12.318574514038877 C 115.6663886314515,12.318574514038877 116.25179098960658,12.357515920006405 119.27600924811762,12.70798857371416 C 122.30022750662864,13.058461227421914 122.60314327336731,13.151021434889621 122.30516691550422,13.63359064839124 C 122.00719055764112,14.116159861892859 121.77213822894169,14.292941636412612 119.95464362850971,15.401408393588776 C 118.13714902807774,16.509875150764938 117.75734904873835,16.702191592363576 116.15664383511567,17.32457280957516 L 114.37808248664604,18.016107495365805 L 115.95469999062324,19.07506253302096 C 117.37365574420271,20.028122066910598 117.59190064794817,20.187312393547657 118.13714902807774,20.66696579939156 C 118.73882507536212,21.196258459052558 118.7265248521378,21.205679965691836 116.34389000805295,22.040534510706202 C 114.18470850990104,22.797092945045488 113.70004328311919,22.8556617339475 111.49723774023438,22.62622239972631 C 109.29443219734956,22.396783065505115 108.68617710583152,22.29041371111256 105.41468682505399,21.562528855800775 C 102.14319654427646,20.834644000488986 101.11328293736501,20.77780769942631 95.11555075593952,20.99416584517404 C 89.11781857451403,21.21052399092177 88.23109449536123,21.278009527231976 86.2483099644115,21.669021208276106 C 84.26552543346178,22.060032889320237 83.93715323346925,22.21916024583317 82.96458796448627,23.26029477340546 C 81.9920226955033,24.30142930097775 81.50825135100135,24.604093917300194 78.12687451946688,26.286940936629936 C 74.65352187044908,28.015562573227633 74.25345326938726,28.141167041979227 72.82931176104634,27.95014958180628 L 71.28883437099744,27.743528205505132 L 71.38242466850494,26.612698865581933 C 71.4666559362617,25.594952459651054 71.42613430410492,25.51269747009893 70.97720834693712,25.790148970060716 C 70.5282823897693,26.067600470022505 70.47840172786177,26.22025716833117 70.47840172786177,27.316715953147376 L 70.47840172786177,28.535003491832054 L 67.85230957088702,28.90690402493032 C 65.48882662960975,29.24161450471876 65.04113041204752,29.320283425905842 63.375347395264875,29.69359323680113 C 61.70956437848222,30.066903047696425 61.32654746877528,30.082125584996284 59.545178298195495,29.84581860979972 C 57.64390458151551,29.593605734204065 57.55370383846242,29.615516386896285 57.25702168332088,30.401634484447435 C 56.979049900513516,31.138175746826942 56.58466522678186,31.40899017700251 53.31317494600432,33.10977878620313 L 49.67818574514039,34.99954390753715 L 49.39379055523736,36.48249333605799 L 49.109395365334336,37.96544276457883 L 32.45963220320975,38.07534488771321 C 17.474845357297625,38.174256798534145 15.785421978947072,38.154062414084905 15.565398419704204,37.87340104322077 C 15.345374860461336,37.59273967235663 15.262865863234184,37.470680345572354 14.740308447432689,36.652807775377966 L 14.159689096542134,35.74406047516199 L 15.965373705938456,35.74406047516199 L 17.771058315334773,35.74406047516199 L 17.165226781857452,35.04700379382998 C 16.61997840172786,34.41965278063118 16.337257019438443,34.35594266080658 14.338012958963283,34.40990259558405 C 12.338768898488121,34.46386253036152 11.875034858752581,34.59955359207552 9.700672561607885,35.76681321272416 C 7.52631026446319,36.934072833372795 7.026970816808031,37.08445753085791 4.707278085056301,37.27066018757533 L 2.1298417164432673,37.477552028372465 L 2.579499691914938,36.63735841572987 C 2.9841918698394423,35.88118416435154 3.029157667386609,35.67992453992122 3.029157667386609,34.62476217142668 C 3.029157667386609,33.50843704739672 3.2180187471152357,33.25827756902721 6.97764318765101,29.394721765440348 L 10.92612870791541,25.337083991114618 L 15.07123689276839,24.886144587349964 C 18.801834259136076,24.480299123961778 19.894244678342837,24.435205183585314 25.99534108483601,24.435205183585314 C 32.09643749132918,24.435205183585314 33.51855760245891,24.394084057233815 40.21654219613331,24.023993920070335 C 46.91452678980771,23.65390378290686 47.83442345788009,23.603417821783747 49.41550887685709,23.519134308839234 L 51.172270453498186,23.42548596112311 L 51.23300347728905,24.55488431048632 C 51.28766319870083,25.57134282491321 51.35431965442764,25.68744191005802 51.899568034557234,25.71587516193443 C 52.44481641468683,25.744308413810845 52.58382417512216,25.63369870015713 53.289645638910585,24.609778025397272 C 54.047140659775444,23.510895584605326 54.13684606083014,23.47208838677521 55.91949038459736,23.47208838677521 C 57.580529191927035,23.47208838677521 57.90259513152276,23.540685449648738 59.1401497805546,24.1580590155105 C 60.37770442958646,24.775432581372257 60.528316933334665,24.95485192013285 60.64627481803671,25.952252403116415 L 60.777339134372326,27.06047516198704 L 61.532224602071786,25.590488429443784 C 62.21162152300131,24.267500370154856 62.37868127760894,24.071494273720674 63.20282214814808,23.630427465101963 C 64.02696301868721,23.189360656483256 64.52740233161335,23.1059774743165 68.20721527740932,22.79659564343439 L 72.29589632829374,22.45283805356538 L 71.20064419194357,21.734068384775465 C 70.15397498844953,21.04718172940219 69.95690389763351,21.046128599249133 66.75787961310986,21.710326651162884 C 63.7451184148747,22.33585179282248 63.15120590352772,22.426113213595073 60.81875449964002,22.612940858888802 C 58.48630309575233,22.79976850418253 58.2271418286537,22.765401580421724 58.2271418286537,22.269271621280733 C 58.2271418286537,21.77314166213974 58.47344442173336,21.67463076423917 60.690167759450304,21.284162642275035 C 62.906891097167254,20.89369452031091 63.195220512411474,20.77178133789659 63.5734619118925,20.065030818131863 C 63.95170331137354,19.35828029836713 64.18342447724491,19.25130603923432 65.89067357060617,18.99528822680374 C 67.59792266396745,18.73927041437316 67.73030959141582,18.671957407104404 67.21454284508982,18.322158154116195 C 66.67354526623805,17.95524704497855 66.7205922644439,17.892604625233336 68.05507559395248,17.20300056124532 C 69.32732181425486,16.545557980649747 69.6818420688731,16.345978089425284 71.60027814013478,15.207201649000693 C 73.51871421139646,14.068425208576105 73.7541575069479,13.88382401802654 73.95471109564929,13.361189743505054 C 74.15526468435067,12.838555468983568 73.92402250579097,12.678081334847722 71.64228931005229,11.756448402146576 L 69.10703020367599,10.732411810256416 L 70.11081476129,9.60583493764254 C 71.0142208631426,8.591915752290051 71.26453889939508,8.146169891798827 72.61399512381485,5.148376332730314" fill="none" stroke="#000000" stroke-width="0.1"/>
</svg>
