<?xml version="1.0" ?>
<svg baseProfile="full" height="25.0mm" version="1.1" viewBox="(0, 0, 49, 25)" width="49.0mm" xmlns="http://www.w3.org/2000/svg" xmlns:ev="http://www.w3.org/2001/xml-events" xmlns:xlink="http://www.w3.org/1999/xlink">
	<defs/>
	<path d="M 24.057805192292744,3.5340172786177106 L 24.435205183585314,1.8174946004319654 L 24.935205183585314,1.8174946004319654 L 24.935205183585314,-4.582505399568035 L 26.8585313174946,-4.582505399568035 L 28.781857451403887,-4.582505399568035 L 28.781857451403887,1.8174946004319654 L 29.281857451403887,1.8174946004319654 L 29.050538848208827,3.5340172786177106 C 28.84235210533327,5.0788876889848815 28.802730715405286,5.351511879049676 28.654324948928995,6.260259179265659 C 28.5059191824527,7.1690064794816415 28.46705744922068,7.532505399568034 28.265707616608786,9.895248380129589 C 28.06435778399689,12.257991360691145 28.06175116255681,12.614987617843179 28.23964140220797,13.46521095164992 C 28.434309092853432,14.39562182326158 28.489349967509124,14.421278528523782 31.88042844463269,15.162324245257036 C 34.979246543163775,15.839502875696699 35.5750820027513,16.01633932584625 37.83878304050802,16.930688746752562 C 40.10248407826474,17.845038167658874 40.63846592221742,18.179586154091048 43.19860148003486,20.27616861107432 C 45.7587370378523,22.37275106805759 46.14416846652267,22.697179699848874 47.05291576673866,23.52045492898719 L 48.062634989200866,24.435205183585314 L 29.344396825654822,24.435205183585314 L 10.626158662108786,24.435205183585314 L 10.421503338413011,22.909385810245542 L 10.216848014717238,21.38356643690577 L 12.176871353968423,19.295879825080792 C 13.940892359294493,17.41696187443831 14.323371134957878,17.10904272645843 16.001659110602272,16.21668834528198 C 17.679947086246667,15.32433396410553 18.089600788660874,15.17885205610459 20.098196134744345,14.76186926527257 L 22.32996874150376,14.298555053236987 L 22.958340929770337,11.188154416467306 C 23.523875899210257,8.388793843374591 23.59139772218508,7.936393088552915 23.633559159518544,6.66414686825054 C 23.675720596852006,5.391900647948164 23.718145200129428,5.0788876889848815 24.057805192292744,3.5340172786177106" fill="none" stroke="#000000" stroke-width="0.1"/>
</svg>
