<?xml version="1.0" ?>
<svg baseProfile="full" height="47.0mm" version="1.1" viewBox="(0, 0, 168, 47)" width="168.0mm" xmlns="http://www.w3.org/2000/svg" xmlns:ev="http://www.w3.org/2001/xml-events" xmlns:xlink="http://www.w3.org/1999/xlink">
	<defs/>
	<path d="M 73.01607468745878,2.1204103671706265 L 72.90172786177105,1.8174946004319654 L 73.40172786177105,1.8174946004319654 L 73.40172786177105,-4.582505399568035 L 93.09611231101512,-4.582505399568035 L 112.79049676025917,-4.582505399568035 L 112.79049676025917,1.8174946004319654 L 113.29049676025917,1.8174946004319654 L 112.5235296858088,3.33207343412527 C 111.83325931880344,4.695194384449244 111.73609298708442,4.92742980561555 111.5518663686185,5.654427645788337 C 111.36763975015258,6.381425485961123 111.30751724902807,6.563956429007861 110.95064135737333,7.479737076255722 C 110.59376546571859,8.39551772350358 110.52846890936326,8.900377334734683 110.29767579381995,12.528333188566737 C 110.06688267827661,16.15628904239879 110.02218722278238,16.57958963282937 109.8507212388776,16.76133909287257 C 109.67925525497283,16.943088552915768 109.63963892746786,17.443129561530103 109.45455796382791,21.76174917901593 C 109.26947700018798,26.080368796501755 109.29099333631852,26.71649190665294 109.66972132513335,28.122980280527806 L 110.09053020159428,29.685745140388768 L 115.1004002557096,29.685745140388768 C 120.00757007373174,29.685745140388768 120.19974998052572,29.656211198639312 124.47522154800102,28.2450355959986 C 128.40367766235948,26.948397006047454 129.04211663066954,26.805229271045942 130.8596112311015,26.813358245983462 C 132.67710583153348,26.821487220920982 132.98002159827215,26.888240172783235 133.8887688984881,27.48088776460597 C 134.7975161987041,28.0735353564287 135.0870492154963,28.1985836454519 136.7840990664101,28.731370654837992 C 138.48114891732394,29.26415766422408 138.73534768581555,29.4235319732481 139.32608675132624,30.32511374507819 C 139.94507907581297,31.26981544036482 140.20574220891442,31.37298454522745 143.90267882962456,32.13650495495718 C 147.43087263458233,32.86517527201818 148.56700867046408,32.97144272155008 155.26403918844198,33.199179450276226 L 162.70518420841748,33.45222025997194 L 163.19772854435823,34.69911228981318 C 163.64101844670492,35.821315116670306 163.79992170353262,36.208531317494604 164.78676111263508,38.57127429805615 C 165.77360052173754,40.93401727861771 165.96470782804656,41.37706300893248 166.69783417572532,43.00173160120388 C 167.43096052340408,44.62640019347528 167.5124190064795,44.899024383540066 167.5124190064795,45.72797350185182 L 167.5124190064795,46.649028077753776 L 162.91819654427644,46.649028077753776 C 158.78339632829372,46.649028077753776 157.65755939524837,46.5297478596178 151.6598272138229,45.456225896394 C 145.6620950323974,44.382703933170205 144.71477905037986,44.19984052563439 142.18666739364744,43.6275918210359 C 139.658555736915,43.0553431164374 138.79019720559748,42.79430368261659 133.5030820804725,41.01719748282777 C 128.21596695534745,39.24009128303895 126.86112311015118,38.79369434453663 119.95464362850971,36.55322809780465 L 112.28077753779698,34.06382115699133 L 83.1923602297373,34.142016992267955 C 57.012784652483596,34.2123932440169 53.014296531533276,34.17216809771518 43.20747902023406,33.739765529250725 C 32.949829479401146,33.28748485789591 32.14526733061653,33.20099511748465 29.483801295896328,32.264481953384205 L 26.65658747300216,31.26964567581154 L 28.42170714442864,30.948945331654016 C 30.157736060595933,30.63353041679312 30.182843089029937,30.615486042598345 29.945108973809656,29.854079297203963 C 29.727562915968736,29.1573301759407 29.26832956653667,28.633040029530708 25.352775479489004,24.611177833104048 L 21.002159827213823,20.14244205929665 L 16.59965704777841,18.14910177884629 C 12.63740454628654,16.355095526440973 12.233516857301659,16.119559286784995 12.560780157929598,15.79373938228653 C 12.888043458557538,15.467919477788062 13.247516198704103,15.54241277025375 16.155507559395247,16.53867230694341 L 19.386609071274297,17.645627347709706 L 16.66036717062635,15.7560549617355 C 14.206749460043197,14.055439814358719 13.934125269978402,13.801233461722223 13.934125269978402,13.21399143537054 C 13.934125269978402,12.615491219980374 14.085409412288417,12.63499980789753 15.76242442465702,13.449756626971533 C 17.407893663867775,14.249187325764108 17.68051785393257,14.338012958963283 18.48866632530497,14.338012958963283 L 19.386609071274297,14.338012958963283 L 18.632133140612893,13.482565106055658 C 17.95310480301763,12.712662038438795 17.93123216267548,12.594006111418937 18.4134067371914,12.296005835857079 C 18.895581311707318,11.998005560295223 19.1729727492659,12.088927560259226 21.18732111277721,13.20522583549711 C 23.20166947628852,14.321524110734993 23.48606911447084,14.468888498915382 24.031317494600433,14.678869717300984 C 24.576565874730022,14.888850935686586 24.535958818196566,14.792598990991747 23.62524692926588,13.716350270352597 C 22.7145350403352,12.640101549713446 22.411619273596536,12.369060475161987 20.59608926187927,11.005939524838013 L 18.578833693304535,9.491360691144708 L 19.76157390936922,9.491360691144708 C 20.82604010382743,9.491360691144708 21.240024985036932,9.681731891290323 23.90142272146425,11.39507269260086 C 26.562820457891565,13.108413493911398 26.8585313174946,13.249774185056106 26.8585313174946,12.808679604047944 C 26.8585313174946,12.367585023039783 26.96831458581176,12.318574514038877 27.95636400066622,12.318574514038877 C 28.94441341552067,12.318574514038877 29.13626006778849,12.412949632393065 29.874830523344407,13.262325697580756 C 30.613400978900312,14.111701762768448 30.892260502462317,14.280634198431711 32.66342575896443,14.951650054213392 L 34.63138715507789,15.697223227304152 L 34.08085070604809,14.815674248641274 L 33.5303142570183,13.934125269978402 L 34.40430531673696,13.934125269978402 C 35.190897270483745,13.934125269978402 35.563458784430395,14.215913323237768 38.129920456203386,16.752005802572057 C 40.696382127976385,19.288098281906343 41.07461649105279,19.593245908907537 41.912264086967355,19.803482072584004 C 42.77671956372521,20.02044658604894 42.950640931526365,19.920721068237633 44.35509633300407,18.402776030870363 C 45.82147127943241,16.817907924336946 45.93706206306303,16.75697300478828 48.176585075567374,16.388237312728577 C 50.25502351835587,16.046024067619708 51.31393088552916,16.046267914276857 58.765658747300215,16.390675779300057 C 66.21738660907128,16.735083644323257 67.2802503775714,16.792603590640027 69.39429643230152,16.96587524246774 C 71.50834248703165,17.139146894295447 72.05359086716123,17.315128252300536 74.84678023359741,18.725688822518627 C 77.6399696000336,20.136249392736712 78.11842528680165,20.396514320474257 79.63133710127792,21.328338099894076 C 81.14424891575419,22.26016187931389 81.44716468249285,22.486101516542917 82.66049476866452,23.587734472184316 L 84.0086393088553,24.81177108956365 L 83.05141707252682,26.233803965909956 C 82.18991705983119,27.513633554621634 82.11845664441641,27.74723506493827 82.33681291837905,28.569819069076296 L 82.57943100055978,29.483801295896328 L 85.71736128861681,29.397995434580146 L 88.85529157667386,29.31218957326397 L 88.18404805836,27.580500834148182 C 87.57992889187751,26.021980968943975 87.4329668125987,25.687257019438444 86.71442726557193,24.233261339092873 C 85.99588771854513,22.7792656587473 85.7253518776713,22.254211663066954 84.00906885683358,18.982721382289416 C 82.29278583599586,15.711231101511878 82.06992592712021,15.283735986426265 81.78046976807713,14.707770231433285 C 81.49101360903403,14.131804476440307 81.3063837493907,13.828888709701646 79.9341711716439,11.678612564046677 C 78.56195859389707,9.528336418391708 78.14553707887515,8.946112311015119 75.76995602142475,5.856371490280777 C 73.39437496397434,2.766630669546436 73.11898683057774,2.393034557235421 73.01607468745878,2.1204103671706265" fill="none" stroke="#000000" stroke-width="0.1"/>
</svg>
