<?xml version="1.0" ?>
<svg baseProfile="full" height="12.0mm" version="1.1" viewBox="(0, 0, 22, 12)" width="22.0mm" xmlns="http://www.w3.org/2000/svg" xmlns:ev="http://www.w3.org/2001/xml-events" xmlns:xlink="http://www.w3.org/1999/xlink">
	<defs/>
	<path d="M 16.20326590671343,2.6134209822508763 L 14.741900647948164,1.8174946004319654 L 15.241900647948164,1.8174946004319654 L 15.241900647948164,-4.582505399568035 L 17.973002159827214,-4.582505399568035 L 20.704103671706264,-4.582505399568035 L 20.704103671706264,1.8174946004319654 L 21.204103671706264,1.8174946004319654 L 21.445575365738012,2.7876859733548613 C 21.662899890366585,3.6608582089854678 21.60329904670978,3.8416253593377374 20.849566929169956,4.5953574768775605 C 20.095834811630134,5.349089594417383 19.773969521784647,5.595374992762243 17.63091403071509,7.058211460326154 C 15.487858539645533,8.521047927890066 15.150855221315195,8.683585313174946 14.260880847411721,8.683585313174946 C 13.370906473508251,8.683585313174946 13.1842264753263,8.784557235421167 12.394080865592214,9.693304535637148 C 11.603935255858127,10.602051835853132 11.417285892564085,10.703023758099352 10.527587232651788,10.703023758099352 C 9.637888572739492,10.703023758099352 9.513186345474564,10.744844792344226 9.280564960002515,11.121234100548092 C 9.047943574530466,11.49762340875196 8.881571001118028,11.488629671496737 7.616839225878129,11.03129672799586 C 6.218560112745602,10.5256724405667 6.2139893020251895,10.519808640614771 6.696405824410233,9.850491469274976 C 7.165212392597286,9.200057100706585 7.149337004639298,9.168403555030125 6.215884953895062,8.892392721477616 C 5.347074456512616,8.635495637807914 5.157864131922822,8.562605639598868 4.323781707997117,8.163492739387147 C 3.4896992840714125,7.764379839175427 3.3348167484185116,7.588943049396368 2.7749563514681075,6.409124841596567 C 2.1705379530913507,5.135407615983869 2.1754583047095077,5.0841211099689225 2.9483848351092607,4.6014205026214805 C 3.6643308673367025,4.154304805343706 3.8999909407865796,4.177116441450116 5.304985569608033,4.829536863685581 C 6.709980198429485,5.4819572859210455 6.977471272235078,5.620030557386997 7.979896307663958,6.210269578345095 C 9.01815544063868,6.821608114882752 9.175674530933414,6.819424252617175 10.302250519327025,6.178072200105634 C 11.389944274394905,5.558855538732021 11.510799136069114,5.384644299741852 11.510799136069114,4.435959810203945 L 11.510799136069114,3.381865932939606 L 12.621490280777538,3.5880855343179765 C 13.621112311015118,3.773683175558509 13.903270879493677,3.8415952645121334 15.443075965563125,4.267206423854218 C 17.00146176427288,4.697953401177285 17.176730591862285,4.680795878064341 17.409300835559492,4.074727538040938 C 17.639098132486783,3.4758853814669024 17.518494639602174,3.3297547258878963 16.20326590671343,2.6134209822508763" fill="none" stroke="#000000" stroke-width="0.1"/>
</svg>
