<?xml version="1.0" ?>
<svg baseProfile="full" height="77px" version="1.1" viewBox="-29.927307449167735 -0.9672557100794155 498.1092196696506 63.53334154480956" width="600px" xmlns="http://www.w3.org/2000/svg" xmlns:ev="http://www.w3.org/2001/xml-events" xmlns:xlink="http://www.w3.org/1999/xlink">
	<defs/>
	<path d="M 136.5,7.014929567204496 C 143.88714098076335,4.537844331253863 144.36393121767682,4.5 168.18490033882549,4.5 C 189.9513106437684,4.5 192.6431611393147,4.603931462281576 195.10340529428842,5.53931462281576 C 197.56364944926213,6.474697783349944 197.9574546373913,6.743347224010995 199.0414571755802,8.225809029426273 C 200.12545971376912,9.70827083484155 200.6518438379201,9.879339372559972 204.30529841709017,9.936494406610512 C 207.95875299626027,9.993649440661052 208.49145777424852,10.125 209.6323461969728,11.25 C 210.7732346196971,12.375 211.4240983005623,12.5 216.14098300562495,12.5 C 220.8578677106876,12.5 221.4439962514664,12.600367037000273 222.002268413413,13.503670370002729 C 222.56054057535957,14.406973703005184 222.87031099881412,14.44516191209912 225.09997264795862,13.885552460942097 C 227.4852500438112,13.286885943597426 227.74468766416095,13.440892100808782 232.0767451553574,18.027071806339308 C 236.1261787628718,22.314048668353824 236.89731003885473,22.98349573142443 239.7880579151867,24.72154243704538 C 242.67880579151867,26.45958914266633 243.175,26.706733307522423 244.75,27.192984085606316 C 246.325,27.67923486369021 246.5,27.85716574631134 246.5,28.97229291181761 C 246.5,30.087420077323888 247.26503511547605,30.269182569355337 254.15035115476053,30.78991783213211 C 261.035667194045,31.310653094908886 261.8631592182885,31.46956996976877 262.42527139719573,32.379086580730956 C 262.98738357610296,33.288603191693134 263.5223484606269,33.4201775632656 267.7749202424352,33.69483029645558 C 272.02749202424354,33.96948302964556 272.5,34.066939262634435 272.5,34.66939262634436 C 272.5,35.27184599005429 272.83713458617467,35.24569790631457 275.871345861747,34.40791178894718 C 278.9055571373193,33.570125671579795 279.83055713731926,33.482428403407894 285.121345861747,33.53093910722818 C 290.4121345861747,33.57944981104847 291.55,33.42503120107754 296.5,31.98675300751887 C 301.45,30.54847481396021 302.6,30.361061606288477 308.0,30.112620930801555 C 313.4,29.86418025531463 314.538256133511,29.567215515305225 319.38256133511004,27.14297353070749 C 324.22686653670905,24.718731546109755 324.9566653142808,24.510164599209677 326.68054911082754,25.05730406170671 C 328.40443290737426,25.60444352420374 328.734485536282,25.55028372034254 329.98107539990497,24.5157060230947 C 331.2276652635279,23.48112832584686 331.5795577235374,23.579557723537388 333.5,25.5 C 335.4204422764626,27.42044227646261 335.512883444785,27.7795501114519 334.424411683224,29.091078349892914 C 333.3359399216629,30.402606588333928 333.28776490467146,30.62091535075267 333.9426615133099,31.274165974080354 C 334.5975581219483,31.927416597408037 334.8368081912071,31.795475336737642 336.3351622058985,29.95475336737641 C 337.83351622058984,28.114031398015175 338.4809785843431,27.67721658370744 342.8097858434314,25.586605224299042 L 347.6195716868628,23.26370371384527 L 349.9487944484598,25.451894882064785 C 352.0450949338972,27.42126693346235 352.33661634955405,27.933081747770085 352.8640086050284,30.570043025142148 C 353.3914008605028,33.207004302514214 353.6525,33.5 355.475,33.5 C 357.2975,33.5 357.5,33.30833333333334 357.5,31.583333333333336 C 357.5,29.858333333333334 357.375,29.618518518518602 356.25,29.185185185186008 C 355.125,28.75185185185341 355.10923816440567,28.58928035411427 356.0923816440569,27.559470207794597 C 357.07552512370813,26.529660061474925 357.3078364359097,26.563530782918498 358.41549476607275,27.89817742223032 C 359.52315309623583,29.23282406154214 359.7821556139439,29.32895713917332 361.00551994315384,28.8595081985421 C 362.22888427236376,28.390059257910877 362.5241409747853,28.64600335128204 363.9580869673696,31.418949132253704 C 365.39203295995384,34.19189491322537 365.62379227784004,34.5 366.2756801462316,34.5 C 366.92756801462315,34.5 367.15,34.398563116053346 368.5,33.48563116053347 C 369.87956700577894,32.552704638787944 369.85949484007546,32.388137760386094 368.25,31.435941046961375 C 366.675,30.504151900266358 366.5,30.161490483650507 366.5,28.009326880802845 C 366.5,25.857163277955188 366.60530719226745,25.552950564668784 367.5530719226746,24.96719974793881 C 368.5008366530817,24.381448931208837 368.7758366530817,24.50406177751927 370.3030719226746,26.19332821104315 C 371.83030719226747,27.88259464456703 372.2761758320877,28.209303625257675 374.7617583208768,29.46041801794964 C 377.2845766795657,30.730275032528457 377.46925662433557,31.021503297491247 376.89635886863334,32.82654428946404 C 376.29779205277543,34.71246132841932 376.3486223691124,34.77206665572606 378.0113487484162,34.13401867714143 C 379.57928163602907,33.53234637438007 379.86582158125344,33.55374907017648 380.8767482006597,34.34804563510552 C 381.88767482006597,35.142342200034555 382.2,35.28500046469239 384.0,35.77462828168389 C 385.8,36.26425609867539 386.387487121265,36.484285684467274 389.87487121264985,37.97492413960275 L 393.74974242529964,39.63118908975328 L 393.1058191844351,37.06559454487664 C 392.52628826765704,34.756559454487665 392.55665828924936,34.5 393.40951940035825,34.5 C 394.2623805114672,34.5 394.50714285714565,34.65 395.857142857143,36.0 C 397.2071428571404,37.35 397.6767857142831,37.5 400.5535714285701,37.5 L 403.75,37.5 L 403.15,34.5 C 402.61,31.8 402.66306091223544,31.5 403.68060912235455,31.5 C 404.6981573324736,31.5 405.12065733247357,31.735722026907947 407.9056091223545,33.85722026907946 C 410.69056091223547,35.97871851125099 411.225,36.285457278306694 413.25,36.92460793963653 C 415.275,37.56375860096637 415.5,37.78182150031761 415.5,39.105236933148916 C 415.5,40.42865236598022 415.725,40.57191359892451 417.75,40.53784926259185 C 419.775,40.503784926259186 420.325,40.5 423.25,40.5 C 426.175,40.5 426.5,40.587775050290915 426.5,41.37775050290916 C 426.5,42.1677259555274 425.725,42.36442755677513 418.75,43.344766515386404 C 411.775,44.32510547399768 410.60878200708294,44.43854569081093 407.0878200708296,44.47916868351895 C 403.56685813457625,44.51979167622697 403.04756384216074,44.63059922981169 401.8948771466745,45.587244219366205 C 400.7421904511883,46.54388920892072 399.78340844410536,46.59623632248884 392.3070570758449,46.11071535504747 C 384.8307057075845,45.62519438760609 383.5,45.46506593286901 379.0,44.50943080767662 C 374.5,43.553795682484235 373.6072842281017,43.57208598611705 370.0728422810171,44.69233384400478 C 366.5384003339324,45.8125817018925 366.10698835425825,45.82096506277465 365.75872248427544,44.77616745282627 C 365.4104566142926,43.73136984287789 363.95317238619094,43.66359602303582 351.1858802032584,44.09842925440558 C 338.41858802032584,44.53326248577534 336.35,44.722598217578245 330.5,45.99178657243459 C 324.65,47.26097492729093 322.3,47.611309392845264 307.0,49.49513122797791 C 291.7,51.378953063110544 289.5,51.6761937475477 285.0,52.467538072349484 C 280.5,53.258882397151275 278.907131818604,53.26519439138704 269.0713181860401,52.53065801470719 C 259.2355045534763,51.796121638027344 257.9993323388748,51.85781051826833 256.7095960400257,53.1475468171171 C 255.41985974117657,54.43728311596587 254.85681493262905,54.55885967131671 251.07914795455042,54.36331237062549 C 247.30148097647182,54.167765069934276 246.76392615847294,54.21885067479364 245.7035997745616,54.87416841921912 C 244.64327339065025,55.5294861636446 242.81090260614155,55.69557245066264 227.37989192947458,56.53503128939952 C 211.9488812528076,57.3744901281364 209.92260828540793,57.32626501286992 207.11716225547787,56.05278013673468 C 204.3117162255478,54.77929526059944 201.8,54.680944222653316 182.0,55.06926975727344 C 162.2,55.45759529189356 159.0,55.507024391598925 150.0,55.56356075432711 C 141.0,55.620097117055295 139.41733253937002,55.47353524612184 134.17332539370017,54.09794204499258 C 128.9293182480303,52.72234884386331 127.57931824803032,52.50336321935387 120.67332539370017,51.90808579989823 C 113.76733253937002,51.31280838044259 112.72579131513321,51.05308716771137 110.25791315133205,49.31087367258602 C 107.7900349875309,47.56866017746067 107.08924213863982,47.4390511462277 103.24998466242121,48.01478336025633 C 99.41072718620259,48.59051557428496 98.75171404927096,48.4529012408649 96.65985329310492,46.63864002605571 C 94.56799253693887,44.824378811246525 94.06878538582995,44.570787198253306 91.66778178201577,44.10272389612353 C 89.26677817820158,43.63466059399375 88.05,43.48110505839644 79.5,42.56716854015039 C 70.95,41.653232021904344 69.0,41.49285395810759 60.0,40.963387902182774 C 51.0,40.43392184625796 49.3,40.17349551478498 43.0,38.35912458745299 C 36.7,36.544753660120996 35.65,36.25570268777464 32.5,35.46861486398943 C 29.35,34.681527040204216 28.117901542116858,34.5298009868999 20.179015421168575,33.95135433094627 C 12.240129300220293,33.37290767499265 11.407206945664676,33.259459721003445 11.849791875612409,32.816874791054204 C 12.292376805560142,32.37428986110496 12.724475263443283,32.2286544856422 16.170776454443832,31.36052103642662 C 19.617077645444382,30.49238758721103 20.45,30.29835686677236 24.5,29.42021383203987 C 28.55,28.54207079730738 29.2,28.355564562169302 31.0,27.555151480659084 C 32.8,26.754738399148863 33.3,26.603619323135927 36.0,26.04396072052971 C 38.7,25.484302117923495 39.7,25.32901844160541 46.0,24.49112395734887 C 52.3,23.653229473092328 53.5,23.452501571555782 58.0,22.48384494198342 C 62.5,21.51518831241106 63.35,21.31908530718669 66.5,20.522814889739706 C 69.65,19.726544472292726 70.6,19.437623304981685 76.0,17.633603216629282 C 81.4,15.829583128276882 83.05,15.472679629203618 92.5,14.064568225896641 C 101.95,12.656456822589664 103.7690983005625,12.5 110.69098300562504,12.5 C 117.6128677106876,12.5 118.43562322217393,12.413180808983729 118.91853812048836,11.631808089837282 C 119.40145301880278,10.850435370690834 119.93235471824028,10.701928327411284 124.2275551148633,10.146737657041777 C 128.52275551148634,9.59154698667227 129.75,9.278366177688543 136.5,7.014929567204496" fill="none" stroke="#000000" stroke-width="0.4147453952286849"/>
	<path d="M 180.5,19.85986691349313 C 183.65,18.654164125910302 184.31347306862116,18.600658617127095 187.13473068621167,19.32481182566105 C 189.95598830380217,20.048965034195003 190.50598830380216,20.04156351365932 192.63473068621167,19.250796620304182 C 194.76347306862118,18.460029726949045 195.3,18.43009977969963 198.0,18.951497147810027 C 200.7,19.472894515920423 201.43225772739544,19.524793140698055 205.3225772739545,19.47048339558635 C 209.21289682051352,19.416173650474644 210.10049211931968,19.664632272633565 214.19853026201608,21.95506961717556 C 218.29656840471247,24.245506961717556 218.84576668415554,24.5 219.69051305644643,24.5 C 220.53525942873733,24.5 220.89372134929047,24.814460674239562 223.27513226197783,27.64460674239563 C 225.6565431746652,30.4747528105517 225.95294862263012,30.997614265355093 226.239186741627,32.87322129042957 C 226.5254248606239,34.74882831550404 226.6425555041298,35.04255550412968 227.41049317668597,35.81049317668598 C 228.17843084924215,36.57843084924229 228.10881021710998,37.148288881364806 226.71428685536426,41.50907349791118 C 225.31976349361858,45.86985811445756 224.95657563075338,46.411670251592355 223.0824082267123,46.92719486925913 C 221.20824082267123,47.44271948692591 220.73090169943748,47.5 218.30901699437493,47.5 C 215.88713228931238,47.5 215.5562305898749,47.4 215.0,46.5 C 214.4437694101251,45.6 214.1578677106876,45.5 212.14098300562506,45.5 C 210.12409830056248,45.5 209.79781745930518,45.3978174593052 208.878174593052,44.478174593052024 C 207.95853172679884,43.55853172679885 207.61353172679884,43.67924604160599 205.428174593052,45.68531774112351 C 203.2428174593052,47.691389440641025 202.8960780195953,47.97782482070863 201.96078019595308,48.5496715417996 C 201.02548237231085,49.12151826289057 199.87548237231084,49.25299364109156 190.46078019595308,49.8644253238095 C 181.0460780195953,50.475857006527434 179.8,50.541696889674476 178.0,50.52282415527991 C 176.2,50.50395142088535 174.65,50.45297253151898 162.5,50.01303526161618 C 150.35,49.57309799171338 148.7,49.52189807052103 146.0,49.50103604969268 C 143.3,49.480174028864326 142.71973874519543,49.36465190777144 140.1973874519542,48.345814838763815 C 137.57526844981243,47.28667924338113 137.41426372403444,47.05088517102665 137.6973874519542,44.68452366834775 C 137.96973874519543,42.40819868398093 138.29002279109304,42.009853167611894 140.90022791093025,40.70106850465743 C 143.79088066242304,39.25166441057734 143.8065628807606,39.25470961066509 145.65022791093025,41.62343166179846 C 147.42285655467697,43.90088688723446 147.5,43.92290578825879 147.5,42.151408450704224 C 147.5,40.487676056338024 147.48355205721,40.28767605633803 147.33552057209994,40.151408450704224 C 147.18748908698987,40.01514084507042 147.39057640357078,39.6 149.36639373790888,36.0 C 151.34221107224698,32.4 151.9474546066374,31.81436178829138 155.41882908181302,30.14361788291378 C 158.89020355698864,28.47287397753618 159.39071321960472,28.035274166028803 160.42392570797398,25.76761976783999 C 161.5707346665022,23.2506482755641 161.57670415608376,23.248540806173576 166.1114995267888,23.759677955433204 C 170.1971034753529,24.22018472245591 170.9685064961559,24.117761367836994 173.8255297348189,22.735444409244018 C 176.6825529734819,21.35312745065104 177.35,21.06556970107595 180.5,19.85986691349313" fill="none" stroke="#000000" stroke-width="0.4147453952286849"/>
</svg>
