<?xml version="1.0" ?>
<svg baseProfile="full" height="326px" version="1.1" viewBox="32.24819695316902 -10.228578713215676 325.20320704604654 176.44084964505123" width="600px" xmlns="http://www.w3.org/2000/svg" xmlns:ev="http://www.w3.org/2001/xml-events" xmlns:xlink="http://www.w3.org/1999/xlink">
	<defs/>
	<path d="M 60.50835921350013,5.4246888794153865 C 61.85083592135001,4.531862286589007 64.9130712146817,4.461026365238995 91.13071214681693,4.716329665915261 C 117.34835307895216,4.971632966591526 120.39335307895215,5.125 121.58071214681684,6.25 C 122.80197778102563,7.407125822903536 122.7725209852475,7.5 121.18425108655441,7.5 C 119.64007706445355,7.5 119.07007706445356,7.624347856484688 115.48425108655451,8.743478564846878 C 111.89842510865545,9.862609273209069 111.5,10.070554799790978 111.5,10.822933830665967 C 111.5,11.575312861540954 111.2,11.593019478474359 108.5,11.0 L 105.5,10.341089468361824 L 105.5,12.920544734180911 C 105.5,15.445776486743249 105.44219141404311,15.5 102.75,15.5 C 100.15052070623881,15.5 100.08210220340298,15.554734802268657 101.5,16.5 C 102.85,17.4 103.25,17.5 105.5,17.5 C 107.75,17.5 108.25,17.7 110.5,19.5 C 112.75,21.3 113.11730769230769,21.5 114.1730769230769,21.5 C 115.22884615384612,21.5 115.62884615384613,21.775119258532158 118.1730769230769,24.25119258532159 C 120.71730769230768,26.727265912111022 121.375,27.34131037642466 124.75,30.391637228457917 C 128.125,33.44196408049118 128.5,33.91684482195902 128.5,35.14044464313633 C 128.5,36.364044464313636 128.26224447154422,36.5 126.12244471544217,36.5 C 123.98264495934012,36.5 123.61662357696328,36.65455089914686 122.46223089167368,38.04550899146861 C 121.30783820638409,39.43646708379035 121.05691222929775,39.54394887727272 119.95297112081029,39.12032692629231 C 118.84903001232283,38.696704975311896 118.77712205658797,38.84371245604122 119.23389156346175,40.590401733585516 C 119.69066107033555,42.337091011129814 119.82649534678471,42.58375123273173 120.59223432795334,43.05700394960466 C 121.35797330912196,43.5302566664776 121.64590264723367,44.04141010836231 123.47152770907036,48.16853836845178 C 125.29715277090703,52.29566662854124 125.5,52.89152461345696 125.5,54.127118217608924 C 125.5,55.36271182176089 125.73128466452012,55.5 127.81284664520112,55.5 C 129.89440862588214,55.5 130.66630879919833,55.76080151576052 135.53184837836312,58.108015157605166 C 140.39738795752794,60.45522879944981 141.16610329300784,60.802753714743446 143.21900173316203,61.583264310541466 C 145.2719001733162,62.36377490633948 145.5,62.55297339057896 145.5,63.4752491529363 C 145.5,64.39752491529363 145.15,64.5 142.0,64.5 C 138.85,64.5 138.5,64.59335776543027 138.5,65.43357765430271 C 138.5,66.27379754317515 138.2494963113294,66.39879754317515 135.9949631132942,66.68357765430271 L 133.48992622658838,67.0 L 135.6095113545935,71.10205778448369 C 137.51713796979809,74.79390979051901 138.04264165846868,75.3887358508558 140.8645482412993,77.05031838785149 C 143.68645482412992,78.71190092484719 144.1,78.95856033428021 145.0,79.51691248218165 C 145.9,80.07526463008308 146.275,80.36269658464963 148.75,82.39123202784698 C 151.225,84.41976747104434 151.5,84.79726424467397 151.5,86.16619976414327 C 151.5,87.53513528361256 151.3,87.73954040510532 149.5,88.2102509790709 C 147.7,88.68096155303648 147.5,88.86021121428797 147.5,90.00274759158579 C 147.5,91.1452839688836 148.075,91.86160215719511 153.25,97.16592947470073 C 158.425,102.47025679220636 159.4040988907418,103.3307607845757 163.04098890741795,105.77096939839413 C 166.6778789240941,108.21117801221254 167.55184322857303,108.57009266502223 171.78063195220727,109.36011592649095 C 176.00942067584148,110.15013918795965 176.60532178509968,110.33795221635742 177.73964304478932,111.23824621046866 C 178.87396430447893,112.1385402045799 179.2790898201145,112.30457590939075 181.790898201145,112.89860325857725 C 184.30270658217555,113.49263060776377 184.5241986619066,113.65182874817786 184.0058189984557,114.49058466271813 C 183.48743933500484,115.32934057725842 183.08334951489033,115.48753798485612 179.9649207973107,116.07255873869502 C 176.84649207973106,116.65757949253394 176.5,116.85430985144738 176.5,118.03986232782947 C 176.5,119.22541480421154 176.65714285714284,119.51428571428573 178.07142857142856,120.92857142857144 C 179.48571428571427,122.34285714285714 179.91346366137373,122.5 182.34892232802312,122.5 C 184.78438099467252,122.5 185.2782878079107,122.65640561461862 187.28799046040473,124.06405614618623 C 189.29769311289877,125.47170667775384 189.72474251481106,125.56344483786312 191.55848447952766,124.98143774727896 C 193.39222644424427,124.39943065669482 193.73194580538603,124.44760849022433 194.95567809094524,125.46321608257406 C 196.17941037650442,126.4788236749238 196.89961159893267,126.58708551481453 202.15769031522774,126.54583448148134 C 207.41576903152279,126.50458344814814 208.3309016994375,126.5 211.30901699437493,126.5 C 214.28713228931238,126.5 214.562706646077,126.41047847904804 214.06476056202095,125.60478479048044 C 213.5668144779649,124.79909110191284 213.68122841388367,124.64443374079134 215.2088999212087,124.05821117926541 C 216.73657142853375,123.47198861773947 217.46099707176913,123.47282019473245 222.4531563535627,124.06652694919524 C 227.44531563535628,124.66023370365804 228.35,124.90290357759962 231.5,126.49322568861112 C 234.65,128.0835477996226 235.8,128.2222377435816 243.0,127.88012512820083 C 250.2,127.53801251282009 251.4372444715442,127.5 255.37244471544219,127.5 C 259.66074434484943,127.5 259.7209322776022,127.47113339624246 258.5,126.0 C 257.28818618874675,124.5398536835608 257.31324875523075,124.5 259.4432967386472,124.5 C 261.4126642912255,124.5 261.8249087627697,124.3964816241512 263.56574145408933,123.46481624151201 C 265.30657414540894,122.5331508588728 265.5,122.30290530013187 265.5,121.16236065410268 C 265.5,120.0218160080735 265.025,119.72533438392229 260.75,118.19754441259067 C 256.475,116.66975444125907 255.6309016994375,116.5 252.30901699437493,116.5 C 248.9871322893124,116.5 248.5606802113055,116.40719963871179 248.044496214306,115.57199638711782 C 247.5283122173065,114.73679313552385 247.67251664805036,114.58002068405712 249.48654052174453,114.00427187245042 C 251.30056439543873,113.42852306084372 251.61827644575203,113.14632342213193 252.6636610248778,111.1822754853326 C 253.70904560400356,109.21822754853326 253.80199486185586,108.6833240867089 253.5931536034008,105.83324086708888 C 253.36695418043269,102.74626856832806 253.45582730393795,102.60211813946482 257.12054980263395,100.11187477985047 C 260.50404764039877,97.81272852095593 261.13599225236516,97.61747579071744 263.43999592229744,98.15934747746564 C 265.7439995922297,98.70121916421385 266.1292381644058,98.86411760853203 267.2923816440584,99.78833192064745 C 268.455525123711,100.71254623276288 268.7005251237108,100.69947487629247 269.7423816440564,99.65761835594341 C 270.78423816440204,98.61576183559434 271.0799999999962,98.5 272.699999999998,98.5 C 274.3199999999998,98.5 274.5,98.31911296351068 274.5,96.6911296351067 C 274.5,95.06314630670273 274.3701144662255,94.70463021851512 273.20114466225505,93.10596875323058 C 272.03217485828463,91.50730728794605 271.5571748582846,91.23548644165675 268.45114466225505,90.38776029033761 C 265.3451144662255,89.54003413901849 265.9367531242949,89.4866654823518 274.3675312429492,89.85407372367062 C 282.7983093616035,90.22148196498945 283.7983093616035,90.35733907421005 284.3675312429492,91.21264481587657 C 284.9367531242949,92.0679505575431 285.72807211516096,92.42092631314722 292.2807211516096,94.74240237191788 C 298.83337018805827,97.06387843068852 299.90971370686003,97.22565784509308 303.04415633962753,96.36019651596357 C 306.17859897239504,95.49473518683403 306.62990734488403,95.4622531657767 307.5572400645178,96.03537630539026 C 308.4845727841516,96.60849944500382 308.73195577177967,96.55238323840359 310.03106994079826,95.474214239388 C 311.33018410981686,94.39604524037243 311.62580362216687,94.33429777104604 312.98726506429836,94.856739546124 C 314.34872650642984,95.37918132120198 314.5,95.34036888695567 314.5,94.46861520366087 C 314.5,93.59686152036609 314.62777591398265,93.5 315.77775913982623,93.5 C 316.9277423656698,93.5 317.23510929818224,93.29025295494431 318.85142846495006,91.4025295494431 C 320.48823538588084,89.49087818846462 320.97303211535143,89.3652858731683 324.32366932512383,89.9848809604381 C 327.63236693251235,90.59672063583481 328.13916715431293,90.79920626377479 329.39167154312906,92.00973723983788 C 330.7641428372614,93.33621483954907 330.7350545240568,93.37494790723673 327.2832937959823,94.81718562700176 C 324.13324943473407,96.13335819938617 323.5725560744179,96.5057470810005 321.67636019282054,98.54107444314505 C 319.7001665834418,100.66226928651506 319.4695479321017,100.71961645923423 317.95852253698,99.46557676311097 C 316.5086645283208,98.26230148893576 316.27931689279785,98.23903877944619 315.66504618175,99.23294966821521 C 315.0507754707021,100.22686055698422 314.647741883963,100.37043034517174 311.63471031435927,100.66864755009038 C 308.6216787447555,100.96686475500904 308.23921925294843,101.125 307.81011539628867,102.25 C 307.38101153962884,103.375 307.51666666666665,103.5 309.16666666666663,103.5 C 310.8556323173675,103.5 310.73156742049673,103.73272846996043 307.5911595532861,106.45543194857754 C 304.5232031512436,109.11532070229732 303.8742026975529,109.47853761277953 301.1011550163789,110.08760105339965 C 298.328107335205,110.69666449401976 297.6843038757602,111.02037920514725 294.6631204219308,113.32474816467467 L 291.30624991767587,115.88515811970514 L 293.1531249588379,117.26100275428468 C 294.8153124958838,118.49926292540624 294.967940218721,118.75118436325698 294.67940218721003,119.78021713279206 C 294.3908641556991,120.80924990232714 294.53571826483585,121.05294947179752 296.12794327857773,122.21721282749589 C 297.7219707096132,123.38279414289747 297.25879791497965,123.45237300794955 291.4485410913677,122.92016321033495 L 285.0,122.32948764239804 L 288.0,124.25406505559812 C 290.7,125.98618472747818 291.7,126.50652225173907 298.0,129.45744029820708 C 304.3,132.40835834467507 305.3,132.9251571585322 308.0,134.62542843677812 C 310.7,136.3256997150241 311.45,136.57106861319392 315.5,137.07911741847633 C 319.951804108186,137.63757019835663 319.9055824286541,137.6527168322276 311.18433013551896,138.4933427778177 C 303.250227257486,139.25809679594255 302.05022725748603,139.2103280318627 299.18433013551896,138.01565513701925 C 296.3184330135519,136.8209822421758 295.68795491958656,136.71618285097077 292.8795491958653,136.96766122496885 C 290.07114347214406,137.21913959896693 289.4400278855465,137.58095834042672 286.5683933298893,140.5858486395666 L 283.3776882680481,143.9246156386109 L 276.9904683792844,143.76197397448112 C 270.86654300910766,143.60603673878893 270.57698205924476,143.6820905070697 269.9660553079477,145.60695025421978 C 269.392581443632,147.41380640370136 269.087419019106,147.70636470347742 266.91443106268736,148.5325332519804 C 264.7414431062687,149.35870180048337 264.5,149.54548898856075 264.5,150.40040513275414 C 264.5,151.2553212769475 263.7449697785696,151.3542539254541 256.9496977856961,151.38973161781996 C 250.15442579282256,151.4252093101858 248.90368852407872,151.33514236636955 244.44232509825747,150.48906217965734 C 239.9809616724362,149.64298199294512 239.18693508319848,149.3284159098704 236.50205920588024,147.3434013489098 C 233.78921897329528,145.3377118461907 232.8609702232842,145.15056413032676 226.2594318933189,145.27834679756398 C 219.7259431893319,145.40481226231336 218.4,145.26557804365095 213.0,143.8860046109399 C 207.6,142.50643117822887 206.11635758586607,142.27740595882187 198.16357585866075,141.59575241686997 C 190.21079413145543,140.9140988749181 189.24895558000247,140.7118355845079 188.54519034413133,139.5731195127678 C 187.84142510826018,138.43440344102768 186.8250675223941,138.26727458678616 178.38161448547058,137.90183097035236 C 169.93816144854705,137.53638735391854 168.825,137.49599338226574 167.25,137.49789125382406 C 165.675,137.4997891253824 165.12140382682279,137.51363636363635 161.71403826822777,137.63636363636363 C 158.30667270963275,137.7590909090909 157.58167270963276,137.5935970827428 154.46403826822777,135.9814253728825 C 151.34640382682278,134.36925366302222 150.44778960165132,134.21003673831285 145.47789601651317,134.3892561257888 C 140.508002431375,134.56847551326473 139.60800243137498,134.4431485182746 136.47789601651317,133.13598617588758 C 133.34778960165133,131.82882383350056 132.77566134265754,131.42440439457357 130.75661342657548,129.09179178661768 C 128.73756551049345,126.75917917866177 128.31256551049344,126.5 126.5066134265755,126.5 C 124.70066134265755,126.5 124.5,126.4228 124.5,125.72800000000001 C 124.5,125.03320000000001 124.47963193119617,124.85820000000001 124.29631931196161,123.97800000000001 C 124.11300669272705,123.0978 123.85204881078641,122.73309054969188 121.68674049255507,120.33090549691877 C 119.52143217432373,117.92872044414568 119.02201573060442,117.59684964477334 116.69257605536185,117.01219750319535 C 114.31178339659778,116.41465658320794 114.21507850851997,116.29412515460987 115.48616740073983,115.50854901649555 C 116.73368925375692,114.73753810962273 116.61767605568497,114.27621114639487 114.29278687551044,110.76306640909536 C 111.76433943429653,106.94232437227609 111.61479346734814,106.84696819749973 106.06217281445018,105.51491502836221 C 100.97233451828514,104.29388163591074 100.35555538389373,104.07530069602309 99.89438147053622,103.32910562948584 C 99.43320755717872,102.58291056294858 99.58786771068759,102.5 101.44098300562504,102.5 C 103.29409830056251,102.5 103.5,102.42441113757276 103.5,101.74411137572764 C 103.5,101.06381161388254 103.825,100.85170930172129 106.75,99.62308825411525 C 109.675,98.3944672065092 110.27038434819944,98.11712899422668 112.70384348199448,96.84970613128996 C 115.13730261578951,95.58228326835325 116.0373026157895,95.5443855805145 121.70384348199448,96.47072925290237 C 127.37038434819945,97.39707292529023 128.2,97.5 130.0,97.5 C 131.8,97.5 131.62882887809485,97.34083175173208 128.28828878094862,95.9083175173208 C 124.94774868380239,94.47580328290951 124.51600991674668,94.12580328290952 123.97090111039157,92.4083175173208 C 123.42579230403643,90.69083175173208 123.27585894068352,90.5 122.47156747686248,90.5 C 121.66727601304142,90.5 121.36939800483307,90.27618832879494 119.49278739477904,88.26188328794943 C 117.61617678472501,86.24757824710392 117.25118162720833,86.02257824710392 115.84283581961218,86.01188328794943 C 114.43449001201603,86.00118832879494 113.98098498316666,85.46894503449832 111.30778553111855,80.68945034498319 L 108.33756391773176,75.37890068996639 L 111.91878195886588,76.05074124424104 C 115.14187819588659,76.65539774308824 115.5,76.6624162678944 115.5,76.12092649230262 C 115.5,75.57943671671083 114.65,75.11734406748057 107.0,71.5 C 99.35,67.88265593251943 98.5,67.37855389358107 98.5,66.4589796106165 C 98.5,65.53940532765192 98.6491107051359,65.38001126099658 99.99110705135894,64.8650389440632 C 101.34376220254477,64.34597645989288 101.29603599965384,64.0561603769009 99.47710271067264,61.74376141442147 C 97.67250245783191,59.449583954677294 97.50803773825153,59.15862892841493 97.83245551486885,58.83421115179783 C 98.15687329148616,58.509793375180735 98.57279323458977,58.63246824809772 101.99165494590493,60.060959880967715 C 105.41051665722009,61.48945151383771 105.87587067166457,61.515764166059874 106.64519509034977,60.32408640318941 C 107.41451950903497,59.13240864031894 107.5,58.88639414428703 107.5,57.863941442870285 C 107.5,56.84148874145353 107.15,56.561797011122586 104.0,55.06702413956078 C 100.85,53.57225126799897 100.5,53.210857123711946 100.5,51.4530826966905 C 100.5,49.69530826966905 100.36911296351049,49.5 99.19112963510491,49.5 C 98.01314630669933,49.5 97.69192099256522,49.36082125331827 95.97887649376383,48.10821253318268 C 94.26583199496247,46.85560381304709 94.19573186625615,46.57154695997859 95.2778752067007,45.26764400249769 C 96.42623779712895,43.88395172998904 96.31222548710862,43.68422027989885 92.74012834804176,40.82191476544083 C 89.37401283480418,38.124661409570564 88.775,37.70519988679026 86.75,36.627299537637825 C 84.725,35.54939918848539 84.5,35.333150858872806 84.5,34.464816241512004 C 84.5,33.5964816241512 84.64201858022676,33.5 85.92018580226761,33.5 C 87.19835302430846,33.5 87.05487831076539,32.925 84.48543866683696,27.75 C 81.85846009862404,22.45911327976674 81.18264443119143,21.680616848857923 76.02142714943585,18.0 C 70.97325642770329,14.4 70.35589033825889,13.775 69.84776625499188,11.75 C 69.33964217172488,9.725 69.16902474323823,9.5 68.14159197012538,9.5 C 67.11415919701254,9.5 66.72677555941097,9.471775559410972 64.26775559410973,9.217755594109725 C 61.80873562880847,8.963735628808477 61.40957155015848,8.80957155015849 60.276114807609844,7.676114807609851 C 59.14265806506121,6.542658065061213 59.16588250565024,6.317515472241767 60.50835921350013,5.4246888794153865" fill="none" stroke="#000000" stroke-width="0.2707770250175242"/>
</svg>
