<?xml version="1.0" ?>
<svg baseProfile="full" height="349px" version="1.1" viewBox="-2.7180605409300185 -6.727333413237067 229.66060407618843 133.44921999973894" width="600px" xmlns="http://www.w3.org/2000/svg" xmlns:ev="http://www.w3.org/2001/xml-events" xmlns:xlink="http://www.w3.org/1999/xlink">
	<defs/>
	<path d="M 77.25,5.073324163210526 C 78.825,4.557332416321053 80.8,4.5 97.0,4.5 C 113.2,4.5 115.225,4.561663136396097 117.25,5.11663136396097 C 119.275,5.671599591525843 119.5,5.871599591525843 119.5,7.11663136396097 C 119.5,8.361663136396096 119.40673876705571,8.5 118.56738767055707,8.5 C 117.72803657405842,8.5 117.57610651246566,8.684849110696405 117.04808705462936,10.348491106964051 C 116.52006759679307,12.0121331032317 116.61285258050434,12.487133103231699 117.9759368917421,15.098491106964051 C 119.33902120297984,17.709849110696403 119.34095126457261,18.111024259861534 117.9952375076698,19.110242598615347 C 116.64952375076697,20.10946093736916 116.5,20.291199704424866 116.5,20.927630269172415 C 116.5,21.564060833919964 116.7,21.571297807002722 118.5,21.0 C 120.3,20.428702192997278 120.5,20.410532734002736 120.5,20.818305410054585 C 120.5,21.226078086106433 120.3513979707802,21.55781685316214 119.01397970780202,24.135693080611652 C 117.67656144482385,26.713569308061164 117.40156144482384,27.005969363245594 116.26397970780202,27.059693632455925 C 115.1263979707802,27.11341790166626 115.0,27.638417901666262 115.0,32.309693632455925 C 115.0,36.98096936324559 114.95,37.5 114.5,37.5 C 114.05,37.5 113.98683944229285,38.000488030392084 113.86839442292847,42.50488030392084 C 113.74994940356409,47.0092725774496 113.604332483554,47.66936076069483 112.41222522282757,49.105762136373116 C 111.22011796210114,50.54216351205141 111.0633415054001,50.816675481659324 110.8444606558172,51.850881832452274 C 110.6255798062343,52.88508818324523 110.5345335898483,53.225 109.93399849195718,55.25 C 109.26956348316685,57.49047003668119 109.27778422546373,57.5 111.87489475243723,57.5 C 114.22223648476036,57.5 114.6079543000336,57.3 115.7320729051695,55.5 C 116.85619151030542,53.7 117.13203889866561,53.5 118.49054678877138,53.5 C 119.84905467887714,53.5 120.275,53.155342880466065 122.75,50.05342880466066 C 125.225,46.95151472885526 125.5,46.52651472885526 125.5,45.80342880466066 C 125.5,45.08034288046606 126.0,44.56945191781213 130.5,40.694519178121304 C 135.0,36.81958643843048 135.5,36.28784767137477 135.5,35.377131507564236 C 135.5,34.4664153437537 135.2757842055675,34.4363879875829 133.25784205567498,35.07685794585621 L 131.01568411134994,35.78849123282656 L 132.38028677111714,34.14424561641328 C 133.60842916490762,32.664424561641326 133.8834923477003,32.5 135.13091859904387,32.5 C 136.37834485038746,32.5 136.39204569996613,32.3 135.2679270948305,30.5 C 134.1438084896949,28.7 133.89296110133472,28.5 132.7594532112288,28.5 C 131.62594532112288,28.5 131.5,28.407332416321054 131.5,27.57332416321053 C 131.5,26.739315910100004 131.675,26.584952712167556 133.25,26.029692183886027 C 134.825,25.474431655604498 134.55,25.47483992058776 130.5,26.03377483371861 C 126.3309873141698,26.609134523446002 126.11093521763426,26.557179222561818 127.50824052156293,25.327406813043112 C 128.86565699096957,24.132740681304313 129.35324489433614,23.72086398447528 132.38411955522872,21.20863984475281 C 135.4149942161213,18.69641570503034 135.7773905017566,18.116053464198416 136.0080824115817,15.40501743643359 C 136.23877432140682,12.693981408668765 136.45118641804024,12.253724272457385 138.1322033779159,11.002446074319792 C 139.97714850607306,9.629146654548357 139.9755503044973,9.594099601303315 138.00157229032993,8.137829525642804 C 136.20298735162686,6.810952829971109 136.08940339864617,6.580345981707207 136.86573276052317,5.831761043003794 C 137.64206212240018,5.08317610430038 138.87501712843346,4.966195238406903 149.19528282085605,4.66195238406903 C 159.51554851327865,4.357709529731157 160.9266779594015,4.390273291127319 163.30657728208476,4.987589998030646 L 165.95090986284393,5.651275227923233 L 163.8552942856992,7.325637613961616 C 161.9692402662689,8.832563761396163 161.6956742790706,9.271475039510698 161.11963441371586,11.714750395106977 C 160.5435945483611,14.158025750703256 160.236671218994,14.672419690097213 158.05040112004437,16.858689789046544 C 155.86413102109475,19.044959887995876 155.67444455138903,19.3411112180566 156.1535364229871,19.82020308965376 C 156.63262829458515,20.29929496125092 156.35156768852457,20.525263022901473 153.34293036238137,22.0798837061593 C 150.33429303623814,23.634504389417128 150.12420104113144,23.849945033556192 151.24201041131448,24.23429014754994 C 152.35981978149755,24.618635261543687 152.3798024524976,24.856074080081957 151.4418371213149,26.608678332932627 C 150.50387179013222,28.3612825857833 150.3192935388399,28.50635125376625 149.59605460839174,28.05936501276215 C 148.87281567794355,27.612378771758046 148.6673632183954,27.834577952175266 147.54153001291013,30.28135681693435 C 146.41569680742487,32.72813568169344 146.26883113792118,33.2 146.07287331787313,35.0 C 145.8769154978251,36.8 145.67588429302484,37.275 144.06256126987049,39.75 C 142.44923824671613,42.225 142.08338632920217,42.5 140.40404209473104,42.5 C 138.7246978602599,42.5 138.47469601600426,42.75263775601339 137.90402365217477,45.02637756013393 C 137.33335128834526,47.30011736425447 137.10396302703313,47.64158503871662 135.61014103905376,48.441054304755426 C 134.1163190510744,49.24052357079424 133.92894204076242,49.58788581478085 133.73637093593385,51.9146767446215 C 133.54379983110528,54.24146767446215 133.57018107340295,54.5 134.00018335891053,54.5 C 134.43018564441815,54.5 135.97906549233414,52.99124629740451 149.4889818380706,39.41246297404506 C 162.99889818380706,25.833679650685617 164.5,24.240937665588923 164.5,23.4850431230781 C 164.5,22.729148580567276 164.75,22.448510269405872 167.0,20.678660011464075 C 169.25,18.908809753522277 169.5,18.605070114467775 169.5,17.641263620919034 C 169.5,16.677457127370296 169.725,16.451612317292895 171.75,15.38281552014502 C 173.775,14.314018722997144 174.6,13.742242344044163 180.0,9.665051730615204 L 186.0,5.134839937916363 L 194.60053799142514,4.702246570969928 C 202.34102218370776,4.312912540718137 203.4272463334242,4.390695902302184 205.46277948858935,5.480080186810399 L 207.7244829943284,6.690507169597304 L 203.8622414971642,9.095253584798652 C 200.3862241497164,11.259525358479866 200.125,11.5 201.25,11.5 C 202.375,11.5 202.5,11.6 202.5,12.5 C 202.5,13.4 202.32321345124546,13.5 200.73213451245462,13.5 C 199.14105557366378,13.5 198.5851394596111,13.757625204296712 195.17297337192787,16.076252042967113 C 191.63873994383917,18.477825785251262 191.45645530921647,18.742605570148235 192.48453891548917,19.981370532843385 C 193.52889824240532,21.239746539185898 193.31985431022346,21.39910142763607 188.54370005601592,22.985485171794565 C 184.0043700056016,24.493208544632385 183.5,24.80269669564476 183.5,26.080366681918292 C 183.5,27.35803666819183 183.40256801462317,27.5 182.5256801462316,27.5 C 181.64879227784002,27.5 181.39398231834136,27.804335443326245 179.97758055124478,30.543354433262447 C 178.56117878414824,33.28237342319865 178.1586107695251,33.69842492522946 175.9519004050132,34.703869453570555 C 173.7451900405013,35.70931398191165 173.5,35.91314885388071 173.5,36.74221817326121 C 173.5,37.57128749264171 173.13795379142144,38.10523599061089 169.8795379142143,42.081703152953104 L 166.2590758284286,46.5 L 168.6295379142143,46.5 L 171.0,46.5 L 169.05887036489537,48.0 C 167.31185369330117,49.35 166.84037206914996,49.5 164.34405412338336,49.5 C 161.84773617761675,49.5 161.4592797501839,49.7075693909433 160.459489849055,51.575693909433 C 159.4596999479261,53.4438184279227 159.1735424442185,53.826457555781495 157.59791481197902,55.40208518802097 C 156.02228717973955,56.97771282026044 155.67154076838906,57.220196022435765 154.09045069847411,57.82691720977422 C 152.50936062855916,58.43363839711268 152.38021656013476,58.62599926925388 152.79901001422985,59.75052593118625 C 153.21780346832497,60.875052593118625 153.70111927061876,61.06055294083476 157.6321680371678,61.60552940834763 L 162.0,62.21105881669526 L 158.5,64.40479001472232 C 155.35,66.37914809294669 154.62179038683618,66.71038553894812 151.2179038683619,67.71716447473659 C 147.81401734988762,68.72394341052507 147.31901734988762,68.71901734988761 146.2679038683619,67.66790386836189 C 145.2167903868362,66.61679038683619 144.9664816705655,66.5 143.76481670565494,66.5 C 142.56315174074433,66.5 142.18140312383238,66.66264673115364 139.94733053653545,68.12646731153643 C 137.6257426029264,69.64763014917591 137.54338003017227,69.84734345144031 138.67520953995012,71.211114580464 C 139.7643732303203,72.52347654211603 140.34098899601543,72.60097346175083 144.4413671969014,71.98608377681208 C 148.5417453977874,71.37119409187333 149.48553922984405,71.11737303952856 153.87930551746794,69.44787325336438 C 158.27307180509183,67.77837346720021 159.14606063035626,67.33822981641175 162.60919377011237,65.04643674547987 C 166.0723269098685,62.754643674547985 166.6342635069049,62.5 168.22855974047627,62.5 C 169.82285597404763,62.5 169.25,62.98292054347206 162.5,67.32920543472059 C 155.75,71.67549032596914 154.67277087267436,72.27106545289874 151.72770872674363,73.28495670401662 C 148.78264658081287,74.29884795513449 147.44061705436297,74.48139573702801 138.3074134622446,75.11043452295178 C 129.1742098701262,75.73947330887553 127.90341021835134,76.01889818194593 125.59941694449594,77.90468325365575 C 123.29542367064055,79.79046832536558 122.91245319709046,80.13214285714284 121.76971220899497,81.32142857142834 C 120.62697122089949,82.51071428571385 120.5,82.78571428571385 120.5,84.07142857142834 C 120.5,85.35714285714283 120.3940983005625,85.5 119.44098300562504,85.5 C 118.4878677106876,85.5 118.44376941012509,85.6 119.0,86.5 C 119.55623058987491,87.4 119.9371322893124,87.5 122.80901699437496,87.5 C 125.6809016994375,87.5 126.5,87.3397191144183 131.0,85.89719114418295 C 135.5,84.45466317394761 136.375,84.13947573981926 139.75,82.74531680289957 C 143.125,81.35115786597986 143.5,81.12278868746088 143.5,80.46162501770982 C 143.5,79.80046134795877 143.825,79.66220658096681 146.75,79.07907734779025 C 149.675,78.49594811461368 150.45,78.34407220126184 154.5,77.56031821427192 C 158.55,76.776564227282 159.48329053680152,76.4800064284023 163.8329053680152,74.5947402254749 C 168.18252019922883,72.70947402254748 168.86409434463778,72.5 170.64864682210452,72.5 C 172.43319929957124,72.5 172.83045264616578,72.39351462779868 174.62118028804983,71.43514627798683 C 176.41190792993388,70.47677792817498 176.73033378452493,70.4152670207121 177.8054388339605,70.820037203358 C 178.88054388339606,71.2248073860039 178.61278760453268,71.43129275820522 175.12787604532687,72.88489092537117 C 171.64296448612106,74.33848909253712 171.05963115278772,74.5 169.29454271199353,74.5 C 167.52945427119937,74.5 167.37645284837882,74.625 167.76452848378807,75.75 C 168.15260411919735,76.875 167.8359374525307,77.175 164.5978618171214,78.75 C 161.35978618171214,80.325 160.88029145971873,80.5 159.80291459718723,80.5 C 158.72553773465572,80.5 158.13564380305272,80.75 153.9039752811571,83.0 C 149.67230675926152,85.25 149.06349697010828,85.5 147.8158773896248,85.5 C 146.56825780914133,85.5 146.16852945480628,85.67108188306975 143.81859384627427,87.21081883069752 C 141.46865823774223,88.75055577832529 141.01018250755584,88.95175874992094 139.2338365444102,89.222848546654 C 137.45749058126455,89.49393834338706 136.9644403390083,89.7728564603173 134.30333412184754,92.01202971595647 C 131.6422279046868,94.25120297159565 131.16646643585193,94.5 129.54571943349885,94.5 C 127.92497243114579,94.5 127.62595465629208,94.64330763637511 126.55554168496174,95.9330763637511 C 125.4851287136314,97.22284509112707 125.52323499432215,97.60582767222539 126.93660449186932,99.76290217473422 C 128.34997398941647,101.91997667724306 128.4399976257979,102.22666904086795 127.83684085568353,102.82982581098312 C 127.23368408556918,103.43298258109832 127.0083333333342,103.5 125.5833333333338,103.5 C 124.15833333333337,103.5 123.80008488206259,103.201337834167 122.00084882062598,100.51337834167008 C 120.20161275918936,97.82541884917315 119.85161275918936,97.55041884917314 118.50084882062603,97.76337834167008 C 117.15008488206271,97.97633783416701 117.02938367607283,97.825 117.29383676072706,96.25 C 117.5582898453813,94.675 117.43413723374147,94.5 116.05231064432878,94.5 C 114.6704840549161,94.5 114.39204569996627,94.7 113.2679270948305,96.5 C 112.14380848969473,98.3 111.81693927184786,98.5 109.99923491636167,98.5 C 108.18153056087547,98.5 107.71642429917628,98.7439963558486 105.34817229936982,100.93996355848594 C 102.97992029956335,103.13593076112328 102.3324230412564,103.58593076112328 98.87319971630052,105.43996355848594 C 95.41397639134465,107.29399635584859 94.87199347658417,107.5 93.45337056869573,107.5 C 92.0347476608073,107.5 91.67991686411366,107.68372536391762 89.90506260175931,109.33725363917623 C 88.13020833940494,110.99078191443485 87.66834490849394,111.24093205782547 85.28642829264916,111.83875507308262 C 82.90451167680438,112.43657808833977 82.47809965652982,112.66475748632686 81.02230808990353,114.12054905295363 C 79.56651652327724,115.57634061958039 79.37497859831697,115.70119047618975 79.10692884030072,115.36904761904724 C 78.83887908228449,115.03690476190472 78.7159140294497,114.65354181177538 77.87727831195289,111.53541811775378 C 76.97345078631928,108.1749053656865 76.84533400556694,108.05035810934945 73.61212228880757,107.38909569681292 C 70.61211758547357,106.77552921198775 70.11484454307019,106.53499068323318 68.63939186477378,104.9837104092673 L 67.0,103.26006566041632 L 70.75,103.81716226382213 C 74.125,104.31854920688734 74.5,104.27464422442903 74.5,103.378112439239 C 74.5,102.481580654049 74.41133068303603,102.43676666289308 73.61330683036022,102.92997252767987 C 72.8152829776844,103.42317839246665 72.5977032624779,103.32265151656655 71.43750967829527,101.92470376867888 C 70.27731609411265,100.52675602079121 69.92321816528955,100.42794696565578 67.89653039006436,100.93661321732459 C 65.86984261483917,101.4452794689934 65.51242233004567,101.37103786004702 64.3223275421293,100.1941971278608 C 63.13223275421293,99.01735639567457 62.67100340488433,98.90126309372015 59.7100340488433,99.03326410831662 C 56.74906469280227,99.1652651229131 56.30406469280231,99.29593530719707 55.26003404884367,100.33996595115636 C 54.216003404885036,101.38399659511563 53.795000000000705,101.5 51.05000000000037,101.5 C 48.305000000000035,101.5 47.87216224333832,101.58265552950621 46.72162243338327,102.3265552950621 C 45.57108262342821,103.07045506061799 45.69608262342821,103.26831118150301 47.97162243338327,104.3051165039123 C 50.24716224333832,105.34192182632158 50.5,105.55359761010567 50.5,106.42187434175312 C 50.5,107.29015107340058 50.0,107.37523715046649 45.5,107.27273511241212 C 41.0,107.17023307435775 40.5,107.0770835187433 40.5,106.34123955626751 C 40.5,105.60539559379174 40.08621841347336,105.4574688090972 36.3621841347336,104.86197170932203 L 32.224368269467206,104.2003082651274 L 34.885896956589036,102.80579246806458 C 37.281272774998676,101.55072825070803 37.6535669069825,101.47687557931248 38.608838276427214,102.06726575410897 C 39.56410964587193,102.65765592890547 40.01173836368639,102.53935170168292 43.08512545457178,100.88422348188345 C 46.15851254545718,99.22909526208397 46.5,98.96793252022317 46.5,98.27259606327536 C 46.5,97.57725960632753 46.3464816241512,97.5 44.964816241512004,97.5 C 43.583150858872806,97.5 43.53315085887281,97.30657414540893 44.464816241512004,95.56574145408933 C 45.3964816241512,93.82490876276974 45.5,93.58657189916585 45.5,93.18237281805051 C 45.5,92.77817373693517 45.3,92.6809615530372 43.5,92.21025097907096 C 41.7,91.7395404051047 41.5,91.57787726870859 41.5,90.59361961510979 C 41.5,89.60936196151098 41.744098300562506,89.5 43.94098300562506,89.5 C 46.1378677106876,89.5 46.4437694101251,89.4 47.0,88.5 C 47.5562305898749,87.6 47.40143340889396,87.5 45.45202819019055,87.5 C 43.50262297148715,87.5 43.343191641850574,87.35101932203358 43.85771489382484,86.01019322033584 C 44.37223814579911,84.66936711863809 44.20148996301731,84.46318280637148 42.15023306600689,83.94835009766976 C 40.098976168996465,83.43351738896803 39.77750579919554,83.39077006215102 38.93552936799765,83.52087682949974 C 38.09355293679977,83.65098359684845 37.718490033882546,83.55716790911505 35.184900338825486,82.58271995216582 C 32.65131064376842,81.60827199521658 32.29180939997963,81.5 31.58988790093757,81.5 C 30.88796640189552,81.5 30.634343881810317,81.30592966161439 29.05366270008556,79.5592966161439 C 27.472981518360807,77.81266357067341 26.7574827621496,77.55114123943906 21.898675137973473,76.94407330380051 C 17.039867513797347,76.33700536816195 16.5,76.19273884294367 16.5,75.50140805161772 C 16.5,74.81007726029176 16.725,74.66965802093127 18.75,74.09721565801274 L 21.0,73.46116858810329 L 18.75,72.5128084981064 C 16.725,71.65928441710919 16.5,71.46712768714151 16.5,70.5912411984297 C 16.5,69.71535470971789 16.60726903461373,69.55173807941823 17.572690346137286,68.95507489543317 C 18.53811165766084,68.3584117114481 19.21311165766084,68.54401538706955 24.322690346137286,70.81111165164758 C 29.43226903461373,73.07820791622561 30.425,73.3973919092141 34.25,74.00295158153233 C 38.075,74.60851125385055 38.5,74.61814897283547 38.5,74.09932877138142 C 38.5,73.58050856992737 38.32777591398262,73.32171878683309 36.77775913982622,71.51143094043846 C 35.227742365669826,69.70114309404384 34.93126074151862,69.5 33.81294289831422,69.5 C 32.69462505510982,69.5 32.46693441887627,69.30673348834064 31.53603653597881,67.56733488340643 C 30.605138653081344,65.82793627847224 30.509293693082917,65.60293627847223 30.577586935994546,65.31733488340643 C 30.645880178906175,65.03173348834065 30.58087963921697,64.8 29.927581539102498,63.0 C 29.27428343898803,61.2 29.058639604050143,60.83331871888507 27.771143189723613,59.33318718885068 C 26.483646775397084,57.83305565881629 26.456262377243306,57.45024158749784 27.497299208185837,55.50504647566622 C 28.538336039128364,53.559851363834596 28.599444937849757,53.20153264494952 28.108388195399783,51.92185928681554 C 27.617331452949806,50.642185928681556 27.620329993462132,50.35 28.138373600523032,49.0 C 28.65641720758393,47.65 28.995217990584486,47.5 31.526381430528552,47.5 L 34.33878525268863,47.5 L 33.315404728807394,51.20637882437023 C 32.394362257314285,54.54211976630345 32.34146192535529,55.2813433773808 32.78640140921749,58.59861493514376 C 33.23134089307969,61.91588649290671 33.505917881786644,62.58898937841018 35.53217129628707,65.32964379017855 C 37.55842471078749,68.0702982019469 38.0720716744166,68.49431915907356 40.668640932578136,69.56985336144511 C 43.26521019073967,70.64538756381667 44.226031991786414,70.71347113777317 50.27685894304548,70.2506891010102 C 56.32768589430455,69.78790706424722 57.42549923129655,69.5143055725559 61.254992312965484,67.51467418409696 C 65.08448539463441,65.51504279563802 65.55861038969715,65.21418339175109 65.99624226359282,64.50608014522759 C 66.43387413748849,63.79797689870408 66.1457144359206,63.656117426056824 63.11464524791388,63.08748541875504 C 60.083576059907166,62.51885341145325 59.45945106484443,62.56632889641765 56.87339529728654,63.56224026839908 C 54.287339529728655,64.5581516403805 53.54562055760376,64.71376273637844 49.456205576037625,65.11835122837843 C 45.15447835620724,65.54394494696942 44.78755009048721,65.43498548775865 42.56866947319664,63.07309530461484 C 40.27151198240014,60.627883207862794 40.25176039865633,60.51292153044355 41.57492863644249,57.289148305981186 C 42.78992939435451,54.328914830598116 42.90236276692455,53.88834017152854 42.69926236214289,52.883401715285416 C 42.49616195736123,51.87846325904229 42.60587645528664,51.65701977744045 43.796407341397,50.66896689926702 C 44.98693822750735,49.680914021093585 45.41186270480226,49.649395241602846 48.045652114346076,50.35377910435969 L 50.972084791616986,51.13642784075617 L 48.99437288046679,52.243211071702774 C 47.21443216043161,53.23931597955472 47.09916125418407,53.432494587516906 47.841663817991346,54.17499715132469 C 48.584166381798624,54.91749971513247 48.75833333333279,55.025 49.583333333333044,55.25 C 50.4083333333333,55.475 50.642857142857146,55.5 51.92857142857146,55.5 C 53.21428571428577,55.5 53.513552840287524,55.65640998314461 54.92124268858899,57.06409983144613 C 56.32893253689046,58.471789679747644 56.66107539403332,58.61341560378367 58.24267126001753,58.48035907180643 C 59.82426712600175,58.347302539829194 60.3,58.44824018923643 63.0,59.48973556587883 C 65.7,60.53123094252124 66.34430970286245,60.59275854172475 69.44309702862452,60.10501155791391 C 72.5418843543866,59.617264574103075 73.11688435438658,59.314281340401365 75.19309702862452,57.07517922089683 C 77.26930970286246,54.83607710139229 77.5,54.49125691148609 77.5,53.62697732183479 C 77.5,52.762697732183476 77.38276935035859,52.62758978345286 76.32769350358586,52.27589783452862 C 75.27261765681313,51.92420588560437 75.39451222484703,51.56169483660605 77.5466391839249,48.650787344545385 C 79.69876614300274,45.73987985248472 79.96561184199714,45.00247828568834 80.21509617386879,41.2767716765816 C 80.46458050574043,37.551065067474866 80.69268593770653,36.9237976610031 82.49615049352975,35.00409761186391 C 84.29961504935298,33.08439756272473 84.5,32.752542679401586 84.5,31.685548778632413 C 84.5,30.61855487786324 84.275,30.5 82.25,30.5 C 80.225,30.5 80.125,30.441666666666666 81.25,29.916666666666664 C 82.375,29.391666666666666 82.5,29.191666666666666 82.5,27.916666666666664 C 82.5,26.641666666666666 82.60158844682594,26.5 83.51588446825946,26.5 C 84.43018048969297,26.5 84.50966876667216,26.20996142862751 84.31076723805134,23.599614286275067 C 84.11186570943052,20.989267143922625 84.2225217341488,20.539267143922626 85.41732748523405,19.099614286275067 C 86.61213323631931,17.659961428627508 86.68774762397395,17.5 86.17347136178043,17.5 C 85.65919509958691,17.5 85.74829263012903,17.15 87.06444666720162,14.0 C 88.38060070427423,10.85 88.5004980396404,10.5 88.26342002086338,10.5 C 88.02634200208634,10.5 87.65,10.458184873342429 84.5,10.081848733424287 C 81.35,9.705512593506144 80.725,9.557987678212514 78.25,8.606599580487991 C 75.775,7.655211482763466 75.5,7.4543590257420895 75.5,6.59807501027423 C 75.5,5.741790994806371 75.675,5.5893159101 77.25,5.073324163210526" fill="none" stroke="#000000" stroke-width="0.19122448299432843"/>
	<path d="M 98.9090909090909,15.0 C 101.1590909090909,12.75 101.56715473948516,12.5 102.98972921303346,12.5 C 104.41230368658174,12.5 104.46333076527839,12.7 103.5,14.5 C 102.53666923472161,16.3 102.54130680690403,16.5 103.54637572182432,16.5 C 104.5514446367446,16.5 104.4549630125934,16.836803398874988 102.58155948031231,19.868033988749893 C 100.70815594803123,22.899264578624802 100.5,23.45240305825867 100.5,25.399418785088606 C 100.5,27.346434511918538 100.65298011673565,27.62147357155324 102.02980116735648,28.149809381435617 C 103.4066222179773,28.678145191318 103.49755259675422,28.932350582866288 102.93910495512563,30.691863296918527 C 102.38065731349704,32.45137601097077 102.49450731363947,32.775498452442704 104.07760495655003,33.93308771163792 C 105.79224273938848,35.186861469506 105.78225489702947,35.30723400561542 103.68155563971808,38.7062368040869 C 101.74201361165878,41.84448172809578 101.59185016144737,42.25851682811415 102.17992113760396,42.846587804270605 C 102.76799211376054,43.43465878042706 103.02256836610432,43.5 104.7256836610417,43.5 C 106.42879895597908,43.5 106.56050109970616,43.59309016994375 106.0427050983125,44.4309016994375 C 105.52490909691882,45.26871322893124 105.56900739748133,45.42461492836873 106.48368810393754,45.98991869381244 C 107.39836881039375,46.55522245925615 107.5,46.79864642013227 107.5,48.42415830257367 C 107.5,50.049670185015074 107.3,50.48454141483579 105.5,52.772870600780834 C 103.7,55.06119978672588 103.5,55.47211764128284 103.5,56.88204914635051 C 103.5,58.291980651418186 103.20296443665524,58.60224276701098 100.52964436655233,59.984670302278495 C 97.85632429644943,61.36709783754601 97.45632429644944,61.71309170676024 96.52964436655233,63.444608994420754 C 95.60296443665523,65.17612628208127 95.5,65.43109554780887 95.5,65.9943016516966 C 95.5,66.55750775558434 95.775,66.5710132443402 98.25,66.12935653925511 C 100.725,65.68769983417003 101.33279499558643,65.51919565923218 104.32794995586423,64.44431478987661 C 107.32310491614201,63.369433920521054 107.90959577962337,63.365594285836806 110.19285859067784,64.40591844303412 C 112.4761214017323,65.44624260023144 112.91832640614587,65.50200369753499 114.61490863481362,64.9635294160696 C 116.31149086348137,64.42505513460424 116.5,64.4729421735733 116.5,65.44239980576019 C 116.5,66.41185743794708 116.275,66.69281578582591 114.25,68.25198328454847 C 112.225,69.81115078327103 111.62900552022055,70.36017203563931 108.29005520220551,73.74219580823122 C 104.95110488419047,77.12421958082312 104.4383493557347,77.5 103.1624999176477,77.5 C 101.88665047956067,77.5 101.63323880436337,77.63453077488374 100.62838316567469,78.84530774883739 C 99.62352752698601,80.05608472279103 99.44637863613647,80.53108472279104 98.85689425717932,83.59530774883739 C 98.26740987822217,86.65953077488373 98.06681603319892,87.07996901135714 96.8509558069468,87.79969011357137 C 95.63509558069468,88.51941121578561 95.5,88.82441121578557 95.5,90.84969011357097 C 95.5,92.87496901135637 95.61999999999996,93.21999999999923 96.6999999999996,94.2999999999996 C 97.82833270983534,95.42833270983608 97.76129723390656,95.5 95.57755528455743,95.5 C 93.35467818748667,95.5 93.30438412583051,95.55937100375233 94.40443113413133,96.88484656127157 C 95.49683976740991,98.20111843993458 95.42425615419702,98.30219443540581 92.93862533906399,98.92604805766675 C 90.39984324840121,99.56324180090027 90.35942871563643,99.62569567698071 91.5542501820778,101.06536747047397 C 92.66192626486496,102.40003550038924 92.72639180184186,102.60694153149048 92.19890555184685,103.13442778148644 C 91.67141930185184,103.6619140314824 91.05716923259311,103.75365457260308 86.05640485925953,104.05183319269338 C 81.05564048592595,104.35001181278366 80.5,104.26398563204289 80.5,103.19157138528573 C 80.5,102.11915713852858 80.50177074402997,101.88637837865876 80.51770744029974,100.86378378658756 C 80.53364413656954,99.84118919451635 80.37189839477482,99.66482041011548 78.90025002235265,99.1000959425788 C 77.34306489822835,98.5025479436436 77.38429711942192,98.37885217426432 79.76485259995584,96.50630696036812 C 82.01464329222088,94.73662134391517 82.53240646697542,94.4381773890888 84.94248434750118,93.52186741210451 C 87.35256222802694,92.60555743512022 87.56380719407251,92.41225920311102 87.05493400795694,91.58888509201259 C 86.54606082184138,90.76551098091416 86.10991672377315,90.60989151542383 82.6934930272747,90.03269043710935 C 79.06738055846522,89.42006266812638 78.84555553330348,89.2538275276623 77.73772524644122,86.31884997860566 C 76.65015396932966,83.43754467473815 76.45109827205584,83.27952536120513 74.53899189752524,83.77955241067124 C 72.70389918975252,84.25943993386912 72.5,84.24212273129099 72.5,83.60638038488989 C 72.5,82.97063803848877 72.62000000000002,82.77999999999977 73.70000000000013,81.69999999999987 C 74.78000000000023,80.61999999999999 74.83080970197607,80.5 74.20809701975847,80.5 C 73.58538433754089,80.5 73.67672923448505,80.0987830504664 75.12154598920014,76.48783050466396 C 76.56636274391525,72.87687795886153 76.6729743006912,72.26945670010976 76.18766155695954,70.41361791714621 C 75.70234881322789,68.55777913418268 75.84873579604835,68.15126420395165 77.65153138516403,66.34846861483597 C 79.45432697427972,64.54567302572028 79.60108327030693,64.20580207089536 79.11909434543603,62.94975906658685 C 78.63710542056512,61.69371606227835 78.81285402967471,61.27644794204298 80.87658043653188,58.77707786423315 C 82.94030684338905,56.27770778642331 83.29958948601967,55.67179353074291 84.46940686283799,52.71793530742911 C 85.63922423965629,49.76407708411531 85.70926212663088,49.37592879329744 85.16978573258382,48.836452399250476 C 84.63030933853675,48.296976005203504 84.68242355017483,48.02518247446059 85.69092784896466,46.11851709182136 C 86.69943214775448,44.211851709182135 86.84790383518708,43.807848434801755 87.17564472329065,42.07848434801752 C 87.50338561139422,40.34912026123328 87.66159373357775,40.01021774981252 88.75772594512591,38.68945923380984 C 89.85385815667406,37.368700717807165 89.94724839838267,37.005211142697505 89.69162836221201,35.054563482713206 C 89.43600832604137,33.1039158227289 89.60913931040989,32.63096923396655 91.42293820589708,30.32509759508973 C 93.23673710138428,28.0192259562129 93.3993171073354,27.455227016533794 93.04873826540846,24.685108198298657 C 92.69815942348151,21.91498938006352 92.71290904427791,21.401838480246635 93.19623447337247,19.55359920012981 C 93.67955990246703,17.70535992001298 93.86705413698043,17.5 95.07117681850644,17.5 C 96.27529950003246,17.5 96.6590909090909,17.25 98.9090909090909,15.0" fill="none" stroke="#000000" stroke-width="0.19122448299432843"/>
	<path d="M 167.76672642167864,29.25 C 170.67667264216786,27.675 171.2,27.5 173.0,27.5 C 174.96508372068746,27.5 174.95199011594525,27.539936621403147 172.25,29.787564550945174 C 169.775,31.846372646795828 169.5,32.29285427094703 169.5,34.252380792457174 C 169.5,36.21190731396732 169.3,36.53666923472161 167.5,37.5 C 165.7,38.46333076527839 165.5,38.68011960095769 165.5,39.66788835679293 C 165.5,40.65565711262817 165.28469903125907,40.952138736779375 163.34699031259066,42.63270459830493 C 161.40928159392223,44.31327045983049 161.10337989448473,44.5 160.2879733182157,44.5 C 159.47256674194668,44.5 159.43878683287957,44.59193802066517 159.95017422754478,45.41938020665171 C 160.46156162220996,46.246822392638244 160.36032046450458,46.496822392638244 158.93776265049115,47.91938020665171 C 157.5152048364777,49.34193802066517 157.21428571428572,49.5 155.92857142857144,49.5 C 154.64285714285714,49.5 154.5,49.65645600683848 154.5,51.06456006838485 C 154.5,52.47266412993122 154.1944910784675,52.886188945990156 151.444910784675,55.199808228974234 C 148.69533049088247,57.51342751195831 148.43607847424497,57.89103988306633 148.85239061829975,58.97593194005434 C 149.26870276235456,60.06082399704235 149.24921168388707,60.27729310648504 148.6574798336248,61.140623034481266 C 148.06574798336248,62.0039529624775 147.45719137653,62.38015886560109 142.57191376529997,64.90268206571724 C 137.68663615406993,67.4252052658334 136.98663615406994,67.78282986173627 135.57191376529997,68.47892802474595 C 134.15719137653,69.17502618775565 133.65,69.37247162319693 130.5,70.45338237915878 C 127.35,71.53429313512063 126.7,71.74056015835116 124.0,72.51605261146409 C 121.3,73.29154506457704 120.75,73.45077609546867 118.5,74.10836292038047 L 116.0,74.83901494806024 L 117.37244471544217,73.16950747403013 C 118.60764495934012,71.666950747403 118.88264495934013,71.5 120.12244471544217,71.5 C 121.36224447154422,71.5 121.7,71.3 123.5,69.5 C 125.3,67.7 125.5,67.56150099334839 125.5,68.11500993348395 C 125.5,68.6685188736195 125.75282456359378,68.56436285048635 128.02824563593776,67.0734497021524 C 130.30366670828178,65.58253655381846 130.6304435020636,65.46258452913698 131.29601357375606,65.87392945533762 C 131.9615836454485,66.28527438153827 132.42911542387367,66.093444256324 135.97133135800777,63.955628203195076 C 139.5135472921419,61.81781215006614 140.06756346383412,61.30126318139922 141.51149307493006,58.79013851652591 C 142.95542268602597,56.27901385165259 143.50958340679588,55.47075181176481 147.0531002826293,50.70751811764814 C 150.5966171584627,45.94428442353147 151.24082419298864,45.35363734013013 153.49517062788874,44.801047283634745 C 155.74951706278887,44.24845722713936 156.2,43.96799766409209 158.0,41.99645165316201 C 159.8,40.024905642231936 160.23850995919983,39.67980403904289 162.3850995919983,38.54543562127156 C 164.5316892247968,37.411067203500224 164.65157225079625,37.2117107914933 163.58392985199288,36.55187150120234 C 162.51628745318948,35.892032210911374 162.50445013615752,35.57778089750176 163.46555668167318,33.409358367106194 C 164.42666322718884,31.24093583671062 164.8567802011894,30.825 167.76672642167864,29.25" fill="none" stroke="#000000" stroke-width="0.19122448299432843"/>
	<path d="M 52.5,74.59176065057295 C 55.65,73.88894519366585 56.55,73.84379116086102 61.5,74.14022032252463 C 66.45,74.43664948418824 67.025,74.4961067548211 67.25,74.7347930288532 C 67.475,74.97347930288532 67.5,75.12186152036612 67.5,76.2186152036613 C 67.5,77.31536888695646 67.35064394325272,77.37991711074942 66.00643943252716,76.8640974415909 C 64.6622349218016,76.34827777243237 64.42122842985164,76.52641625206624 63.59637451302751,78.6454822379296 C 62.77152059620338,80.76454822379296 62.77743956403405,81.1 63.65556419133419,82.0 C 64.53368881863433,82.9 64.82294494646212,82.76608321195927 66.54812546961206,80.66083211959274 C 68.273305992762,78.55558102722621 68.58263327934594,78.36087775978199 69.64139833545148,78.7137994451505 C 70.70016339155703,79.066721130519 70.50528411192012,79.42563791855973 67.69260553908245,82.30296732555774 C 64.87992696624477,85.18029673255577 64.42854023539292,85.5 63.178738230563965,85.5 C 61.928936225735,85.5 61.537108058176436,85.19465455810845 59.260456554978276,82.44654558108454 C 56.983805051780124,79.6984366040606 56.519301584964644,79.37715617409597 54.6154218868235,79.23374128143817 C 52.71154218868235,79.09032638878038 52.5,79.00262692597951 52.5,78.3567466534295 C 52.5,77.71086638087947 52.275,77.5844410884894 50.25,77.09249372952888 C 48.225,76.60054637056837 48.05,76.48722461095093 48.5,75.95927613335459 C 48.95,75.43132765575824 49.35,75.29457610748007 52.5,74.59176065057295" fill="none" stroke="#000000" stroke-width="0.19122448299432843"/>
</svg>
