<?xml version="1.0" ?>
<svg baseProfile="full" height="600px" version="1.1" viewBox="41.24891116365426 -1.1921026364139697 41.29550221117677 68.02204245107639" width="365px" xmlns="http://www.w3.org/2000/svg" xmlns:ev="http://www.w3.org/2001/xml-events" xmlns:xlink="http://www.w3.org/1999/xlink">
	<defs/>
	<path d="M 48.0,5.102296703857309 C 49.7,4.590344505578596 51.30023187976463,4.5 58.668212531764205,4.5 C 66.03619318376379,4.5 67.57369318376378,4.591048320627649 68.9182125317642,5.106988804184326 C 70.26273187976463,5.622929287741003 70.5,5.837821137157443 70.5,6.539601133627258 C 70.5,7.241381130097073 70.2,7.460440960052985 68.5,8.0 C 66.8,8.539559039947015 66.5,8.843823918417643 66.5,10.028432523137521 C 66.5,11.213041127857398 66.82828421699482,11.727932977273838 68.68856144663212,13.461044852580454 C 70.54883867626944,15.194156727887068 71.28657055603406,15.5 73.60677397839635,15.5 C 75.92697740075863,15.5 76.57752169272818,15.592517457363623 77.94373592486,16.116783049090827 C 79.33668154963554,16.651306438645396 79.39794357444467,16.918044182678788 78.40307867765358,18.116783049090827 C 77.42730578539634,19.292517457363623 77.41057435290423,19.6875 78.29153579437283,20.75 C 79.17249723584145,21.8125 79.07836394315777,22.30312313725692 77.66398050981502,24.020820915046148 C 76.24959707647226,25.738518692835374 75.5958431899713,26.21900146241424 73.30562126647533,27.224039378905253 L 70.61124253295064,28.406436927718207 L 70.72725531141424,33.49957959098018 C 70.82586617310831,37.82875085475286 71.08002298313701,38.72558077145524 72.42163404493893,39.478445702329424 C 73.93178440689704,40.32588895934773 73.8811474104395,40.488321886322225 71.25,43.23680343632287 C 68.9125,45.67854257934313 68.5,46.354877343905635 68.5,47.74570186673958 C 68.5,49.136526389573525 68.63572267519909,49.4658472375672 69.4048178346606,49.94117418669744 C 70.1739129941221,50.41650113582767 70.23036339283665,51.13785368498391 69.7811538260909,54.75019118107238 C 69.33194425934514,58.36252867716086 69.10131978080199,59.18934967755728 68.24365730246987,60.262331183715226 C 67.38599482413775,61.33531268987317 67.06704442542322,61.38722078242523 66.11732131103957,60.60838513406233 C 65.16759819665593,59.82954948569944 64.625,59.625832756965764 62.5,59.25027360917119 C 60.21178982808753,58.8458697211061 60.02018020557658,58.6259425931661 60.238210278543704,56.654219658824076 C 60.44068901530585,54.82313294882361 60.25318901530585,54.5 58.988210278543704,54.5 C 57.72323154178156,54.5 57.5,54.275 57.5,53.0 C 57.5,51.725 57.217494704594145,51.5 55.61663136396096,51.5 C 54.01576802332779,51.5 53.65241145956311,51.1908242748411 53.194254272196474,49.43882849894065 C 52.73609708482983,47.68683272304021 52.8837410967814,47.289975131800986 54.17854768520694,46.79311122401249 C 55.47335427363248,46.296247316224004 55.81796083739716,46.39643745325009 56.47592477697144,47.46104547085305 C 57.13388871654572,48.525653488456015 57.35260254915624,48.54751107969524 57.93401699437494,47.60676274578121 C 58.51543143959365,46.66601441186718 58.45032889043741,46.5 57.5,46.5 C 56.54967110956259,46.5 56.47467110956259,46.35 57.0,45.5 C 57.52532889043741,44.65 57.30918143959365,44.5 55.55901699437494,44.5 C 53.80885254915624,44.5 53.5,44.367251490022596 53.5,43.615009933483975 C 53.5,42.86276837694535 53.875,42.484310429967216 56.0,41.09195695362974 C 58.125,39.699603477292264 58.5,39.2178749816518 58.5,37.880433649359986 C 58.5,36.468931720128076 57.98534306095954,36.34264036057747 53.5,36.653486629214214 C 49.25,36.948022994382136 48.5,36.917500000000004 48.5,36.45000000000003 C 48.5,35.98250000000005 48.67999999999999,35.72000000000005 49.699999999999974,34.70000000000003 C 50.719999999999956,33.68000000000001 51.46114745084372,33.5 54.64098300562503,33.5 C 57.820818560406344,33.5 58.480839229968346,33.34001977153679 59.041120802705024,32.4334651435786 C 59.601402375441694,31.52691051562041 59.44670994495293,31.181518557604484 58.00983793277989,30.13085209013908 C 56.442776442914884,28.984988752340787 56.435467910746006,28.798446308127797 57.90970013569992,27.5749422311183 C 59.26145502035499,26.453085318416047 59.5,26.123477276431977 59.5,25.377555284557825 C 59.5,24.631633292683674 59.275,24.5 58.0,24.5 C 56.725,24.5 56.5,24.125 56.5,22.0 C 56.5,19.875 56.275,19.5 55.0,19.5 C 53.725,19.5 53.5,19.257505295405853 53.5,17.883368636039016 C 53.5,16.509231976672176 53.22347781969773,16.33904944663603 51.65651879798483,16.748818435798025 C 50.08955977627194,17.15858742496002 49.61521409406715,16.91358212955417 48.49421424995286,15.115449799759011 C 47.37321440583858,13.317317469963852 47.18921253137134,12.925 47.26753508683789,12.5 C 47.34585764230444,12.075 47.13123863715293,11.646464687356303 45.836741719161175,9.643097915708683 C 44.54224480116942,7.639731144061064 44.44026885593894,7.1675756496396605 45.15690208429132,6.495394619565992 C 45.873535312643696,5.823213589492325 46.3,5.614248902136023 48.0,5.102296703857309" fill="none" stroke="#000000" stroke-width="0.05663783717824845"/>
</svg>
