<?xml version="1.0" ?>
<svg baseProfile="full" height="203px" version="1.1" viewBox="-5.15800000000001 0.5419999999999998 139.31600000000006 46.916" width="600px" xmlns="http://www.w3.org/2000/svg" xmlns:ev="http://www.w3.org/2001/xml-events" xmlns:xlink="http://www.w3.org/1999/xlink">
	<defs/>
	<path d="M 91.47378594328343,5.82459531442781 C 93.62106789149252,4.698689297164171 95.8,4.5 106.0,4.5 C 116.2,4.5 118.3375,4.5924947045941495 120.25,5.116631363960996 C 122.1625,5.640768023327844 122.5,5.864587578589012 122.5,6.608761732368784 C 122.5,7.352935886148556 121.9375,7.802559445029619 118.75,9.606252124909211 C 115.5625,11.409944804788802 114.62920408260598,11.898625249527635 112.52802721737325,12.864121756501424 C 110.42685035214052,13.829618263475213 109.69244694311526,14.3375 107.63200449053812,16.25 C 105.57156203796097,18.1625 105.00485795535499,18.5 103.85397727316486,18.5 C 102.70309659097472,18.5 102.5,18.642366308033928 102.5,19.449108720226178 C 102.5,20.255851132418428 101.98214211665741,20.79320690403761 99.0476141110494,23.03148053102072 L 95.59522822209878,25.664743621589082 L 90.05128379960236,24.42406322618519 C 85.04065898644681,23.30273452938576 84.33106409313035,23.342909770286983 82.6749290169689,24.84169141539065 C 81.11738021085243,26.251253712308596 80.62791177588518,26.5 79.41180611718725,26.5 C 78.19570045848933,26.5 77.79374047668666,26.8 76.7320729051695,28.5 C 75.67040533365234,30.2 75.07182331533664,30.5 72.74152611639818,30.5 C 70.41122891745972,30.5 69.325,30.73732174625283 65.5,32.082144975018885 C 61.675,33.42696820378494 60.25,33.58068749727426 56.0,33.10694026494774 C 51.75,32.63319303262121 50.33388960517475,32.680961942936264 46.55926403449833,33.42539966704815 C 42.784638463821906,34.16983739116003 41.9431020740296,34.5411180976707 40.94902143588294,35.90060437711929 C 39.95494079773627,37.2600906565679 39.346051192561525,37.5 36.88975740138461,37.5 C 34.43346361020769,37.5 33.20199299080723,37.78050700919275 28.679953272048195,39.37004672795169 C 24.15791355328916,40.95958644671063 23.19041355328918,41.40958644671063 22.229953272048316,42.37004672795169 C 21.269492990807453,43.33050700919275 20.342500000000225,43.5 16.05000000000012,43.5 C 11.757500000000018,43.5 10.6625,43.40750529540584 8.75,42.88336863603895 C 6.8375,42.359231976672056 6.5,42.134231976672055 6.5,41.38336863603895 C 6.5,40.63250529540584 6.854771196229795,40.5 8.865141308198634,40.5 C 10.875511420167472,40.5 11.6116708140548,40.2 13.772870600780827,38.5 C 15.934070387506852,36.8 16.610980598076186,36.5 18.285605337909708,36.5 C 19.960230077743233,36.5 20.836570683855903,36.25756083374492 24.12787604532752,34.8837388916328 C 27.41918140679913,33.509916949520694 28.119953517035672,33.05991694952069 28.79969011357115,31.883738891632806 C 29.479426710106626,30.70756083374492 29.929426710106625,30.5 31.79969011357115,30.5 C 33.66995351703567,30.5 34.161082756992315,30.3875 35.07388504661544,29.75 C 35.98668733623856,29.1125 36.16667312557312,28.63849658674611 36.27379030884584,26.589977244974072 C 36.38090749211856,24.54145790320203 36.57271167454385,24.073095702502876 37.55248485834774,23.46756257364637 C 38.53225804215164,22.86202944478986 39.673803382071014,22.655930149306077 45.16278712447693,22.093567270421126 C 50.65177086688284,21.53120439153617 52.11075081292965,21.523951425850374 54.88932009812238,22.045214165849135 C 57.83650182190188,22.598108789999205 58.45531255958356,22.408481865284283 61.17681444271308,20.11848900721022 C 63.74261535042244,17.95950988236838 64.7976831426484,17.44319037106296 68.21059972421942,16.67635893184077 C 71.62351630579045,15.909527492618578 72.54636102484791,15.453638975152092 74.36289785126914,13.637102148730861 C 76.17943467769037,11.82056532230963 76.70406797395171,11.5 77.86045315967809,11.5 C 79.01683834540448,11.5 79.78365784445512,11.118106499683549 82.97258315334908,8.95404333122366 C 86.16150846224303,6.789980162763772 86.89100837978384,6.463669459927943 87.83591593695442,6.778638645651471 C 88.780823494125,7.093607831374998 89.32650399507435,6.950501331691449 91.47378594328343,5.82459531442781" fill="none" stroke="#000000" stroke-width="0.11600000000000006"/>
</svg>
