<?xml version="1.0" ?>
<svg baseProfile="full" height="600px" version="1.1" viewBox="18.11076674797517 -10.147171896653688 173.59592497258836 176.40913534564393" width="591px" xmlns="http://www.w3.org/2000/svg" xmlns:ev="http://www.w3.org/2001/xml-events" xmlns:xlink="http://www.w3.org/1999/xlink">
	<defs/>
	<path d="M 46.5,5.0888373281435975 C 47.775,4.569349057065655 54.2605751411532,4.516849057065655 89.73716760768802,4.738837328143598 C 126.33927272090679,4.967868288193132 131.58739860605087,5.184549987054825 132.39330079602314,6.5 C 133.1744215395732,7.775 133.62634639842,8.360451453111402 135.40613318833513,10.403009687409353 C 137.18591997825027,12.445567921707305 137.5,12.953782159189455 137.5,13.79110460395703 C 137.5,14.628427048724605 138.4375,14.680879118667395 143.75,14.140785070242298 C 149.0625,13.600691021817202 150.2067172942406,13.638206274503801 151.37811529493746,14.390886754819633 C 152.5495132956343,15.143567235135464 152.6606346123463,15.431070743079053 152.11892407301764,16.30757680777689 C 151.57721353368896,17.18408287247473 151.70799623944833,17.565139096591658 152.99080877808018,18.847951635223083 C 154.27362131671202,20.130764173854512 154.5,20.582748992273167 154.5,21.861183758014135 C 154.5,23.139618523755104 154.80765381745945,23.462870187347306 156.55102544972965,24.01619484862882 C 158.29439708199988,24.569519509910336 159.03674326454043,25.092090282616013 161.5,27.5 C 163.96325673545957,29.907909717383987 164.69993701524314,30.428682202412016 166.4112018652237,30.97181656685354 C 168.12246671520427,31.51495093129507 168.72025931455033,31.45248830917295 170.39648586086403,30.555399086039433 C 172.07271240717773,29.658309862905917 172.52837830993474,29.5 173.43425854591067,29.5 C 174.3401387818866,29.5 174.5,29.770000000000056 174.5,31.300000000000377 C 174.5,32.830000000000695 174.63071489481973,33.242500000000696 175.37143263213164,34.05000000000038 C 176.11215036944355,34.85750000000006 176.3385020308494,35.40649904899541 176.88044370817076,37.70999365996936 C 177.45302882253804,40.14373658926035 177.31112130788003,40.53071729137106 175.48834434944388,41.506237914872244 C 173.76311821720466,42.42955092056574 173.29499604596754,42.49133457732972 172.36752987452977,41.91812895996543 C 171.440063703092,41.34492334260115 171.17830054786023,41.37548670436571 170.62244217298468,42.12188470506255 C 170.0665837981091,42.868282705759384 169.67085430794035,43.17899911021796 167.98424557185965,44.19332740145304 C 166.28903370170536,45.21282962668802 166.0439470096852,45.818557276101394 166.30170066275963,48.35170892931608 C 166.55814622610535,50.87200493676458 166.37064622610535,51.873824419747535 165.05170066275963,55.03050548253576 C 163.73275509941394,58.18718654532398 163.5,58.817190520625736 163.5,59.23053198454747 C 163.5,59.64387344846921 163.9125,59.613500290998914 166.25,59.028044268078865 L 169.0,58.33927247640822 L 166.14076127054324,61.33837576386776 C 163.71040835050502,63.88761355820837 163.37984498874044,64.49656811348848 163.93700552544612,65.39807279906842 C 164.49416606215183,66.29957748464835 164.4129168162158,66.7992665557988 163.3953438858727,68.72933327340476 C 162.37777095552963,70.65939999101072 161.97084339772059,71.26442575603218 160.68249350047918,72.76283837354785 C 159.39414360323778,74.26125099106353 159.12726447744842,74.89637903436027 158.90329932855025,76.99702532885934 C 158.67933417965207,79.09767162335842 158.77932509922567,79.55459841648249 159.5699054590409,80.04320394968644 C 160.36048581885615,80.53180948289038 160.5,80.73440436446892 160.5,81.39383649354332 C 160.5,82.05326862261774 159.2662585267421,83.2069160734615 152.27505684494724,89.08481949916838 C 145.28385516315242,94.96272292487525 143.8588551631524,96.19821428571429 142.77505684494724,97.32142857142856 C 141.69125852674208,98.44464285714284 141.5,98.78214285714284 141.5,99.57142857142856 C 141.5,100.36071428571428 141.72077432971898,100.5 142.97182886479322,100.5 C 144.2388152159733,100.5 144.39383226051774,101.02190811338464 144.08565312261481,104.25 C 143.78134920668893,107.4375 143.47044346503358,108.6 142.01294817824592,112.0 C 140.55545289145826,115.4 140.22981357520536,116.10069703273896 139.84201940322663,116.67131355159313 C 139.45422523124788,117.24193007044728 139.69435664318422,117.26193536585319 141.44289548280227,116.80468218763255 C 143.19143432242035,116.3474290094119 143.5,116.44827491893948 143.5,117.47698825114972 C 143.5,118.50570158335995 143.21893532965478,118.76073929260922 141.6262355310319,119.17723964614484 C 140.03353573240906,119.59373999968047 139.40168973309179,120.14219705741391 137.4139288689168,122.83362003103454 C 135.42616800474178,125.52504300465519 135.04550525327647,126.1875 134.8761771924815,127.25 C 134.7068491316865,128.3125 134.82355634911715,128.5 135.65422530868597,128.5 C 136.48489426825478,128.5 136.92993751515934,128.34027194169803 138.62118028804983,127.43514627798683 C 140.31242306094032,126.53002061427564 140.7699840732898,126.42332802442994 141.67158703704638,126.72386234568212 C 142.57319000080295,127.02439666693431 142.07737417570888,127.748815269347 138.36614820308588,131.55331969510004 C 134.6549222304629,135.35782412085308 133.95903922472698,136.39402972359315 133.72692816484647,138.46135704670047 C 133.49481710496593,140.52868436980776 133.23231710496594,141.13830492643467 131.97692816484647,142.52549409087976 C 130.72153922472697,143.91268325532488 130.5,144.37817024243054 130.5,145.62874067158407 C 130.5,146.87931110073762 130.32,147.28000000000003 129.3,148.3 C 128.28000000000003,149.32 128.28885254915625,149.5 129.35901699437494,149.5 C 130.42918143959363,149.5 130.5253288904374,149.65 130.0,150.5 C 129.4746711095626,151.35 128.71581856040635,151.5 124.94098300562506,151.5 C 121.16614745084375,151.5 120.5,151.4029487849394 120.5,150.85299189959613 C 120.5,150.30303501425288 121.0343641409753,149.55386278720448 124.06242760650198,145.85851038594012 C 127.09049107202867,142.1631579846758 127.52757758748994,141.35363846826138 126.97633770957711,140.46171360984408 C 126.42509783166426,139.56978875142678 126.51023254786008,139.19259682135402 127.54390248421589,137.94710074269244 C 128.5775724205717,136.70160466403084 128.81683746513428,135.50817539550582 129.13900278129995,129.99090561919235 L 129.5180208003184,123.5 L 127.0090104001592,123.5 C 124.87635156002388,123.5 124.5,123.65099201398638 124.5,124.50661342657588 C 124.5,125.36223483916537 124.13631320315905,125.82944845378131 122.07542135439363,127.62137085734886 C 120.01452950562819,129.4132932609164 119.72206350791961,129.91511328901038 120.1256480363364,130.96683771130876 C 120.5292325647532,132.0185621336071 120.20615574649563,132.46251428261718 117.97180258128591,133.92651870470922 C 115.7374494160762,135.3905231268013 115.42287754433865,135.85663881116923 115.87465676970226,137.0339566004955 C 116.32643599506586,138.21127438982174 115.9631996101644,138.83712151287085 113.45308087035913,141.20627075415624 C 110.94296213055387,143.57541999544162 110.5,144.14399226899332 110.5,144.99675257783423 C 110.5,145.84951288667514 109.98301432069914,146.4125 107.05342880466092,148.75 C 103.65943247499112,151.45805080690454 103.4759897191517,151.5 95.02774865842933,151.5 L 86.44863970753681,151.5 L 88.0,148.5 C 89.31865624859371,145.95 89.69146976438532,145.5 90.48542343861075,145.5 C 91.27937711283617,145.5 91.38802509090144,145.05 91.20974329237916,142.5 C 91.03146149385687,139.95 90.79413329268367,139.5 89.62755528455783,139.5 C 88.46097727643199,139.5 88.43765838791461,139.28004333444787 89.47209602777531,138.0336222296524 C 90.50653366763599,136.78720112485695 90.61595160724899,136.37470112485695 90.20154895852853,135.2836222296524 C 89.78714630980808,134.19254333444786 89.86083928118612,133.72330577424674 90.69283543438212,132.1553718283116 L 91.6716544381421,130.31074365662317 L 89.48710695333536,131.00409209404728 L 87.30255946852861,131.6974405314714 L 88.04626717981955,129.3487202657357 C 88.67841873441684,127.35230803986035 88.821966691304,126.775 89.00325355906728,125.5 C 89.18454042683055,124.225 89.46279230999727,123.51994898903263 90.85826611351203,120.7996599268842 C 92.2537399170268,118.07937086473578 92.5,117.52157858418663 92.5,117.08104472322317 C 92.5,116.64051086225972 92.30353391471041,116.63816070341015 91.19022609806942,117.06537699755934 C 90.07691828142842,117.49259329170853 89.44540648955847,118.31288557225768 86.980147485603,122.53399220122037 C 84.51488848164753,126.75509883018306 83.98635456693728,127.5 83.45658805420138,127.5 C 82.92682154146547,127.5 82.7393157077812,127.40598237444593 82.20654916297295,126.87321582963948 C 81.67378261816468,126.34044928483303 81.78236141718963,125.85294928483303 82.93040782313929,123.62321582963948 C 84.07845422908895,121.39348237444592 84.21747612071813,120.83501279822487 83.85722043400051,119.90008532149906 C 83.49696474728289,118.96515784477327 83.6544698082011,118.61669087647084 84.90725417345524,117.5769721994828 C 86.1600385387094,116.53725352249475 86.29885099616664,116.13938903498789 85.83267055650344,114.92454228277037 C 85.36649011684027,113.70969553055286 85.63790625689694,113.20569270901849 87.64211149021456,111.56452347254114 C 89.8071335437108,109.79166731418684 89.87730561337689,109.58656263283531 88.5,109.05701656456542 C 87.225,108.56680492926341 87.02082430476341,107.99427471910023 87.13882869842271,105.24014849681095 C 87.256833092082,102.48602227452164 87.18744497502027,101.85022766817876 86.67624125134449,101.0015177878584 C 86.16503752766872,100.15280790753805 86.02946210561988,98.57780790753804 85.77240510435232,90.5015177878584 C 85.51534810308473,82.42522766817876 85.39437841591423,80.6625 84.96594052321558,78.75 C 84.53750263051693,76.8375 84.31475374780236,76.5 83.48094797178506,76.5 C 82.64714219576776,76.5 82.5,76.73157551410911 82.5,78.04383676072743 C 82.5,79.35609800734574 82.25178380632477,79.54359800734574 80.84522537549849,79.29383676072743 C 79.4386669446722,79.04407551410911 79.12730519922721,79.3 78.76948040586521,81.0 C 78.41165561250322,82.7 78.12929658416421,83.4844182766449 76.88708688360515,86.22945517763273 C 75.64487718304609,88.97449207862054 75.52898319949038,90.23777081599088 76.11446032656701,94.65131342676841 L 76.80325694665716,99.84371649827139 L 78.41183456967511,97.9218582491357 C 79.77912554924036,96.28827873737035 80.25520574110507,95.8158570590359 81.58570251543978,94.77238039357269 C 83.07123060298001,93.60731639256183 83.13439354245767,94.01497104446828 82.82524072126691,102.77238039357269 C 82.54835142188524,110.6158570590359 82.49271156947698,112.225 82.45430837187843,113.5 C 82.41590517427987,114.775 82.1569532834678,115.88120281093502 80.72796243313135,120.87468540623347 C 79.18715582689356,126.25889830665739 78.83612033605405,126.83982329769493 76.5233983634266,127.83277485373807 C 74.37850975451398,128.75366828881855 73.8125,129.09925119216928 72.75,130.1366608760763 C 71.6875,131.17407055998333 71.5,131.50381420059117 71.5,132.33495181346177 C 71.5,133.16608942633235 71.81260755851325,133.2310120568391 73.58405039008838,132.76776935017324 C 75.64836901182348,132.22793790390352 75.6389010217753,132.27749703829588 72.58405039008838,138.00215744523217 C 69.96260755851326,142.91463003269814 69.5,144.1171258788733 69.5,146.01879641973326 C 69.5,147.92046696059322 69.8375,148.49935168860085 71.75,149.87802793978426 C 73.96895852747085,151.4776229328221 73.81041901979964,151.5 60.258473883602335,151.5 C 47.22169318598611,151.5 46.456158016598785,151.40266013693702 45.331634711882785,149.60201210990573 C 44.23953049857909,147.853275299605 43.95022212948594,147.79337314374754 41.65257401898067,148.84025168200634 C 39.532888527037464,149.80604502487205 39.0969144027954,149.79074320838617 38.74607985736688,148.73823957210064 C 38.39524531193837,147.6857359358151 38.02978501270567,147.5 36.30967786248226,147.5 C 34.550472453963664,147.5 34.359790791755785,147.30776263076933 34.850521507915715,146.02893888352895 C 35.33034575675757,144.77853693452855 35.22948231267935,144.36603693452855 34.17809854739424,143.27893888352895 C 33.126714782109126,142.19184083252935 32.90808823529414,141.8125 32.7205882352943,140.75 C 32.53308823529447,139.6875 32.63163329268403,139.5 33.377555284558014,139.5 C 34.123477276432006,139.5 34.441843983748306,139.725 35.5,141.0 C 36.558156016251694,142.275 36.87652272356802,142.5 37.62244471544217,142.5 C 38.368366707316326,142.5 38.5,142.35584327211285 38.5,141.53895514741907 C 38.5,140.7220670227253 38.1717157830051,140.2720670227253 36.31143855336734,138.53895514741907 L 34.122877106734684,136.5 L 36.18899383792517,136.5 C 37.94519305943708,136.5 38.43639076097071,136.281570731475 39.46364518148271,135.0438048764999 C 40.49089960199471,133.8060390215248 40.57475900081409,133.4299795986571 40.022707840278564,132.53674205738182 C 39.47065667974304,131.64350451610653 39.60783928167691,131.39584859216475 40.93725851983772,130.8857025644367 C 42.26667775799853,130.37555653670864 42.7927505017355,129.62661595957636 44.444410144750854,125.89276538355479 C 46.35540161017598,121.57265220883119 46.433951549114994,121.5 49.193769568266816,121.5 C 51.579065435240025,121.5 52.2625,121.70403638979234 53.75,122.86024259861557 C 55.2375,124.01644880743879 55.5,124.39144880743879 55.5,125.36024259861557 C 55.5,126.32903638979234 55.283852549156244,126.5 54.05901699437494,126.5 C 52.83418143959365,126.5 52.52161311357224,126.65601225326245 51.97522815423225,127.5400816884163 C 51.42884319489225,128.42415112357014 51.757490645736006,128.47684113993 54.1662111598573,127.89134846414859 C 56.5749316739786,127.30585578836718 57.13869198618313,126.96234353510474 57.92461324122088,125.60126677573228 C 58.71053449625863,124.24019001635985 58.87612850004669,123.925 59.028573266474595,123.5 C 59.18101803290251,123.075 59.47442872856401,122.4 60.98464457088461,119.0 C 62.49486041320521,115.6 62.89176640941715,114.73953532666572 63.63068454563089,113.26356884443811 C 64.36960268184464,111.78760236221049 64.5,111.25510236221055 64.5,109.71356884443851 C 64.5,108.17203532666647 64.67024198052681,107.72975801947389 65.6349465368454,106.76505346315464 C 66.59965109316401,105.8003489068354 66.81010908610254,104.49534890683533 67.03799982310227,98.06505346315424 C 67.26589056010201,91.63475801947314 67.19847702542016,90.5 66.58857625855666,90.5 C 65.97867549169315,90.5 65.54321749875461,89.88582488841398 63.68552297229979,86.40549925609321 C 61.82782844584497,82.92517362377242 61.5,82.10017362377242 61.5,80.90549925609321 C 61.5,79.71082488841398 61.28361263946491,79.5 60.05741759643275,79.5 C 58.831222553400586,79.5 58.67491758197515,79.18801724354493 59.01538445359651,77.42011495696624 C 59.35585132521788,75.65221267038757 59.507346836336524,75.05221267038756 60.025354527720836,73.42011495696624 C 60.54336221910514,71.78801724354494 60.76455903994702,71.5 61.5,71.5 C 62.23544096005298,71.5 62.46314845364342,71.80853055692329 63.01804995726957,73.55687037948854 C 63.572951460895716,75.30521020205381 63.91008094004327,75.56767395333034 65.26557981825326,75.306628721332 C 66.62107869646323,75.04558348933367 66.9009185740653,74.47455293241039 67.131179002267,71.49975834184346 C 67.3614394304687,68.52496375127652 67.61035296093519,67.22056533101805 68.79060253871015,62.80376887345365 C 69.9708521164851,58.38697241588925 69.97819659470903,57.036972415889245 68.83956572686975,53.80376887345365 C 67.70093485903047,50.570565331018045 67.5,49.8125 67.5,48.75 C 67.5,47.6875 67.72378544703625,47.5 68.99190298024166,47.5 C 70.31372431942748,47.5 70.29143641273164,47.01922117048976 68.79640043089857,43.28275842042232 C 67.36210573075155,39.69810307778129 66.81023233363898,38.72190969624317 65.11724445014815,36.77480254350155 C 63.42425656665733,34.82769539075992 62.88646015373989,34.5599546414843 61.531935030698534,34.989864214997425 C 60.17740990765718,35.41977378851055 59.72238397472507,35.19596717004866 58.498428811151165,33.4978200919182 C 57.27447364757726,31.79967301378773 56.79534544289616,31.5 55.30424077994387,31.5 C 53.67240714604742,31.5 53.59420896692414,31.278955165379273 54.183567362051576,28.33216318974209 C 54.800502107146364,25.24748946426818 54.77164289131154,25.18178323367025 53.08426607381547,25.82929047293456 C 51.611327721070936,26.394509952367383 51.12682833104892,26.26968547390607 49.85427014033533,24.99712728319247 C 48.581711949621734,23.72456909247887 48.030357142857156,23.5 46.17857142857143,23.5 C 44.32678571428571,23.5 43.77895898033751,23.357917960675007 42.52639320225002,22.55278640450004 C 41.27382742416253,21.747654848325077 40.940395634210645,21.785154848325078 40.30351460257076,22.80278640450004 C 39.66663357093087,23.820417960675005 39.28767459059336,23.82714201442136 37.77712140032074,22.847613429475714 C 36.26656821004811,21.868084844530074 35.95433560941228,21.39789397745728 35.69557072941522,19.7130076489904 C 35.43680584941816,18.02812132052352 35.74428783098561,17.450979306102166 37.745450606531605,15.865394219514684 C 39.746613382077605,14.279809132927202 40.044471401468996,13.741094582227829 39.73117073580757,12.273963881518856 C 39.41787007014614,10.806833180809882 39.046058482784275,10.581833180809882 37.252426820061814,10.773963881518856 C 35.45879515733935,10.966094582227829 35.131601528535676,10.775470681483666 35.071135961370636,9.503137876557771 C 35.0106703942056,8.230805071631876 35.45,7.960044634897038 38.0,7.698068298325516 C 40.55,7.436091961753995 41.3,7.2631212802703295 43.0,6.544930421767745 C 44.7,5.8267395632651615 45.225,5.60832559922154 46.5,5.0888373281435975" fill="none" stroke="#000000" stroke-width="0.14688520844766356"/>
</svg>
