<?xml version="1.0" ?>
<svg baseProfile="full" height="563px" version="1.1" viewBox="-5.600683787376386 -17.310420686944337 265.2304900402911 248.62084137388868" width="600px" xmlns="http://www.w3.org/2000/svg" xmlns:ev="http://www.w3.org/2001/xml-events" xmlns:xlink="http://www.w3.org/1999/xlink">
	<defs/>
	<path d="M 92.25,7.441491786027426 L 96.0,3.5 L 127.25,3.5 C 153.8125,3.5 158.5,3.65 158.5,4.5 C 158.5,5.35 158.6967912260534,5.5 159.8119415070227,5.5 C 160.92709178799203,5.5 161.452091787992,5.943926123880059 163.3119415070227,8.459507492533731 C 165.17179122605341,10.975088861187404 165.5,11.656907043005583 165.5,13.00496203798827 C 165.5,14.353017032970955 165.86818181818182,14.959090909090895 167.95454545454544,17.04545454545454 C 170.04090909090903,19.131818181818183 170.56590909090903,19.5 171.45454545454544,19.5 C 172.34318181818182,19.5 172.5,19.614614996104283 172.5,20.264099974028547 C 172.5,20.91358495195281 173.1,21.28813915553687 176.5,22.761127997922273 C 179.9,24.234116840307678 180.5,24.6820018442034 180.5,25.747028023893726 C 180.5,26.812054203584058 180.85518199501323,27.39782475129673 182.86787996675486,29.652165008644875 L 185.23575993350968,32.30433001728975 L 195.5107032178081,32.65216500864487 C 204.24440500946176,32.94782475129673 205.85172301444854,33.1875 206.2261565843866,34.25 C 206.60059015432464,35.3125 207.02916666666667,35.5 209.08333333333331,35.5 C 211.1375,35.5 211.5,35.65 211.5,36.5 C 211.5,37.35 211.8,37.5 213.5,37.5 C 215.2,37.5 215.5,37.65 215.5,38.5 C 215.5,39.35 216.00625,39.5 218.875,39.5 C 221.74375,39.5 222.7269722368639,39.59539444737278 225.42981491242602,40.13596298248521 C 228.13265758798818,40.67653151759763 228.53295867991872,40.97172776591789 228.09848885862965,42.103937971286925 C 227.66401903734058,43.23614817665595 227.73736753195166,43.528667213821905 228.58747882270353,44.0540648857266 C 229.43759011345537,44.579462557631295 229.8174713319729,44.481411627029765 231.12002027948722,43.400392015049704 C 232.42256922700153,42.31937240306964 232.75349849552657,42.280164891840116 233.32621540298732,43.139008606852826 C 233.8989323104481,43.99785232186554 234.28169500697206,44.25336509999185 235.87796671314712,44.842427127694954 C 237.6132864507556,45.48280116890267 237.70515262381414,45.818938508736494 237.08739729810503,49.26772063896695 C 236.5191415891442,52.44015809584504 236.3265357049913,53.51082126696043 235.80335807041922,56.40547511306952 C 235.27299323371437,59.339894539588535 235.36258553415158,59.70296079919013 236.45106142731055,59.03024570128299 C 237.55112245619964,58.350370595730354 237.61710146726588,58.555685445553834 236.9619253481861,60.619962605185876 C 236.3224341930006,62.63482081963096 236.22049866933574,63.3743087879163 236.28235519042033,65.5498823937548 C 236.34421171150495,67.72545599959331 236.06599300055444,68.28994827958778 234.42756378408347,69.31316426038458 C 232.7891345676125,70.33638024118139 232.5,70.36567668466402 232.5,69.50847388360218 C 232.5,68.65127108254033 232.36010815058356,68.5 231.56738767055708,68.5 C 230.77466719053058,68.5 230.55018724961425,68.7665134765677 230.0708547311149,70.27675651045126 C 229.56761887301587,71.86231229847466 229.10300323122797,72.01499201555026 225.75335605264843,71.6955517842518 L 221.9997779841812,71.33759054760107 L 220.84039984269825,74.40913395679797 C 219.85492842243772,77.01994585461534 219.31214357903133,77.6209245780786 217.22183421998892,78.41565877988639 C 215.1315248609465,79.21039298169417 214.4468904491375,79.75205926777501 212.65760480792886,82.02676735375866 C 210.86831916672023,84.30147543974232 210.45414344693975,85.22751517950307 209.89643334272563,88.20036561883032 C 209.32036633461234,91.27106676842641 209.13733837832146,91.53323841502822 208.39648007678176,90.3489183619606 C 207.64712642140682,89.15101782004096 207.47973706148227,89.36385294245663 206.9013281726037,92.25 C 206.34769922589055,95.0125 206.04375,95.5 204.875,95.5 C 203.70625,95.5 203.5,95.16407607784919 203.5,93.26050718566124 C 203.5,91.35693829347329 203.2375,90.38134224621001 201.75,86.7565335372393 C 200.05181277874217,82.61831247567416 199.90344924990217,82.4740103288424 196.73895481437103,81.88266336300579 C 193.96706640658638,81.364682423878 193.39571385743014,81.14027847114129 192.92993781999607,80.38663701142772 C 192.464161782562,79.63299555171416 192.18063494100932,79.5 191.0397588763115,79.5 C 189.8988828116137,79.5 189.38273536076994,80.03357402726428 187.59877587068644,83.0571601817619 C 185.81481638060296,86.08074633625951 185.5,87.0307463362595 185.5,89.39049351509522 C 185.5,91.75024069393093 185.40831737776415,92.25834928890251 184.8887825184276,92.77788414823905 C 184.36924765909103,93.2974190075756 183.92898805035668,92.97484141855074 181.9537184601985,90.62736688807331 C 179.97844887004035,88.2798923575959 179.528870287795,87.46320973536004 178.9565279118961,85.18281607316759 C 178.38418553599723,82.90242241097513 178.05839682410397,82.5 176.78460316594095,82.5 C 175.51080950777794,82.5 175.36038420230665,82.30621622766279 175.78176779613244,81.20810818441858 C 176.20315138995826,80.11000014117437 176.06919971058588,79.63133069590866 174.8887566003167,78.01697854931382 C 173.70831349004752,76.402626402719 173.5,75.85499510594647 173.5,74.36610323749694 C 173.5,72.87721136904742 172.62324390814524,70.85629650394219 167.6549593876349,60.89333747012874 L 161.80991877526984,49.172209195054094 L 160.6549593876349,52.485327862753806 C 159.67324390814522,55.30147873029856 159.5,56.4510630406695 159.5,60.14922326522676 C 159.5,63.847383489784015 159.35,64.5 158.5,64.5 C 157.65,64.5 157.5,64.36702490384899 157.5,63.61349935899321 C 157.5,62.85997381413744 157.0532669291404,62.66143222503806 154.52177952760263,62.28988876499736 L 151.54355905520524,61.85277881200828 L 149.94141284568434,66.67638940600415 C 148.57958856759154,70.77645841090062 148.1804279955817,71.5 147.28034236561865,71.5 C 146.38025673565556,71.5 146.30781606625175,72.22949567169158 146.79740456959308,76.36330447794384 C 147.28699307293445,80.4971132841961 147.24473615547413,81.3596132841961 146.51569178652431,82.11330447794384 C 145.78664741757447,82.86699567169158 145.44645828221073,83.375 144.24776421743263,85.5 C 143.04907015265456,87.625 142.24972071298436,88.89448535783632 138.91876795296452,93.96323571890873 C 135.06104454606887,99.83357922732385 135.00027877745342,100.0230760129164 135.0178961794425,106.12802321248992 C 135.03329692354072,111.46483335124974 135.30934510172145,112.63184736557831 136.9975939275276,114.49734131984445 C 138.66512526087382,116.3399427026242 139.4829895206247,116.88387920461312 142.45002232586688,118.12358466643724 L 145.9406491555636,119.58206168034798 L 142.5019896432089,122.79103084017399 C 139.57912905770738,125.5186546260261 139.034721756702,125.93281194812828 138.8726076365063,125.55207965418853 C 138.71049351631058,125.17134736024879 138.44515399685173,125.30062870887933 137.10367750678066,126.41395531172554 C 135.76220101670958,127.52728191457176 135.310203067283,127.6411456916024 134.0903578439367,127.17304715859648 C 132.87051262059038,126.70494862559055 132.74229208065165,126.28947757654356 133.23555424434502,124.40324016494989 L 133.8158626722196,122.18413732778086 L 131.4079313361098,122.8909654265393 C 129.36118970041647,123.49176931048396 128.5952225467145,123.6279590109004 126.30148364476328,123.79889676264887 L 123.60296728952656,124.0 L 124.17963315689582,128.19327905929572 C 124.66979914415968,131.75756625969711 124.5120765974452,132.63078054541143 123.12814951213254,134.0147076307246 C 121.74422242681987,135.39863471603775 121.5,135.84246908574826 121.5,136.97360342879472 C 121.5,138.10473777184114 121.95,138.46122055956513 124.5,139.3501553469547 C 127.05,140.23909013434425 127.5,140.5912639057394 127.5,141.69798048958887 C 127.5,142.80469707343832 127.55499874337839,143.34748852825803 127.86665828918929,145.3165901883868 C 128.17831783500017,147.2856918485156 128.42481298498743,147.99099468554465 129.50995928910433,150.01860910191382 C 130.59510559322123,152.046223518283 131.25260684984283,152.5051970426113 133.89330099991503,153.07843259743584 C 136.53399514998725,153.65166815226038 137.1125,153.92136531523133 137.75,154.87641368390882 C 138.3875,155.83146205258632 138.5,156.12135254915623 138.5,156.80901699437493 C 138.5,157.49668143959363 138.32399384062674,157.5092562000279 137.32662560417825,156.8928487306032 C 136.32925736772975,156.27644126117846 135.76675736772975,156.11949995961436 133.57662560417825,155.8465733868425 C 131.38649384062674,155.57364681407063 129.83902037892764,155.42894354388142 123.26013585951756,154.88188491891452 C 116.6812513401075,154.33482629394763 115.30421215824012,154.41760004571734 114.07987464706842,155.4337099307126 C 112.7709286394513,156.52003863103315 112.54304732859127,156.44895176105135 111.58282698493755,154.6547636370198 C 110.68467398329801,152.9765494023857 110.22275108249252,152.75974145082589 108.50334097956758,153.20937729328767 C 106.78393087664264,153.65901313574946 106.14446764703465,154.09548358955834 104.24025278218089,156.11918031868018 C 102.33603791732713,158.14287704780202 101.60354832062768,158.5 99.3569888041845,158.5 C 97.11042928774131,158.5 96.63772386130553,158.69871407953403 96.20561929461255,159.82476053022685 C 95.77351472791956,160.95080698091965 95.85920965284456,161.88830698091965 96.7769187941125,166.07476053022685 C 97.69462793538045,170.26121407953403 98.13203232864262,171.24450146407128 99.69294808252701,172.6300097604751 C 101.25386383641141,174.01551805687893 101.43755149837995,174.49916325011438 100.91753249565062,175.85431104871145 C 100.39751349292128,177.2094588473085 100.54531452609488,177.68817166895155 101.90287271680805,179.0457298596652 C 103.26043090752121,180.40328805037882 103.5,180.78214285714336 103.5,181.57142857142884 C 103.5,182.36071428571432 103.35,182.5 102.5,182.5 C 101.65,182.5 101.5,182.7013794246325 101.5,183.84252949755012 C 101.5,184.98367957046773 100.975,185.46779016097648 98.0,187.069933434275 C 95.025,188.6720767075735 94.5,189.15555850105437 94.5,190.29314539081417 C 94.5,191.430732280574 94.65981455987914,191.93009914483474 95.56543039919427,193.6222578192192 C 96.48475979728181,195.34004051255957 96.339697034297,196.10651855810076 94.50757127225907,199.21174046374955 C 92.66982644650614,202.32648597312613 92.55904138623288,202.91845559468493 93.68378165956572,203.61358331212045 C 94.78835658598643,204.2962481597694 94.7970354550267,204.60296454497617 93.74164078650092,205.65835921349918 C 92.68624611797514,206.7137538820222 92.5,207.16999999999706 92.5,208.6999999999984 C 92.5,210.22999999999976 92.36496111379694,210.5 91.59974075864625,210.5 C 90.83452040349555,210.5 90.51944833771125,209.74953750022087 89.49926032008425,205.49691666813914 C 88.47907230245724,201.2442958360574 88.16411118866031,200.41044328690117 87.39951956143801,199.9378996737642 C 86.6349279342157,199.46535606062722 86.5,199.16581856040636 86.5,197.94098300562507 C 86.5,196.71614745084375 86.2,196.2 84.5,194.5 C 82.8,192.8 82.5,192.275 82.5,191.0 C 82.5,189.725 82.63102984337864,189.5 83.37353228919093,189.5 C 84.11603473500321,189.5 84.00353473500321,188.975 82.62353228919093,186.0 C 81.24352984337864,183.025 80.8125,182.5 79.75,182.5 C 78.6875,182.5 78.5,182.3431818181819 78.5,181.45454545454595 C 78.5,180.56590909091003 78.86818181818174,180.04090909091002 80.95454545454496,177.95454545454595 C 83.04090909090819,175.86818181818188 83.61090909090794,175.5 84.75454545454338,175.5 C 85.89818181817881,175.5 86.26687499999721,175.66687499999995 87.21249999999944,176.61249999999967 C 88.15812500000166,177.55812499999936 88.50045188054416,177.66651603981862 89.4946792036161,177.33510693212799 C 90.48890652668804,177.00369782443732 90.12703152668789,176.1467494526441 87.08217920361508,171.62211778683968 C 84.03732688054227,167.0974861210353 83.5,166.08587926254359 83.5,164.87807206356158 C 83.5,163.67026486457956 83.1200336080926,163.2839981437401 80.96689072061731,162.30296059129836 C 78.81374783314203,161.3219230388566 78.46078134410908,160.9126388575291 78.61378079373094,159.57439938244815 C 78.76678024335278,158.2361599073672 78.54674663526019,157.51994898903263 77.14689007311361,154.7996599268842 C 75.74703351096704,152.07937086473578 75.5,151.29187086473578 75.5,149.5496599268842 C 75.5,147.80744898903262 75.71754648296428,147.5 76.95030988642856,147.5 C 78.18307328989282,147.5 78.52057328989282,147.7009111372506 79.20030988642856,148.8394075816707 C 79.88004648296429,149.9779040260908 80.34060000898928,150.35984066432624 82.27066672659524,151.3856518365736 C 84.2007334442012,152.41146300882096 84.67607052334726,152.5092164209043 85.43958058756903,152.03734125046265 C 86.20309065179079,151.565466080021 86.10582018555822,151.0171238599288 84.79111081268528,148.38172644984803 C 83.47640143981235,145.7463290397673 83.12095787671467,144.28516449043332 82.42148705870073,138.64062945428827 C 81.7220162406868,132.99609441814323 81.66530874316628,131.325 82.04343707523067,127.5 C 82.42156540729506,123.675 82.53941482457493,122.55825235555724 82.82909985709648,120.05501570371499 C 83.11878488961803,117.55177905187273 83.33623628317716,117.0545879056076 84.27877581415729,116.74040806194756 C 85.22131534513743,116.42622821828752 85.29558160016445,116.13086912557678 84.77388418100409,114.7713474438759 C 84.25218676184375,113.41182576217501 84.32750251174852,113.2753567005367 85.27598918036921,113.86155369962046 C 86.22447584898991,114.4477506987042 86.54434296992663,113.99893438772806 87.40843665328069,110.8694449597795 C 88.27253033663473,107.73995553183094 88.33693760888521,107.04517650326439 87.83781846828387,106.2375847693358 C 87.33869932768255,105.4299930354072 87.26384829925279,104.62841608353683 87.33881161208546,100.89373842353342 C 87.41377492491814,97.15906076353001 87.28247846396755,96.5 86.4635018724149,96.5 C 85.64452528086224,96.5 85.5,96.00500000000007 85.5,93.20000000000041 C 85.5,90.39500000000075 85.33352825324017,89.73352825324088 84.39018835493454,88.7901883549346 C 83.4468484566289,87.84684845662832 83.54884396255626,87.22589787514185 85.07015839445035,84.65051781169143 C 86.70544386814544,81.88220015249394 86.74521128424296,81.27302725078756 85.5308492590755,77.59347417312331 C 84.40112206211276,74.17036714379084 84.09118007317961,73.63463062130334 83.46456933285444,74.02189735654004 C 82.83795859252926,74.40916409177673 82.64936965186179,74.17919238432182 82.20730972840465,72.48875264017396 C 81.7652498049475,70.79831289602609 81.48053741691328,70.5 80.30922714150978,70.5 C 79.13791686610627,70.5 78.66868898662273,70.05557879239548 77.1810412782861,67.53719194930319 C 75.44280937265498,64.59459987131766 75.40021476339028,64.57499916749319 70.93846996855174,64.66455633983432 C 66.57849234275095,64.75207081804673 66.46260599446178,64.80682141938591 67.00698000076153,66.52199203500649 C 67.48375143307743,68.02416580085912 67.33578707200616,68.5213557851366 66.02055092695312,69.83659193018974 C 64.70531478190009,71.15182807524286 64.38147321428569,71.84263392857156 63.86160714285713,74.44196428571436 C 63.34174107142857,77.04129464285715 63.187419056533194,77.5 62.832793710221296,77.5 C 62.4781683639094,77.5 62.226769410122046,77.32361756897602 61.15680068497228,76.32411712650676 C 60.08683195982252,75.32461668403752 59.96197886670874,74.71241341517239 60.32444673088043,72.2427620007392 C 60.68691459505212,69.77311058630602 60.5703089244246,68.99989051881627 59.54707559336363,67.08796155080756 C 58.52384226230265,65.17603258279885 57.94252629888324,64.60307811756253 55.67163583723418,63.26826511589877 C 53.20410775529554,61.81786994212611 52.813536382242916,61.07966464339891 50.559314280739414,53.60564485700622 L 48.11862856147883,45.51339283536516 L 44.24217947120867,42.948080210530314 L 40.36573038093852,40.38276758569547 L 37.43286519046926,43.69138379284773 C 34.93992977857039,46.50370756892716 34.5,47.2625 34.5,48.75 C 34.5,50.2375 34.33989184941644,50.5 33.43261232944293,50.5 C 32.525332809469425,50.5 32.468912241125686,50.8375 33.05647520715135,52.75 C 33.64403817317702,54.6625 33.9773944580774,55.2625 35.278850439820516,56.75 C 36.77242855535473,58.45708612355948 36.76326060944634,58.5 34.90498756211209,58.5 C 33.28574813431681,58.5 32.325,57.9 28.5,54.5 C 24.675,51.1 23.835748134316812,50.5 22.90498756211209,50.5 C 21.974226989907365,50.5 21.53196637725607,50.19280379244188 19.95658347777013,48.45202528294584 C 18.381200578284194,46.7112467734498 18.052677013561233,46.1487467734498 17.766426379617062,44.70202528294584 C 17.48017574567289,43.25530379244188 17.34378890728034,42.46436173675816 16.857180790333402,39.42907824505438 C 16.370572673386466,36.3937947533506 16.50174096093548,35.641116181922 17.731636040660163,34.41122110219705 C 18.961531120384844,33.1813260224721 19.277678571428684,32.74196428571395 19.839285714285776,31.482142857142673 C 20.400892857142868,30.2223214285714 20.5,30.1875 20.5,31.25 C 20.5,32.3125 20.739356191504505,32.5 22.09570794336338,32.5 C 23.452059695222253,32.5 24.12244470692178,32.75461498830052 26.564941354693538,34.19743325533676 C 29.007438002465296,35.64025152237301 29.548806592146605,35.784526741187165 30.174065285902266,35.15926804743108 C 30.799323979657924,34.53400935367499 30.719871607713852,33.94189436537447 29.644382806275132,31.21183479209431 C 28.568894004836412,28.481775218814146 28.314411209231668,27.534019431704802 27.947830835576852,24.89346287803201 C 27.581250461922036,22.25290632435922 27.795412132420843,21.465406324359222 29.375575305568898,19.64346287803201 C 30.955738478716952,17.8215194317048 31.554496493135876,17.5 33.36729540169507,17.5 C 35.39294174313115,17.5 35.5,17.349404942971567 35.5,14.5 C 35.5,11.95 35.62593050500237,11.5 36.339536700015834,11.5 C 37.053142895029296,11.5 37.874969477915265,12.396115022616947 41.818380585922306,17.47410015077965 C 45.76179169392935,22.552085278942346 47.057880403737684,23.827085278942345 50.458971984644556,25.97410015077965 C 53.86006356555143,28.121115022616948 54.91794470211626,28.5 57.51151289507678,28.5 C 60.105081088037295,28.5 60.649110193854234,28.275 61.138373600523046,27.0 C 61.62763700719186,25.725 62.14792928774106,25.5 64.60698880418435,25.5 C 67.06604832062766,25.5 67.5,25.35 67.5,24.5 C 67.5,23.65 67.7875,23.5 69.41666666666666,23.5 C 71.04583333333333,23.5 71.42083333333333,23.3125 71.91666666666666,22.25 C 72.4125,21.1875 72.59100739359955,21.198022180798656 73.10671595733035,22.32014787199104 C 73.63635747289928,23.47259014954884 73.89763181114087,23.37731355327237 75.1634199259794,21.57014787199104 C 76.3959097356003,19.810522180798657 76.82990234200075,19.5 78.05670396864906,19.5 C 79.28350559529736,19.5 79.5,19.35 79.5,18.5 C 79.5,17.65 79.89490568974574,17.5 82.13270459830494,17.5 C 84.37050350686413,17.5 85.04550350686412,17.177048546888596 86.63270459830494,15.346990312590647 C 88.21990568974574,13.516932078292696 88.5,13.05815584619681 88.5,12.288482098618072 C 88.5,11.518808351039336 89.0625,10.79175980415074 92.25,7.441491786027426" fill="none" stroke="#000000" stroke-width="0.2208413738886687"/>
	<path d="M 90.29096497314066,32.683858319226665 L 89.18507986164133,30.0 L 91.91636344460659,32.00282025835692 C 94.34580565393021,33.78430355203167 94.79944239062,34.65864266071231 96.0212035352886,39.91448599414531 C 97.18872656684782,44.93700464996206 97.63807760767097,46.06158161120852 99.01687714077624,47.41166573578839 C 100.56098749489732,48.92361785474745 100.6075832431665,48.91876432650781 99.98581593266042,47.31073867777188 C 99.43061437265669,45.87486655387798 99.45768980476565,45.401379358608224 100.16631881338684,44.154157375973526 C 100.92731684770307,42.81476332691001 101.21795847580597,43.15689937541664 103.5,48.07848341148859 C 105.625,52.661382524311094 106.15,53.412151780558816 107.0,53.08361178647344 C 107.85,52.75507179238806 108.04780806665372,52.13628973302702 108.31872044435809,48.95839805739984 C 108.58963282206246,45.78050638177266 108.85213282206246,45.0050100350804 110.06872044435809,43.788422412784776 C 111.37345748977384,42.48368536736901 111.5,42.497760674781304 111.5,43.947623456786346 C 111.5,45.33553964595749 111.78656113357493,45.46622913258772 113.75,44.97376172351372 L 116.0,44.40941939059759 L 117.75,49.338923467216325 C 119.2375,53.52900193234225 119.5,54.51283080471317 119.5,55.89778261635577 C 119.5,57.28273442799837 119.6875,57.83697606062633 120.75,59.59272683387548 C 121.94216942732159,61.5627526163356 121.89590496917886,61.729693435874026 119.75,63.201130049652996 C 117.8375,64.51252200981473 117.5,64.95064831139915 117.5,66.12197206021575 C 117.5,67.29329580903236 117.20922252789298,67.79077747210702 115.56148351928653,69.43851648071347 C 113.72443405524628,71.27556594475372 113.5980484261785,71.28865159783982 113.14689961896093,69.68851648071347 C 112.74224231229063,68.25327747210702 112.50018584775849,68.64512175568237 111.53318985541333,72.30081170454909 C 110.41761172841562,76.51821051315287 110.35777104955075,76.58963362584527 108.44777375573892,75.98342403399204 C 106.63361407054767,75.40763211749064 106.5,75.5070440469176 106.5,77.43261232944293 C 106.5,79.18989184941644 106.275,79.5 105.0,79.5 C 103.725,79.5 103.5,79.6875 103.5,80.75 C 103.5,81.8125 103.35,81.7 102.5,80.0 C 101.55934339291596,78.11868678583194 101.5,78.10385093760294 101.5,79.75 C 101.5,81.2375 101.36071428571428,81.5 100.57142857142853,81.5 C 99.78214285714279,81.5 99.41333392561745,81.72952321723963 98.11270236125958,83.03015478159756 L 96.58254757966209,84.56030956319512 L 95.04127378983105,81.57981470848176 C 93.73119106847466,79.04639408197541 93.5,78.0925875494137 93.5,75.22110449140366 C 93.5,72.34962143339364 93.05639349337936,71.17316550818887 90.54262328919577,67.37806499003855 C 87.712718782974,63.10568876407951 87.58261136330955,62.59183714183096 87.52410914268982,55.456620425519084 C 87.47214232234337,49.11849306382786 87.5947826446974,47.106988728088865 88.34171129171675,42.046591520592436 C 89.0886399387361,36.98619431309601 89.38368081705998,36.038773060980006 90.3086504805427,35.7304498398191 C 91.2336201440254,35.4221266186582 91.23096731791509,34.96513789056933 90.29096497314066,32.683858319226665" fill="none" stroke="#000000" stroke-width="0.2208413738886687"/>
</svg>
