<?xml version="1.0" ?>
<svg baseProfile="full" height="600px" version="1.1" viewBox="-2.4585344304032404 -5.719782288160831 94.05042929205275 123.55925354664348" width="457px" xmlns="http://www.w3.org/2000/svg" xmlns:ev="http://www.w3.org/2001/xml-events" xmlns:xlink="http://www.w3.org/1999/xlink">
	<defs/>
	<path d="M 37.25,5.066671005291692 C 38.7375,4.573690282331734 41.00395273139307,4.525191657850155 52.35968487595383,4.743346842081165 C 63.71541702051459,4.961502026312175 65.7904170205146,5.1875 66.19301820928717,6.25 C 66.59561939805975,7.3125 66.88444423043987,7.5 68.11851709182133,7.5 C 69.372358631778,7.5 69.429185217173,7.763801540244527 68.53518375848799,9.434258545910666 C 67.6552775637732,11.078378309934731 67.5,11.684953824043815 67.5,13.4780953066379 C 67.5,15.271236789231988 67.6875,15.581098007345387 68.75,15.543836760727237 C 69.8125,15.506575514109086 70.4125,15.5 72.75,15.5 C 75.44057208569545,15.5 75.5,15.555568958830222 75.5,18.071428571428598 C 75.5,20.257142857142906 75.73841339681675,20.88127053967395 77.08942264544507,22.23227978830221 C 78.44043189407338,23.583289036930474 78.58124095913915,24.472574751216186 78.0281497458835,28.160851216873613 C 77.44445598043916,32.05320012179863 77.53821765385543,32.5 78.93872710043843,32.5 C 80.26580906506577,32.5 80.5,32.839430729540325 80.5,34.762871530268825 C 80.5,36.68631233099732 80.19066889450903,37.17381233099732 78.43779263006024,38.012871530268825 C 76.68491636561146,38.85193072954032 76.20059046269355,39.25868432037664 75.20895327727428,40.72456213584427 C 74.21731609185498,42.19043995131191 74.20616273935804,42.883189821418654 75.1345975939613,45.342894603222604 C 76.06303244856458,47.80259938502655 76.08075835802573,48.497758911265244 75.2527703237023,49.97729144481394 C 74.42478228937885,51.45682397836264 74.46420637910616,52.06460191576034 75.51559758855095,54.02914436079865 C 76.56698879799575,55.99368680583695 76.65172566059503,56.877695686621266 76.08051000587952,59.922536899360786 C 75.50929435116402,62.967378112100306 75.7045320144988,64.17395151764138 77.38209442811137,67.966359602968 C 79.06818349467606,71.77804360156856 79.29282201530664,73.5347921229079 78.92409785143644,80.02534319234745 C 78.55723834765017,86.48307115799336 78.643061052576,87.52961739579159 79.49624921760865,87.00231811100225 C 80.3494373826413,86.47501882621292 80.5,86.76636221925112 80.5,88.94460739792353 C 80.5,91.12285257659595 80.77509807968968,92.02052217181367 82.33398719793126,94.92907136604164 C 83.96223105297985,97.96702146601427 84.04890856103822,98.86408391570298 83.10662672978867,102.92544697374316 C 82.2044812136259,106.81381704606147 81.85438313393621,107.5 80.77263953185741,107.5 C 79.6908959297786,107.5 79.5,107.27001344047173 79.5,105.96675626981153 C 79.5,104.66349909915132 79.125,103.69348565867959 77.0,99.5 C 74.875,95.30651434132041 74.5,94.27300969314021 74.5,92.60996901213207 C 74.5,90.94692833112391 74.125,90.2077883852584 72.0,87.68236937302862 C 69.875,85.15695036079886 69.5,84.32044156850732 69.5,82.10564409108504 C 69.5,79.89084661366276 69.28350559529736,79.5 68.05670396864906,79.5 C 66.82990234200075,79.5 66.37990234200075,79.16662406348918 65.05670396864906,77.27749375659457 C 63.73350559529736,75.38836344969997 63.5,74.73951055370638 63.5,72.95180778330405 C 63.5,71.16410501290173 63.12962304866428,70.50067697412021 61.03082032442852,68.52895419142732 C 58.93201760019276,66.55723140873442 58.626830541366836,66.10380086763186 58.996239932255705,65.50608391741028 C 59.365649323144574,64.90836696718868 59.136026274480294,64.48644295885406 57.46541960782719,62.69325719517941 C 55.79481294117408,60.90007143150477 55.5,60.48244917885517 55.5,59.90910884418204 C 55.5,59.33576850950892 55.223338012472034,58.99199649313587 53.655586749813565,57.61729540169507 C 52.08783548715509,56.24259431025426 51.75033548715509,55.83304010541819 51.405586749813565,54.886934036121296 C 51.06083801247203,53.9408279668244 49.88957121724433,52.5533279668244 43.597141448295545,45.636934036121296 L 36.19428289659108,37.5 L 32.31575665195683,37.5 C 29.019009344017725,37.5 28.353934826578783,37.28293519605024 27.881926535697218,36.052901307001605 C 27.409918244815657,34.82286741795297 26.514625964266465,34.43723274715997 21.913311332035924,33.48200350171494 C 17.311996699805388,32.52677425626991 16.5,32.25545576657883 16.5,31.67321357044105 C 16.5,31.090971374303273 16.0125,30.778094346193917 13.25,29.587366716378682 C 10.4875,28.39663908656345 9.656640110514765,27.921324969828103 7.7109340700984275,26.41860593814303 L 5.421868140196855,24.65070119498412 L 7.7109340700984275,22.50773459802687 C 9.656640110514765,20.686212990613214 10.39893199574251,20.44344680013791 12.659546638283405,20.889293328191496 C 14.9201612808243,21.335139856245082 15.402953561373488,21.195282256164862 15.878161841944674,19.956909327656682 C 16.353370122515862,18.7185363991485 16.352260616299784,18.2785722739993 15.870765133837484,17.023815159995316 C 15.389269651375185,15.769058045991336 15.898854913974956,14.922769134564 19.268000217835954,11.381889083813068 C 22.63714552169695,7.841009033062136 23.40182303217052,7.321289308219081 24.36585028765974,7.917090918192698 C 25.32987754314896,8.512892528166315 25.5,8.909181439593652 25.5,10.559016994374947 C 25.5,12.208852549156243 25.65,12.5 26.5,12.5 C 27.35,12.5 27.5,12.190571262501408 27.5,10.437141750009388 C 27.5,8.68371223751737 27.7625,8.389425375962086 29.25,8.475229339640833 C 30.7375,8.561033303319581 31.3375,8.477967336224026 33.25,7.9214562256704575 C 35.1625,7.364945115116891 35.5,7.145230601153753 35.5,6.45669279924954 C 35.5,5.768154997345325 35.7625,5.559651728251649 37.25,5.066671005291692" fill="none" stroke="#000000" stroke-width="0.10288031102967816"/>
</svg>
