<?xml version="1.0" ?>
<svg baseProfile="full" height="229px" version="1.1" viewBox="-5.935356199968084 0.04204169536644464 139.2158477297981 52.915916609267114" width="600px" xmlns="http://www.w3.org/2000/svg" xmlns:ev="http://www.w3.org/2001/xml-events" xmlns:xlink="http://www.w3.org/1999/xlink">
	<defs/>
	<path d="M 63.0,6.0703352654556495 C 66.4,4.735550289818347 69.5223612181134,4.5 83.81574145408933,4.5 C 98.10912169006527,4.5 100.92162169006527,4.6552775637732 102.56574145408933,5.535183758487996 C 104.2098612181134,6.415089953202793 104.5,6.957121519462218 104.5,9.14872753355083 L 104.5,11.727087550125667 L 109.08348776652159,11.039751111728831 C 112.97945236806494,10.45551513909152 114.26426779045134,10.45332655244062 117.64892391576436,11.025160534056155 L 121.63087229848554,11.697906394780313 L 119.91044858713067,13.598953197390156 C 118.44808843247905,15.214842979608523 118.06029222490335,15.5 117.325140536626,15.5 C 116.58998884834864,15.5 115.90073698266545,15.852209217835778 112.73012809873808,17.848061452238518 C 109.5595192148107,19.843913686641258 108.19527480848343,20.44391368664126 103.63516538988952,21.848061452238518 C 99.07505597129561,23.252209217835777 97.83031004872316,23.5 95.33685923940652,23.5 C 92.84340843008987,23.5 91.78245921798468,23.8 88.26386449203864,25.5 C 84.7452697660926,27.2 83.74001568866505,27.5 81.56217064252165,27.5 L 79.0,27.5 L 82.26577654245918,24.5 C 85.04168660354948,21.95 85.42733629829608,21.5 84.83677450743653,21.5 C 84.24621271657699,21.5 83.60634623520811,21.667481637371363 80.57099796497735,22.616544249142414 C 77.5356496947466,23.565606860913462 76.45333221448782,24.016306370021304 73.35554809658544,25.621207643194683 C 70.25776397868304,27.226108916368062 68.98276397868305,27.601496372749516 64.85554809658544,28.123790685737696 C 60.728332214487814,28.646084998725875 59.288910331387015,29.0811622602988 55.25940220924676,31.024305762890545 C 51.2298940871065,32.96744926548229 49.7298940871065,33.48929746699043 45.25940220924676,34.50329377294483 C 40.788910331387015,35.51729007889923 39.527330631620025,35.90651330821846 36.84887087746684,37.09811530173971 C 34.17041112331364,38.28971729526096 33.42041112331364,38.5 31.848870877466833,38.5 C 30.277330631620025,38.5 29.188534677659508,38.95 24.590231184396714,41.5 C 19.99192769113392,44.05 18.833053136731618,44.5 16.86440082171469,44.5 C 14.895748506697762,44.5 14.057213829038256,44.8 11.274169637317975,46.5 C 8.491125445597696,48.2 7.794133292683674,48.5 6.627555284557826,48.5 C 5.460977276431978,48.5 5.431113319329765,48.287929659637626 6.4284622372097395,47.08619773091749 C 7.425811155089714,45.884465802197354 8.240108671750528,45.37236150571166 11.857112348281845,43.67216908767952 C 15.47411602481316,41.97197666964738 16.309846689231698,41.43404701000976 17.428650111072105,40.08597135676203 C 18.716593520507384,38.53409448623505 18.699936781944903,38.5 16.653829511780923,38.5 C 14.73730736191615,38.5 14.614302119421266,38.353930012537084 15.180158033437738,36.75 C 15.704938208083943,35.2625 16.09728799273996,34.666853179608026 17.795823264477868,32.779021197386825 C 19.494358536215778,30.891189215165628 20.334542550650927,30.384125430510334 23.39705002737888,29.398595966351518 C 26.459557504106833,28.413066502192702 27.65044298806566,27.71306507828148 31.336286587104397,24.731919806943385 C 35.30780316501513,21.519719520049165 35.56016425914469,21.151077900434814 34.3362865871044,20.349608568923074 C 33.143926658321256,19.568778967341988 33.20907214398851,19.31433921587009 34.94112963510486,17.987263530944382 C 36.59108982494398,16.72308952964166 37.065255778645,16.5 38.10223599311168,16.5 C 39.13921620757834,16.5 39.68560400041057,16.068133996002572 41.74482127865984,13.620893306683802 C 43.80403855690911,11.173652617365034 44.75487260320809,10.655547179970434 48.08371492065302,10.166857057386459 C 51.41255723809795,9.678166934802485 52.525,9.445583228618263 55.5,8.616299016158306 C 58.475,7.78701480369835 59.6,7.405120241092952 63.0,6.0703352654556495" fill="none" stroke="#000000" stroke-width="0.11591660926710916"/>
</svg>
