<?xml version="1.0" ?>
<svg baseProfile="full" height="600px" version="1.1" viewBox="81.88626466759764 -9.584559606393931 106.12067957044047 168.31399091820006" width="379px" xmlns="http://www.w3.org/2000/svg" xmlns:ev="http://www.w3.org/2001/xml-events" xmlns:xlink="http://www.w3.org/1999/xlink">
	<defs/>
	<path d="M 129.06091194479606,7.0299971461130015 L 131.59090909090907,4.499999999999998 L 150.39046698334244,4.499999999999999 C 168.45016178441733,4.5 169.26008595655105,4.577416622844757 170.97024253958972,6.467118376366582 C 172.4834275538315,8.139168996278176 172.67412134006568,8.726157014584214 172.24153444781763,10.380371831740165 C 171.80894755556957,12.034586648896116 172.14186352069186,12.827018892441128 174.4609742152996,15.663253455373583 C 176.78008490990732,18.49948801830604 177.36739751935187,19.523533047260027 178.37639161159666,22.49022031506685 C 179.43181214478906,25.593412575625756 179.38432015753787,26.11141880489659 177.94810870864876,27.161602256695918 C 176.57507414889827,28.165589639273804 176.35758155329188,28.767056592013777 176.49815807127297,31.17138194162907 C 176.63873458925406,33.57570729124436 176.560228223691,34.2625 175.97478230085272,35.75 C 175.38933637801443,37.2375 175.0608095077777,37.5 173.78460316594104,37.5 C 172.49430734329124,37.5 172.3680668349941,37.83820039080127 172.88683473530426,39.90513634003826 C 173.47915038057758,42.26510984606854 173.45363467584957,42.30063596514506 171.52800174727273,41.79707164233509 C 169.85989053165056,41.36085076025488 169.3922374095574,41.07508030924914 168.41031426665174,39.89193530229683 C 167.42839112374608,38.70879029534452 167.123477276432,38.5 166.37755528455784,38.5 C 165.6316332926837,38.5 165.5,38.66071428571428 165.5,39.57142857142851 C 165.5,40.48214285714275 165.2857142857143,40.85714285714275 164.0714285714286,42.07142857142851 C 162.85714285714292,43.28571428571428 162.33214285714294,43.5 160.5714285714286,43.5 C 158.7532547047487,43.5 158.5,43.75276066060388 158.5,45.56738767055707 C 158.5,47.54258158011735 158.3996627651422,47.60390623483181 156.25,46.942554858521945 C 154.3375,46.35416744831859 153.81064729953206,46.099154985597956 152.73764866354713,45.242471773717725 C 151.65188585449397,44.37559763296363 151.15919557472685,44.575688606875545 149.21562918538763,46.67283144684701 C 147.294911264937,48.74532038088714 146.69676396540493,49.21051697357341 145.2279805218405,49.77414206475551 C 143.75919707827606,50.33776715593761 143.5,50.656829976189925 143.5,51.901227533104276 C 143.5,53.145625090018626 143.18925044995834,53.46385273470024 141.42833633305565,54.02274516431504 C 139.66742221615297,54.58163759392985 139.05364139725384,54.406026140497175 137.33646420706157,52.852002141430575 L 135.3162557480118,51.02373861311692 L 135.82340027619043,55.635627561967596 C 136.25447312514225,59.55573316849066 136.6432539440414,60.86047706241243 138.41527240218454,64.3339201881127 C 140.1872908603277,67.80736331381296 140.5,68.67464094385473 140.5,70.11577105505779 C 140.5,71.55690116626084 140.85025964131754,72.27537687635531 142.83506427545024,74.90560912235422 C 144.81986890958296,77.53584136835313 145.3751673509584,78.51671292526537 146.53705388461992,81.4447528351024 C 147.69894041828144,84.37279274493945 147.87667538988347,85.21941134560524 147.72195369530013,87.08887683954094 C 147.56723200071679,88.95834233347665 147.76193355934134,89.47249611552762 149.01996408613047,90.51656871988071 C 150.27799461291957,91.5606413242338 150.5,91.95152272356802 150.5,93.12244471544217 C 150.5,94.29336670731632 150.3875,94.5 149.75,94.5 C 149.1125,94.5 148.82434729671962,94.87980045780472 147.8289819781308,97.03200305203148 L 146.65796395626163,99.56400610406295 L 150.96996425756635,101.59088549774432 C 154.93485892716097,103.45460598530708 155.2439718250136,103.76304932888218 154.8099910013299,105.42259454803734 C 154.40881347741993,106.95669975615725 154.7251661355046,107.53195540993562 156.9190087218944,109.25763223989318 C 159.11285130828415,110.98330906985073 159.5,111.52347469072886 159.5,112.85873637908068 C 159.5,114.1939980674325 159.82026493879974,114.60103307668278 161.6350995919983,115.57230310741585 C 163.58555395555356,116.61615460446266 163.65125150391464,116.78848744098131 162.39477700085325,117.56503138987088 C 161.22566814518137,118.2875803992246 160.68568070053337,118.19645736933902 158.79486070319976,116.95754452396704 C 156.90404070586615,115.71863167859506 156.25104615227144,115.5 154.44156367923495,115.5 C 152.63208120619845,115.5 152.23430900745257,115.2 151.78974902092907,113.5 C 151.34518903440556,111.8 151.14271238763462,111.5 150.4399047091228,111.5 C 149.737097030611,111.5 149.35526728839642,111.06357116119752 147.89437309435885,108.59047440798345 C 146.43347890032132,106.11737765476938 145.71249848935875,105.59839171402831 143.087837021275,105.1305681363763 C 140.46317555319123,104.66274455872428 139.175,104.37806988043535 134.5,103.23273694778337 C 129.825,102.0874040151314 128.82459296900223,101.7800112725845 127.83061979334812,101.18345199747071 C 126.83664661769402,100.58689272235692 126.43486090340835,100.70799623944835 125.15204836477693,101.99080877808018 C 123.86923582614551,103.27362131671202 123.29464285714329,103.5 121.32142857142881,103.5 C 119.34821428571432,103.5 118.777067019028,103.64325133571967 117.51378012685333,104.45500890479778 C 116.23972578412724,105.27368537688908 116.19140373532161,105.8440887551203 117.17528409922939,108.45068546336378 C 118.1508493679237,111.03525296906678 118.19123320189085,111.57279438707903 117.44450965901044,112.03429491677886 C 116.69778611613003,112.4957954464787 117.01106052027362,113.30053377809723 119.5330056866344,117.39921712756905 C 122.05495085299516,121.49790047704084 122.5,122.3813934375946 122.5,123.28917019792735 C 122.5,124.1969469582601 122.73571428571425,124.59285714285667 124.07142857142831,125.92857142857117 C 125.40714285714238,127.26428571428568 126.00186529336918,127.5 128.0362448129403,127.5 C 130.07062433251144,127.5 130.58809998209153,127.20390076949414 131.48608247680755,125.5260051299609 L 132.5425324705911,123.55201025992179 L 138.40162978095933,126.52938887758891 C 143.38186249477232,129.06016070260597 144.46322973306542,129.75076825152485 145.61074470291337,131.1334392037147 L 146.9607623144992,132.76011091217333 L 143.81695208770424,132.06961435620434 C 140.82768031619028,131.41306013881126 140.6402469093092,131.48276061516356 140.00395253154738,133.48754667583518 C 139.43514160158978,135.27971122009504 139.4958545708773,135.79007877622183 140.40870566013083,136.88999705001393 C 141.32155674938437,137.98991532380603 141.38922707299355,138.27743959367513 140.8598411508587,138.80682551580804 C 140.33045522872385,139.33621143794096 139.96585987439047,139.28450439699304 138.42920545530274,138.46211190948847 C 136.892551036215,137.6397194219839 136.52654798940344,137.6480274564373 135.98918514322563,138.5174988058444 C 135.4518222970478,139.3869701552515 134.59775244511516,139.46600186252127 130.29538613034134,139.04437685430946 L 125.23377870119569,138.5483474328838 L 127.11688935059784,140.6644917522973 L 129.0,142.78063607171077 L 126.25,142.27898990733772 C 123.9125,141.85259066762063 123.5,141.88707050039233 123.5,142.50885545914915 C 123.5,143.13064041790597 122.2625,143.20066071262312 115.25,142.97565742393016 C 108.2375,142.75065413523723 106.8956559480313,142.8782825451183 106.30437298687539,143.82651348980409 C 105.71309002571947,144.77474443448986 105.51383559683202,144.84716893016304 104.97601012762576,144.3093434609586 C 104.43818465841949,143.77151799175417 104.28498934857498,143.32586204372308 103.95470806199567,141.33830380741787 C 103.62442677541637,139.35074557111267 103.51488984432712,138.7375286599065 103.22446185473396,137.25019106604333 C 102.93403386514079,135.76285347218018 102.66010873800657,135.3128534721802 101.39829434050574,134.25019106604333 C 100.13647994300491,133.1875286599065 99.67679937146656,132.62181799731258 98.33375719691671,130.47878664875043 C 96.99071502236687,128.33575530018828 96.6932683219734,127.32380782397658 96.35077919429361,123.7324701406725 C 95.95013777188367,119.53134805676649 95.95852305115453,119.51075422198852 97.828138861766,120.10414722895516 C 99.6521055647913,120.68305177200202 99.64748034514533,120.61554589361799 97.67372592155712,117.85046373703307 C 95.94423007734822,115.42756956055496 95.71914307196222,114.5225831393534 96.17314588565041,111.81722092902265 C 96.6271486993386,109.11185871869189 96.91672182971084,108.55406643814274 98.10363342146532,108.09860572536158 C 99.2905450132198,107.6431450125804 99.5,107.70806187322701 99.5,108.53138479633893 C 99.5,109.35470771945084 99.73385254915624,109.5 101.05901699437496,109.5 C 102.38418143959366,109.5 102.53088631190631,109.3589920968265 102.03704947645934,108.5599473121766 C 101.54321264101237,107.76090252752671 101.66227598574805,107.4272646881074 102.83080510803052,106.33569504938112 C 104.10901921074836,105.14166429763297 103.99921802995155,104.71617099535565 101.2669981881984,100.27574773720451 C 98.76923318405863,96.21636216058067 98.14622197148405,95.5 97.11359010436792,95.5 C 96.08095823725176,95.5 95.4947780405405,95.3125 93.20572212629277,94.25 C 90.91666621204504,93.1875 90.56933792571557,92.85 90.89020021742961,92.0 C 91.21106250914364,91.15 91.58510887151706,90.85193072954034 93.38384263325247,90.01287153026891 C 95.18257639498788,89.17381233099749 95.5,88.91131233099749 95.5,88.26287153026891 C 95.5,87.61443072954033 95.84500000000006,87.5 97.80000000000037,87.5 C 99.75500000000068,87.5 100.28000000000068,87.31999999999995 101.30000000000037,86.29999999999963 C 102.32000000000005,85.2799999999993 102.67999999999995,85.2799999999993 103.69999999999963,86.29999999999963 C 104.71999999999932,87.31999999999995 105.00250529540519,87.5 105.58336863603876,87.5 C 106.16423197667233,87.5 106.35042279358002,87.17998607417273 106.82464074875672,85.36657382781823 L 107.3825442254352,83.23314765563647 L 110.9412721127176,85.33284849521706 C 114.00603047391763,87.14110018175933 114.5,87.23317841934765 114.5,85.99621207255392 C 114.5,84.77532539964673 114.0496768175188,84.2269364864511 111.49784545012534,82.34028598458303 C 108.89788687342438,80.41805349843744 108.65828147541282,80.02021065715529 109.7093331730413,79.37062498408761 C 110.7588489833854,78.72198854156457 110.5562884097038,78.33211674466365 108.21148772291598,76.48769625562676 C 105.9067231584374,74.67476818498807 105.5,74.06101900483831 105.5,72.39603505462844 C 105.5,70.73105110441857 105.7625,70.35254802657737 107.25,69.87268120235373 C 108.7375,69.3928143781301 109.20457185882253,69.24567873012528 110.36381239215021,68.89177688232157 C 111.53723227318531,68.53354625441568 111.48317706696781,68.16303027064491 109.97660619549956,66.23771088362919 C 108.4882403950188,64.33565663254439 107.85637314363964,63.34804308473062 105.76415785297186,59.65362056487079 C 103.67194256230407,55.959198045010965 103.26315048131109,54.94669804501096 103.0388773130187,52.90362056487079 C 102.81460414472632,50.86054308473062 102.88372113296563,50.5 103.49965723461409,50.5 C 104.11559333626256,50.5 104.16390488439909,49.95205485719669 103.8217342221909,46.8470323813113 L 103.41918050194597,43.1940647626226 L 113.5713147711807,43.859373459445294 C 123.0995018707628,44.48379248052898 123.68492115221164,44.424280089017 123.09656857171726,42.891057841234705 C 122.56372017332383,41.50247717345642 122.85540460966526,40.89996353234017 125.04113148066006,38.874300233793065 C 127.22685835165487,36.84863693524595 127.5202791947722,36.34182942078085 126.99727043477556,35.49558347069235 C 126.47426167477892,34.64933752060385 126.59073876749446,34.5 127.77378438621247,34.5 C 128.9568300049305,34.5 129.1154511999258,33.664818420458225 128.83125901951448,28.93212280305483 L 128.4969152778541,23.364245606109662 L 130.49845763892705,23.9995104736119 C 132.49857915546235,24.634324382576107 132.5,24.632349450962128 132.5,21.21742617033393 C 132.5,18.31267937517076 132.05231860990122,17.18207079650415 129.51545739934153,13.680035645889866 L 126.53091479868307,9.559994292226005 L 129.06091194479606,7.0299971461130015" fill="none" stroke="#000000" stroke-width="0.1401448717054122"/>
	<path d="M 127.9,26.9 L 127.9,26.9 L 127.9,26.9" fill="none" stroke="#000000" stroke-width="0.1401448717054122"/>
</svg>
